<?xml version="1.0" standalone="no"?>
<!DOCTYPE svg PUBLIC "-//W3C//DTD SVG 1.1//EN" "http://www.w3.org/Graphics/SVG/1.1/DTD/svg11.dtd" >
<svg>
<metadata>
Created by FontForge 20090914 at Mon Jun 29 01:26:23 2015
 By www-data
Copyright (c) 2013 by deFharo. All rights reserved.
</metadata>
<defs>
<font id="H.H.Samuel" horiz-adv-x="199" >
  <font-face 
    font-family="H.H. Samuel"
    font-weight="900"
    font-stretch="ultra-condensed"
    units-per-em="1000"
    panose-1="2 0 9 8 0 0 0 2 0 4"
    ascent="800"
    descent="-200"
    x-height="581.999"
    cap-height="791"
    bbox="-62.001 -208 1200 1030"
    underline-thickness="52"
    underline-position="-81"
    unicode-range="U+0020-U+FB06"
  />
<missing-glyph horiz-adv-x="452" 
d="M137 114v286h170v-114h115v-172h-285zM245 319v43h-43v-43h43zM23 114h114v-114zM307 730v-286h-169v115h-115v171h284zM199 524v-43h43v43h-43zM422 730h-115v114z" />
    <glyph glyph-name=".notdef" horiz-adv-x="452" 
d="M137 114v286h170v-114h115v-172h-285zM245 319v43h-43v-43h43zM23 114h114v-114zM307 730v-286h-169v115h-115v171h284zM199 524v-43h43v43h-43zM422 730h-115v114z" />
    <glyph glyph-name="space" unicode=" " horiz-adv-x="136" 
 />
    <glyph glyph-name="space" unicode="&#xa0;" horiz-adv-x="136" 
 />
    <glyph glyph-name="exclam" unicode="!" horiz-adv-x="217" 
d="M170 36c0 -9.33301 -3.33301 -17.666 -10 -24.999s-15.667 -11 -27 -11h-50c-10 0 -18.5 3.66699 -25.5 11s-10.5 15.666 -10.5 24.999v83c0 10 3.5 18.667 10.5 26s15.5 11 25.5 11h50c11.333 0 20.333 -3.66699 27 -11s10 -16 10 -26v-83zM179 448l-23 -234h-92
l-24 234v369c0 11.333 3.5 20.333 10.5 27s15.5 10 25.5 10h66c10 0 18.667 -3.33301 26 -10s11 -15.667 11 -27v-369z" />
    <glyph glyph-name="quotedbl" unicode="&#x22;" horiz-adv-x="372" 
d="M331 751l-20 -263c0 -5.33301 -2 -10.166 -6 -14.499s-9.33301 -6.5 -16 -6.5h-35c-6 0 -11 2.16699 -15 6.5s-6.33301 9.16602 -7 14.499l-20 263c0 11.333 3.5 20.833 10.5 28.5s15.5 11.5 25.5 11.5h46c11.333 0 20.333 -3.83301 27 -11.5s10 -17.167 10 -28.5z
M158 751l-19.999 -263c-0.666992 -5.33301 -3 -10.166 -7 -14.499s-9.33301 -6.5 -16 -6.5h-33c-6.66699 0 -12 2.16699 -16 6.5s-6.33301 9.16602 -7 14.499l-21 263c0 11.333 3.66699 20.833 11 28.5s15.666 11.5 24.999 11.5h47c10.667 0 19.5 -3.5 26.5 -10.5
s10.5 -15.167 10.5 -24.5v-5z" />
    <glyph glyph-name="numbersign" unicode="#" horiz-adv-x="604" 
d="M322 443h-47l-12 -100h47zM148 343l12 100h-18c-10 0 -18.5 3.33301 -25.5 10s-10.5 15.334 -10.5 26.001v38c0 10.667 3.5 19.5 10.5 26.5s15.5 10.5 25.5 10.5h28l16 125c0.666992 10 4.5 18 11.5 24s15.167 9 24.5 9h5l39 -6c10 -1.33301 18 -5.33301 24 -12
s9 -14.667 9 -24l-13 -116h48l14 125c0.666992 10 4.5 18 11.5 24s15.167 9 24.5 9h5l39 -6c10 -1.33301 17.833 -5.33301 23.5 -12s8.5 -14.667 8.5 -24l-12 -116h15c10.667 0 19.5 -3.5 26.5 -10.5s10.5 -15.833 10.5 -26.5v-38c0 -10.667 -3.5 -19.334 -10.5 -26.001
s-15.833 -10 -26.5 -10h-26l-12 -100h17c10 0 18.667 -3.33301 26 -10s11 -15.334 11 -26.001v-39c0 -10 -3.66699 -18.5 -11 -25.5s-16 -10.5 -26 -10.5h-29l-15 -126c-0.666992 -9.33301 -4.5 -17 -11.5 -23s-15.5 -9 -25.5 -9h-3l-40 5
c-9.33301 0.666992 -17 4.5 -23 11.5s-9 15.167 -9 24.5l13 117h-48l-15 -126c-0.666992 -9.33301 -4.5 -17 -11.5 -23s-15.5 -9 -25.5 -9h-3l-40 5c-9.33301 0.666992 -16.833 4.5 -22.5 11.5s-8.5 15.167 -8.5 24.5l12 117h-16c-10 0 -18.667 3.5 -26 10.5
s-11 15.5 -11 25.5v39c0 10.667 3.66699 19.334 11 26.001s16 10 26 10h27z" />
    <glyph glyph-name="dollar" unicode="$" horiz-adv-x="400" 
d="M372 184c0 -22.667 -2.66406 -43.9961 -7.99707 -63.9961s-13.5 -38.333 -24.5 -55s-24.5 -31 -40.5 -43s-34 -20.667 -54 -26h-3v-43c0 -9.33301 -3.5 -17.666 -10.5 -24.999s-15.833 -11 -26.5 -11h-19c-10.667 0 -19.334 3.66699 -26.001 11s-10 15.666 -10 24.999v43
h-4c-18.667 5.33301 -36.334 12.666 -53.001 21.999s-30.5 20.666 -41.5 33.999s-19.5 28 -25.5 44s-9 32.333 -9 49v69c0 10 3.5 18.667 10.5 26s15.5 11 25.5 11h56c10.667 0 19.5 -3.66699 26.5 -11s10.5 -16 10.5 -26v-36c0 -15.333 4 -27.833 12 -37.5
s19.333 -14.5 34 -14.5c30.667 0 46 17.333 46 52c0 30.667 -9.5 60.667 -28.5 90s-44.5 61.333 -76.5 96c-32.667 34.667 -58.834 72.5 -78.501 113.5s-29.5 84.167 -29.5 129.5c0 47.333 11.5 88.166 34.5 122.499s55.833 56.5 98.5 66.5h4v40
c0 10.667 3.66699 19.667 11 27s15.666 11 24.999 11h18c11.333 0 20.333 -3.66699 27 -11s10 -16.333 10 -27v-44h4c16.667 -4.66699 31.834 -12 45.501 -22s25.334 -21.667 35.001 -35s17.167 -27.5 22.5 -42.5s8 -30.5 8 -46.5v-71c0 -10 -3.33301 -18.5 -10 -25.5
s-15.667 -10.5 -27 -10.5h-53c-10 0 -18.667 3.5 -26 10.5s-11 15.5 -11 25.5v45c0 13.333 -3.5 24.333 -10.5 33s-16.167 13 -27.5 13c-10.667 0 -20.334 -4.33301 -29.001 -13s-13 -19.667 -13 -33c0 -14 1.16699 -26.667 3.5 -38s6.66602 -23 12.999 -35
s15.5 -25.833 27.5 -41.5l45 -57.5l9 -11l41 -55c13.333 -18 25.333 -37.333 36 -58s19.334 -42.834 26.001 -66.501s10 -48.167 10 -73.5z" />
    <glyph glyph-name="percent" unicode="%" horiz-adv-x="854" 
d="M823 134c0 -21.333 -4 -41 -12 -59s-19.167 -33.167 -33.5 -45.5s-31.166 -22.166 -50.499 -29.499s-39.333 -11 -60 -11c-21.333 0 -41.666 3.66699 -60.999 11s-36.166 17.166 -50.499 29.499s-25.5 27.5 -33.5 45.5s-12 37.667 -12 59v161
c0 22.667 4 42.834 12 60.501s19.167 32.834 33.5 45.501s31.166 22.334 50.499 29.001s39.666 10 60.999 10c20.667 0 40.667 -3.33301 60 -10s36.166 -16.334 50.499 -29.001s25.5 -27.834 33.5 -45.501s12 -37.834 12 -60.501v-161zM347 496
c0 -22.667 -4.16699 -43 -12.5 -61s-19.833 -33.167 -34.5 -45.5s-31.5 -22 -50.5 -29s-39.5 -10.5 -61.5 -10.5c-21.333 0 -41.666 3.5 -60.999 10.5s-36.166 16.667 -50.499 29s-25.5 27.5 -33.5 45.5s-12 38.333 -12 61v159c0 22.667 4 42.834 12 60.501
s19.167 32.834 33.5 45.501s31.166 22.334 50.499 29.001s39.666 10 60.999 10c22 0 42.5 -3.33301 61.5 -10s35.833 -16.334 50.5 -29.001s26.167 -27.834 34.5 -45.501s12.5 -37.834 12.5 -60.501v-159zM698 298c0 9.33301 -3 16.333 -9 21s-13.333 7 -22 7
c-9.33301 0 -17 -2.33301 -23 -7s-9 -11.667 -9 -21v-165c0 -9.33301 3 -16.5 9 -21.5s13.667 -7.5 23 -7.5c8.66699 0 16 2.5 22 7.5s9 12.167 9 21.5v165zM221 658c0 10 -3 17.167 -9 21.5s-14 6.5 -24 6.5c-8.66699 0 -16.167 -2.16699 -22.5 -6.5s-9.5 -11.5 -9.5 -21.5
v-165c0 -9.33301 3.16699 -16.5 9.5 -21.5s13.833 -7.5 22.5 -7.5c10 0 18 2.5 24 7.5s9 12.167 9 21.5v165zM616 791c10 0 18.5 -3.83301 25.5 -11.5s10.5 -15.834 10.5 -24.501c0 -6.66699 -1.33301 -12 -4 -16l-334 -717c-6.66699 -14.667 -17.667 -22 -33 -22h-40
c-11.333 0 -20.333 3.83301 -27 11.5s-10 15.834 -10 24.501c0 6.66699 0.666992 12 2 16l334 717c6.66699 14.667 18 22 34 22h42z" />
    <glyph glyph-name="ampersand" unicode="&#x26;" horiz-adv-x="604" 
d="M228 331l-27.5 -69.999c-9 -22 -13.5 -42.333 -13.5 -61c0 -30 5.66699 -52.667 17 -68s24 -23 38 -23c11.333 0 22.5 5.66699 33.5 17s21.167 26.666 30.5 45.999zM498 -9.99902l-73.9941 -0.000976562c-14.667 0 -25.334 6.66699 -32.001 20l-27 45
c-22.667 -22 -45.5 -38.5 -68.5 -49.5s-46.167 -16.5 -69.5 -16.5c-28.667 0 -54 3.66699 -76 11s-41 19 -57 35s-28 36.833 -36 62.5s-12 57.167 -12 94.5c0 44.667 9.16699 87.667 27.5 129s47.166 82.666 86.499 123.999l-36.5 77c-9.66699 20.667 -17.5 38.667 -23.5 54
s-10.167 28.166 -12.5 38.499s-3.5 19.833 -3.5 28.5c0 24.667 4.66699 47.334 14 68.001s22.5 38.167 39.5 52.5s37.667 25.5 62 33.5s51.166 12 80.499 12c26.667 0 49.667 -2.16699 69 -6.5s36.166 -11.166 50.499 -20.499s27.166 -21.666 38.499 -36.999
s22.666 -33.666 33.999 -54.999c4 -8 6 -15.333 6 -22c0 -8 -2.33301 -15.167 -7 -21.5s-11 -10.5 -19 -12.5l-79 -23h-8c-10 0 -18.5 3.5 -25.5 10.5s-13.667 15.167 -20 24.5s-12.833 17.666 -19.5 24.999s-14 11 -22 11c-12 0 -22.167 -3.5 -30.5 -10.5
s-12.5 -16.833 -12.5 -29.5c0 -12 3.83301 -26.167 11.5 -42.5l23.5 -51.5l38.5 -74.5l26.5 -51.5c7.33301 -14 13 -25.667 17 -35s7 -16.666 9 -21.999l18 68c2 8 6.16699 14.5 12.5 19.5s13.833 7.5 22.5 7.5h8l63 -12c9.33301 -2 15.833 -6.83301 19.5 -14.5
s5.5 -17.5 5.5 -29.5c0 -16.667 -2.83301 -35.834 -8.5 -57.501s-12 -42.667 -19 -63s-13.833 -38.333 -20.5 -54l-13 -30.5l83 -155c2 -5.33301 3 -10.333 3 -15c0 -10 -3.5 -19 -10.5 -27s-15.833 -12 -26.5 -12z" />
    <glyph glyph-name="quotesingle" unicode="'" 
d="M154 744l-53.001 -193c-2.66699 -11.333 -10 -17 -22 -17h-21c-6.66699 0 -12.167 2.16699 -16.5 6.5s-6.5 9.83301 -6.5 16.5v3c0 2 0.5 9.33301 1.5 22s2.33301 32.5 4 59.5s3.83398 65.167 6.50098 114.5c0 9.33301 3.5 17.5 10.5 24.5s15.5 10.5 25.5 10.5h35
c10 0 18.667 -3.66699 26 -11s11 -15.666 11 -24.999c0 -2.66699 -0.333008 -6.33398 -1 -11.001z" />
    <glyph glyph-name="parenleft" unicode="(" horiz-adv-x="299" 
d="M212 791c-30.667 0 -45.998 -15.333 -45.998 -46v-770c0 -30 15 -45 45 -45c11.333 0 20.666 -3.5 27.999 -10.5s11 -15.833 11 -26.5v-63c0 -10 -3.66699 -18.5 -11 -25.5s-16.333 -10.5 -27 -10.5c-52 0 -95 17.333 -129 52c-35.333 36 -53 79 -53 129v770
c0 50.667 17.667 93 53 127c35.333 36 78 54 128 54c11.333 0 20.666 -3.5 27.999 -10.5s11 -15.833 11 -26.5v-62c0 -10 -3.66699 -18.5 -11 -25.5s-16.333 -10.5 -27 -10.5z" />
    <glyph glyph-name="parenright" unicode=")" horiz-adv-x="299" 
d="M52.0127 791c30.665 0 45.999 -15.333 45.999 -46v-770c0 -30 -14.999 -45 -44.9971 -45c-11.333 0 -20.666 -3.5 -27.999 -10.5s-10.999 -15.833 -10.999 -26.5v-63c0 -10 3.66602 -18.5 10.999 -25.5s16.332 -10.5 26.998 -10.5c51.9971 0 94.9941 17.333 128.992 52
c35.3311 36 52.9971 79 52.9971 129v770c0 50.667 -17.666 93 -52.9971 127c-35.3311 36 -77.9951 54 -127.992 54c-11.333 0 -20.666 -3.5 -27.999 -10.5s-10.999 -15.833 -10.999 -26.5v-62c0 -10 3.66602 -18.5 10.999 -25.5s16.332 -10.5 26.998 -10.5z" />
    <glyph glyph-name="asterisk" unicode="*" horiz-adv-x="436" 
d="M395 482l-16.9971 -31c-4 -6 -8.66699 -10.833 -14 -14.5s-11.333 -5.5 -18 -5.5c-10.667 0 -19.667 4 -27 12l-69 72h-10l23 -120c0 -0.666992 0.166992 -1.66699 0.5 -3s0.5 -2.33301 0.5 -3c0 -10.667 -3.83301 -19.5 -11.5 -26.5s-16.167 -10.5 -25.5 -10.5h-28
c-9.33301 0 -17.666 3.5 -24.999 10.5s-11 15.833 -11 26.5v3v3l24 120h-9l-72 -72c-6.66699 -8 -15.334 -12 -26.001 -12c-6.66699 0 -12.834 1.83301 -18.501 5.5s-10.5 8.5 -14.5 14.5l-16 31c-3.33301 4 -5 9.66699 -5 17s2.33301 14.333 7 21
s10.334 11.334 17.001 14.001l104 37l-104 36c-6.66699 2.66699 -12.334 7.5 -17.001 14.5s-7 14.167 -7 21.5c0 4.66699 1.66699 10.667 5 18l16 30c4 6.66699 9 11.5 15 14.5s12 4.5 18 4.5c10 0 18.667 -3 26 -9l72 -72h9l-24 119v1.5v4.5
c0 9.33301 3.66699 17.833 11 25.5s15.666 11.5 24.999 11.5h28c9.33301 0 17.666 -3.83301 24.999 -11.5s11 -15.834 11 -24.501c0 -4 -0.333008 -6.33301 -1 -7l-22 -119h10l69 72c6.66699 7.33301 14.667 11 24 11c7.33301 0 14 -1.83301 20 -5.5s11 -8.83398 15 -15.501
l17 -30c3.33301 -5.33301 5 -11.333 5 -18c0 -7.33301 -2.33301 -14.5 -7 -21.5s-10.334 -11.833 -17.001 -14.5l-102 -36l102 -37c6.66699 -2.66699 12.334 -7.16699 17.001 -13.5s7 -13.166 7 -20.499c0 -6.66699 -1.66699 -12.667 -5 -18z" />
    <glyph glyph-name="plus" unicode="+" horiz-adv-x="406" 
d="M370 332c0 -9.33301 -3.66699 -17.666 -11 -24.999s-16.333 -11 -27 -11h-69v-90c0 -9.33301 -3.66699 -17.666 -11 -24.999s-16 -11 -26 -11h-47c-10.667 0 -19.5 3.66699 -26.5 11s-10.5 15.666 -10.5 24.999v90h-70c-10.667 0 -19.5 3.66699 -26.5 11
s-10.5 15.666 -10.5 24.999v68c0 10 3.5 18.667 10.5 26s15.833 11 26.5 11h70v89c0 10 3.5 18.667 10.5 26s15.833 11 26.5 11h47c10 0 18.667 -3.66699 26 -11s11 -16 11 -26v-89h69c10.667 0 19.667 -3.66699 27 -11s11 -16 11 -26v-68z" />
    <glyph glyph-name="comma" unicode="," 
d="M142 110l-52 -193.002c-2.66699 -11.333 -10 -17 -22 -17h-21c-6 0 -11.167 2.33301 -15.5 7s-6.5 10 -6.5 16l11 198c0.666992 10.667 4.66699 19.167 12 25.5s15.333 9.5 24 9.5h35c10 0 18.667 -3.66699 26 -11s11 -15.666 11 -24.999
c0 -1.33301 -0.666992 -4.66602 -2 -9.99902z" />
    <glyph glyph-name="hyphen" unicode="-" horiz-adv-x="221" 
d="M186 332c0 -9.33301 -3.66699 -17.666 -11 -24.999s-16 -11 -26 -11h-77c-10.667 0 -19.5 3.66699 -26.5 11s-10.5 15.666 -10.5 24.999v68c0 10 3.5 18.667 10.5 26s15.833 11 26.5 11h77c10 0 18.667 -3.66699 26 -11s11 -16 11 -26v-68z" />
    <glyph glyph-name="period" unicode="." 
d="M162 36c0 -9.33301 -3.66699 -17.666 -11 -24.999s-16 -11 -26 -11h-52c-9.33301 0 -17.666 3.66699 -24.999 11s-11 15.666 -11 24.999v83c0 10 3.66699 18.667 11 26s15.666 11 24.999 11h52c10 0 18.667 -3.66699 26 -11s11 -16 11 -26v-83z" />
    <glyph glyph-name="slash" unicode="/" horiz-adv-x="384" 
d="M331 791c11.333 0 20.334 -3.83301 27.001 -11.5s10 -16.167 10 -25.5c0 -4 -0.333008 -7.33301 -1 -10l-188 -718c-2 -8 -6.16699 -14.333 -12.5 -19s-13.833 -7 -22.5 -7h-62c-10.667 -0 -19.334 3.83301 -26.001 11.5s-10 16.167 -10 25.5c0 4 0.333008 7.33301 1 10
l188 716c2.66699 8.66699 7 15.5 13 20.5s13.667 7.5 23 7.5h60z" />
    <glyph glyph-name="zero" unicode="0" horiz-adv-x="398" 
d="M367 155c0 -19.333 -4.33301 -39 -13 -59s-20.667 -38 -36 -54s-33 -28.833 -53 -38.5s-42 -14.5 -66 -14.5s-46 4.83301 -66 14.5s-37.5 22.5 -52.5 38.5s-27 34 -36 54s-13.5 39.667 -13.5 59v481c0 19.333 4.5 39 13.5 59s21 37.833 36 53.5s32.5 28.167 52.5 37.5
s42 14 66 14s46 -4.66699 66 -14s37.667 -21.833 53 -37.5s27.333 -33.5 36 -53.5s13 -39.667 13 -59v-481zM232 641c0 8 -3 14 -9 18s-14 6 -24 6c-9.33301 0 -17 -2 -23 -6s-9 -10 -9 -18v-492c0 -7.33301 3 -13 9 -17s13.667 -6 23 -6c10 0 18 2 24 6s9 9.66699 9 17v492
z" />
    <glyph glyph-name="one" unicode="1" horiz-adv-x="310" 
d="M227 36c0 -9.33301 -3.66602 -17.665 -10.999 -24.998s-16 -11 -26 -11h-64c-10.667 0 -19.5 3.66699 -26.5 11s-10.5 15.666 -10.5 24.999v551h-37c-10 0 -18.5 3.5 -25.5 10.5s-10.5 15.833 -10.5 26.5v20c0 9.33301 2.66699 17.166 8 23.499s12.666 11.5 21.999 15.5
c32.667 14 55 38.667 67 74c4 10 9.16699 18.167 15.5 24.5s14.833 9.5 25.5 9.5h36c10 0 18.667 -3.66699 26 -11s11 -16 11 -26v-718z" />
    <glyph glyph-name="two" unicode="2" horiz-adv-x="392" 
d="M366 618c0 -24 -2.83105 -47.667 -8.49805 -71s-13 -45.666 -22 -66.999s-19.167 -42.333 -30.5 -63s-22.666 -40.334 -33.999 -59.001c-2 -4 -4.5 -8 -7.5 -12s-5.16699 -7.66699 -6.5 -11c-11.333 -19.333 -21 -37.166 -29 -53.499s-14.833 -32 -20.5 -47
s-10.834 -30 -15.501 -45s-9 -31.5 -13 -49.5h132c10 0 18.667 -3.5 26 -10.5s11 -15.833 11 -26.5v-67c0 -9.33301 -3.66699 -17.666 -11 -24.999s-16 -11 -26 -11h-252c-8.66699 0 -16.834 3 -24.501 9s-11.5 14.333 -11.5 25c2 28.667 6.5 58.167 13.5 88.5
s15.333 60.333 25 90s21.167 58.834 34.5 87.501s27.666 56.667 42.999 84c6 11.333 12 21.333 18 30s11.333 17 16 25l27 47c8 13.333 14.667 26.666 20 39.999s9.33301 27.333 12 42s4 31.667 4 51c0 16 -4 27.667 -12 35s-17.333 11 -28 11s-20.667 -3.66699 -30 -11
s-14 -19 -14 -35v-44c0 -10 -3.5 -18.5 -10.5 -25.5s-15.833 -10.5 -26.5 -10.5h-51c-10.667 0 -19.334 3.5 -26.001 10.5s-10 15.5 -10 25.5v61c0 19.333 4.16699 39 12.5 59s19.833 37.833 34.5 53.5s31.834 28.167 51.501 37.5s41.5 14 65.5 14c28 0 53 -4.5 75 -13.5
s40.167 -21.333 54.5 -37s25.333 -34.834 33 -57.501s11.5 -47.334 11.5 -74.001z" />
    <glyph glyph-name="three" unicode="3" horiz-adv-x="378" 
d="M350 145c0 -20 -4.16699 -39.167 -12.5 -57.5s-19.666 -34.833 -33.999 -49.5s-31.5 -26.5 -51.5 -35.5s-41.667 -13.5 -65 -13.5s-45 4.5 -65 13.5s-37.333 20.833 -52 35.5s-26 31.167 -34 49.5s-12 37.5 -12 57.5v35c0 10.667 3.66699 19.5 11 26.5
s15.666 10.5 24.999 10.5h58c10 0 18.667 -3.5 26 -10.5s11 -15.833 11 -26.5v-31c0 -7.33301 3.16699 -13 9.5 -17s13.833 -6 22.5 -6s16.5 2 23.5 6s10.5 9.66699 10.5 17v173c0 6 -3.5 11.167 -10.5 15.5s-14.833 6.5 -23.5 6.5h-23
c-9.33301 0 -17.666 3.66699 -24.999 11s-11 15.666 -11 24.999v38c0 10.667 3.66699 19.5 11 26.5s15.666 10.5 24.999 10.5h23c8.66699 0 16.5 2.33301 23.5 7s10.5 10.667 10.5 18v161c0 8 -3.5 14 -10.5 18s-14.833 6 -23.5 6s-16.167 -2 -22.5 -6s-9.5 -10 -9.5 -18
v-31c0 -10 -3.66699 -18.5 -11 -25.5s-16 -10.5 -26 -10.5h-58c-9.33301 0 -17.666 3.5 -24.999 10.5s-11 15.5 -11 25.5v36c0 20 4 39.167 12 57.5s19.333 34.833 34 49.5s32 26.167 52 34.5s41.667 12.5 65 12.5s45 -4.16699 65 -12.5s37.167 -19.833 51.5 -34.5
s25.666 -31.167 33.999 -49.5s12.5 -37.5 12.5 -57.5v-161c0 -7.33301 -1.16699 -15.666 -3.5 -24.999s-5.5 -18 -9.5 -26s-9.16699 -15 -15.5 -21s-14.166 -10.333 -23.499 -13c9.33301 -4 17.166 -9 23.499 -15s11.5 -13 15.5 -21s7.16699 -16.5 9.5 -25.5
s3.5 -17.5 3.5 -25.5v-168z" />
    <glyph glyph-name="four" unicode="4" horiz-adv-x="398" 
d="M212 406h-8l-54 -149h62v149zM379 164c0 -9.33301 -3.50195 -17.666 -10.502 -24.999s-15.833 -11 -26.5 -11h-6v-92c0 -9.33301 -3.66699 -17.666 -11 -24.999s-15.666 -11 -24.999 -11h-52c-10 0 -18.5 3.66699 -25.5 11s-10.5 15.666 -10.5 24.999v92h-157
c-9.33301 0 -17.666 3.66699 -24.999 11s-11 15.666 -11 24.999v77l199 526c6.66699 16 18.334 24 35.001 24h47c9.33301 0 17.666 -3.66699 24.999 -11s11 -16 11 -26v-497h6c10.667 0 19.5 -3.66699 26.5 -11s10.5 -16 10.5 -26v-56z" />
    <glyph glyph-name="five" unicode="5" horiz-adv-x="389" 
d="M68 388c-9.33301 0.666992 -17.335 4.33105 -24.002 10.998s-10 14.334 -10 23.001v4c4 56 6.66699 107.333 8 154c0.666992 20 1.66699 39.5 3 58.5s2.33301 36.5 3 52.5s1.5 29.833 2.5 41.5s1.5 19.5 1.5 23.5c1.33301 9.33301 5.33301 17.5 12 24.5s15 10.5 25 10.5
h235c12.667 0 21.167 -3.5 25.5 -10.5s6.5 -15.833 6.5 -26.5c0 -10 -1.5 -20.5 -4.5 -31.5s-7 -21.167 -12 -30.5s-10 -16.833 -15 -22.5s-9.5 -8.5 -13.5 -8.5h-137l-11 -164h7c12 8 24.667 14.167 38 18.5s27.333 6.5 42 6.5c14 0 27.833 -3 41.5 -9
s25.334 -14 35.001 -24s17.334 -21.667 23.001 -35s8.5 -26.666 8.5 -39.999v-269c0 -20 -4.33301 -39.167 -13 -57.5s-20.167 -34.833 -34.5 -49.5s-31.5 -26.5 -51.5 -35.5s-41 -13.5 -63 -13.5c-24 0 -46 4.5 -66 13.5s-37.5 20.833 -52.5 35.5s-26.5 31.167 -34.5 49.5
s-12 37.5 -12 57.5v35c0 10.667 3.66699 19.5 11 26.5s16 10.5 26 10.5h58c9.33301 0 17.833 -3.5 25.5 -10.5s11.5 -15.833 11.5 -26.5v-31c0 -7.33301 3 -13 9 -17s14 -6 24 -6c8 0 15.333 2 22 6s10 9.66699 10 17v235c0 6.66699 -3.33301 12.167 -10 16.5
s-14 6.5 -22 6.5s-14.667 -1.5 -20 -4.5s-9.33301 -6.5 -12 -10.5c-4 -5.33301 -8 -8 -12 -8z" />
    <glyph glyph-name="six" unicode="6" horiz-adv-x="389" 
d="M228 365c0 4.66699 -3.33301 9.33398 -10 14.001s-14 7 -22 7c-10 0 -18 -2.33301 -24 -7s-9 -9.33398 -9 -14.001v-216c0 -7.33301 3 -13 9 -17s14 -6 24 -6c8 0 15.333 2 22 6s10 9.66699 10 17v216zM358 145c0 -20 -4.00391 -39.166 -12.0039 -57.499
s-19.333 -34.833 -34 -49.5s-32.167 -26.5 -52.5 -35.5s-41.5 -13.5 -63.5 -13.5c-24 0 -46 4.5 -66 13.5s-37.5 20.833 -52.5 35.5s-26.5 31.167 -34.5 49.5s-12 37.5 -12 57.5v501c0 20 4 39.167 12 57.5s19.5 34.833 34.5 49.5s32.5 26.167 52.5 34.5s42 12.5 66 12.5
c22 0 43.167 -4.16699 63.5 -12.5s37.833 -19.833 52.5 -34.5s26 -31.167 34 -49.5s12 -37.5 12 -57.5v-36c0 -10 -3.66699 -18.5 -11 -25.5s-15.666 -10.5 -24.999 -10.5h-58c-9.33301 0 -17.666 3.5 -24.999 10.5s-11 15.5 -11 25.5v31c0 8 -3.33301 14 -10 18
s-14 6 -22 6c-10 0 -18 -2 -24 -6s-9 -10 -9 -18v-163h6c10.667 6.66699 23.167 12.5 37.5 17.5s28.833 7.5 43.5 7.5s28.834 -3.16699 42.501 -9.5s25.334 -14.833 35.001 -25.5s17.167 -22.334 22.5 -35.001s8 -25.667 8 -39v-249z" />
    <glyph glyph-name="seven" unicode="7" horiz-adv-x="356" 
d="M298 791c10 0 18.5 -3.66602 25.5 -10.999s10.5 -15.666 10.5 -24.999c0 -4.66699 -0.666992 -7.66699 -2 -9l-154 -717c-2.66699 -8.66699 -7.16699 -15.667 -13.5 -21s-14.5 -8 -24.5 -8h-60c-10.667 0 -19.5 3.66699 -26.5 11s-10.5 15.666 -10.5 24.999v8l139 606
h-112c-10 0 -18.5 3.66699 -25.5 11s-10.5 15.666 -10.5 24.999v68c0 10 3.5 18.667 10.5 26s15.5 11 25.5 11h228z" />
    <glyph glyph-name="eight" unicode="8" horiz-adv-x="389" 
d="M358 145c0 -20 -4 -39.165 -12 -57.498s-19.333 -34.833 -34 -49.5s-32.167 -26.5 -52.5 -35.5s-41.5 -13.5 -63.5 -13.5c-24 0 -46 4.5 -66 13.5s-37.5 20.833 -52.5 35.5s-26.5 31.167 -34.5 49.5s-12 37.5 -12 57.5v157c0 8 1.5 17 4.5 27s7.5 19.667 13.5 29
s13.167 17.666 21.5 24.999s17.166 13 26.499 17c-9.33301 2.66699 -18.166 7.66699 -26.499 15s-15.5 15.833 -21.5 25.5s-10.5 19.334 -13.5 29.001s-4.5 18.5 -4.5 26.5v150c0 20 4 39.167 12 57.5s19.5 34.833 34.5 49.5s32.5 26.167 52.5 34.5s42 12.5 66 12.5
c22 0 43.167 -4.16699 63.5 -12.5s37.833 -19.833 52.5 -34.5s26 -31.167 34 -49.5s12 -37.5 12 -57.5v-150c0 -8 -1.66699 -16.833 -5 -26.5s-7.83301 -19.334 -13.5 -29.001s-12.5 -18.167 -20.5 -25.5s-16.667 -12.333 -26 -15c9.33301 -4 18 -9.66699 26 -17
s14.833 -15.833 20.5 -25.5s10.167 -19.334 13.5 -29.001s5 -18.5 5 -26.5v-157zM228 641.002c0 8 -3.33301 14 -10 18s-14 6 -22 6c-10 0 -18 -2 -24 -6s-9 -10 -9 -18v-160c0 -6 3 -11.333 9 -16s14 -7 24 -7c8 0 15.333 2.33301 22 7s10 10 10 16v160zM228 319.002
c0 6.66699 -3.33301 12.334 -10 17.001s-14 7 -22 7c-10 0 -18 -2.33301 -24 -7s-9 -10.334 -9 -17.001v-170c0 -7.33301 3 -13 9 -17s14 -6 24 -6c8 0 15.333 2 22 6s10 9.66699 10 17v170z" />
    <glyph glyph-name="nine" unicode="9" horiz-adv-x="389" 
d="M228 641c0 8 -3.33301 14 -10 18s-14 6 -22 6c-10 0 -18 -2 -24 -6s-9 -10 -9 -18v-215c0 -5.33301 3 -10.5 9 -15.5s14 -7.5 24 -7.5c8 0 15.333 2.5 22 7.5s10 10.167 10 15.5v215zM358 145c0 -20 -3.99805 -39.166 -11.998 -57.499s-19.333 -34.833 -34 -49.5
s-32.167 -26.5 -52.5 -35.5s-41.5 -13.5 -63.5 -13.5c-24 0 -46 4.5 -66 13.5s-37.5 20.833 -52.5 35.5s-26.5 31.167 -34.5 49.5s-12 37.5 -12 57.5v35c0 10.667 3.66699 19.5 11 26.5s16 10.5 26 10.5h58c9.33301 0 17.833 -3.5 25.5 -10.5s11.5 -15.833 11.5 -26.5v-31
c0 -7.33301 3 -13 9 -17s14 -6 24 -6c8 0 15.333 2 22 6s10 9.66699 10 17v164h-7c-10 -8 -22.333 -14.167 -37 -18.5s-29.334 -6.5 -44.001 -6.5s-28.834 3.16699 -42.501 9.5s-25.5 14.5 -35.5 24.5s-17.667 21.667 -23 35s-8 26.666 -8 39.999v249c0 20 4 39.167 12 57.5
s19.5 34.833 34.5 49.5s32.5 26.167 52.5 34.5s42 12.5 66 12.5c22 0 43.167 -4.16699 63.5 -12.5s37.833 -19.833 52.5 -34.5s26 -31.167 34 -49.5s12 -37.5 12 -57.5v-501z" />
    <glyph glyph-name="colon" unicode=":" 
d="M162 382c0 -10 -3.66699 -18.5 -11 -25.5s-16 -10.5 -26 -10.5h-52c-9.33301 0 -17.666 3.5 -24.999 10.5s-11 15.5 -11 25.5v84c0 10 3.66699 18.667 11 26s15.666 11 24.999 11h52c10 0 18.667 -3.66699 26 -11s11 -16 11 -26v-84zM162 36
c0 -9.33301 -3.66699 -17.666 -11 -24.999s-16 -11 -26 -11h-52c-9.33301 0 -17.666 3.66699 -24.999 11s-11 15.666 -11 24.999v83c0 10 3.66699 18.667 11 26s15.666 11 24.999 11h52c10 0 18.667 -3.66699 26 -11s11 -16 11 -26v-83z" />
    <glyph glyph-name="semicolon" unicode=";" 
d="M142 110l-52 -193.002c-2.66699 -11.333 -10 -17 -22 -17h-21c-6 0 -11.167 2.33301 -15.5 7s-6.5 10 -6.5 16l11 198c0.666992 10.667 4.66699 19.167 12 25.5s15.333 9.5 24 9.5h35c10 0 18.667 -3.66699 26 -11s11 -15.666 11 -24.999
c0 -1.33301 -0.666992 -4.66602 -2 -9.99902zM162 382.998c0 -10 -3.66699 -18.5 -11 -25.5s-15.666 -10.5 -24.999 -10.5h-52c-10 0 -18.667 3.5 -26 10.5s-11 15.5 -11 25.5v83c0 10 3.66699 18.667 11 26s16 11 26 11h52c9.33301 0 17.666 -3.66699 24.999 -11
s11 -16 11 -26v-83z" />
    <glyph glyph-name="less" unicode="&#x3c;" horiz-adv-x="365" 
d="M314 148c3.33301 -6.66699 5.00098 -12.667 5.00098 -18c0 -11.333 -4 -21 -12 -29l-47 -40c-6.66699 -5.33301 -14.667 -8 -24 -8c-5.33301 0 -11 1.33301 -17 4s-10.667 7 -14 13l-171 282c-4 5.33301 -6 11.666 -6 18.999c0 6 2 12.333 6 19l171 283
c7.33301 11.333 17.666 17 30.999 17c9.33301 0 17.333 -2.66699 24 -8l47 -40c8 -7.33301 12 -16 12 -26c0 -8 -1.66699 -15 -5 -21l-122 -206c-4 -6 -6 -12 -6 -18c0 -7.33301 2 -13.666 6 -18.999l60 -102z" />
    <glyph glyph-name="equal" unicode="=" horiz-adv-x="350" 
d="M314 444c0 -9.33301 -3.5 -17.666 -10.5 -24.999s-15.5 -11 -25.5 -11h-206c-10.667 0 -19.5 3.66699 -26.5 11s-10.5 15.666 -10.5 24.999v66c0 10.667 3.5 19.5 10.5 26.5s15.833 10.5 26.5 10.5h206c10 0 18.5 -3.5 25.5 -10.5s10.5 -15.833 10.5 -26.5v-66zM314 223
c0 -10 -3.5 -18.5 -10.5 -25.5s-15.5 -10.5 -25.5 -10.5h-206c-10.667 0 -19.5 3.5 -26.5 10.5s-10.5 15.5 -10.5 25.5v67c0 10.667 3.5 19.667 10.5 27s15.833 11 26.5 11h206c10 0 18.5 -3.66699 25.5 -11s10.5 -16.333 10.5 -27v-67z" />
    <glyph glyph-name="greater" unicode="&#x3e;" horiz-adv-x="365" 
d="M52.0195 148c-3.33301 -6.66699 -4.99805 -12.667 -4.99805 -18c0 -11.333 4 -21 11.999 -29l46.9971 -40c6.66699 -5.33301 14.667 -8 24 -8c5.33301 0 10.999 1.33301 16.999 4c5.99902 2.66699 10.665 7 13.998 13l170.989 282c4 5.33301 6 11.666 6 18.999
c0 6 -2 12.333 -6 19l-170.989 283c-7.33301 11.333 -17.666 17 -30.999 17c-9.33301 0 -17.333 -2.66699 -24 -8l-46.9971 -40c-7.99902 -7.33301 -11.999 -16 -11.999 -26c0 -8 1.66699 -15 5 -21l121.992 -206c4 -6 6 -12 6 -18c0 -7.33301 -2 -13.666 -6 -18.999
l-59.9961 -102z" />
    <glyph glyph-name="question" unicode="?" horiz-adv-x="394" 
d="M262 82c0 -10 -3.66699 -18.5 -11 -25.5s-16.333 -10.5 -27 -10.5h-50c-10.667 0 -19.5 3.5 -26.5 10.5s-10.5 15.5 -10.5 25.5v82c0 10.667 3.5 19.667 10.5 27s15.833 11 26.5 11h50c10.667 0 19.667 -3.66699 27 -11s11 -16.333 11 -27v-82zM376 660
c0 -35.333 -5.5 -70.498 -16.5 -105.498s-27.167 -68.5 -48.5 -100.5c-10.667 -16 -18.834 -30 -24.501 -42s-10.167 -23.833 -13.5 -35.5s-5.66602 -23.5 -6.99902 -35.5s-2.33301 -25 -3 -39c-0.666992 -10.667 -4.33398 -20.334 -11.001 -29.001s-16 -13 -28 -13h-51
c-11.333 0 -20.166 4.33301 -26.499 13s-9.5 18.334 -9.5 29.001c0 27.333 1.16699 50.666 3.5 69.999s6.33301 37.333 12 54s12.5 32.5 20.5 47.5l27 48.5c15.333 23.333 27.166 46.833 35.499 70.5s12.5 45.834 12.5 66.501c0 36.667 -8 55 -24 55
c-12 0 -20.667 -4.66699 -26 -14s-10 -19.333 -14 -30s-8.5 -20.834 -13.5 -30.501s-13.167 -14.5 -24.5 -14.5c-4 0 -7.33301 0.333008 -10 1l-47 8c-10 1.33301 -17.333 5.83301 -22 13.5s-7 16.167 -7 25.5v10c12 61.333 31 105.166 57 131.499s62.333 39.5 109 39.5
c44.667 0 80.834 -16.333 108.501 -49s41.5 -81 41.5 -145z" />
    <glyph glyph-name="at" unicode="@" horiz-adv-x="739" 
d="M394 379c-11.333 6 -25.0029 9 -41.0029 9c-11.333 0 -20.166 -1.5 -26.499 -4.5s-11.166 -6.83301 -14.499 -11.5s-5 -10.667 -5 -18v-25c0 -20 4.83301 -34.833 14.5 -44.5s20.834 -14.5 33.501 -14.5c7.33301 0 14 0.833008 20 2.5s12.333 4.5 19 8.5v98zM676.997 413
c0 -80 -10.667 -138.659 -32 -175.992s-55 -56 -101 -56c-24 0 -45.667 3.83301 -65 11.5s-36.666 18.167 -51.999 31.5h-6c-16.667 -14 -33.834 -25.167 -51.501 -33.5s-34.167 -12.5 -49.5 -12.5c-70.667 0 -106 50 -106 150c0 100.667 34.333 151 103 151
c26 0 49 -6.33301 69 -19h8v44c0 18.667 -3.5 30.667 -10.5 36s-20.167 8 -39.5 8c-14 0 -26.833 -1.5 -38.5 -4.5s-23.167 -7.5 -34.5 -13.5c-1.33301 -0.666992 -2.83301 -1.33398 -4.5 -2.00098s-3.83398 -1 -6.50098 -1c-5.33301 0 -10.666 1.5 -15.999 4.5
s-10 6.83301 -14 11.5s-7.16699 10 -9.5 16s-3.5 11.333 -3.5 16c0 10 6 19.333 18 28s26 15.667 42 21s32.5 9.33301 49.5 12s30.167 4 39.5 4c86.667 0 130 -39.667 130 -119v-208c0 -41.333 14.333 -62 43 -62c12.667 0 22.667 3.16699 30 9.5s13 16.166 17 29.499
s6.5 30.166 7.5 50.499s1.5 44.5 1.5 72.5c0 106 -20.167 186 -60.5 240s-98.166 81 -173.499 81c-156 0 -234 -110.667 -234 -332c0 -222.667 79.667 -334 239 -334c39.333 0 72 6 98 18c6.66699 2.66699 12.334 4 17.001 4c10 0 18.167 -3.83301 24.5 -11.5
s9.5 -16.167 9.5 -25.5c0 -10 -5.5 -18.5 -16.5 -25.5s-24.167 -12.667 -39.5 -17s-32 -7.5 -50 -9.5s-34 -3 -48 -3c-48.667 0 -92.667 9 -132 27s-72.5 44.333 -99.5 79s-47.667 77 -62 127s-21.5 106.667 -21.5 170s7.33301 120.166 22 170.499s35.667 92.666 63 126.999
s60.5 60.666 99.5 78.999s82.5 27.5 130.5 27.5c48.667 0 92.667 -9 132 -27s72.666 -43.833 99.999 -77.5s48.166 -74.834 62.499 -123.501s21.5 -103.334 21.5 -164.001z" />
    <glyph glyph-name="A" unicode="A" horiz-adv-x="386" 
d="M191 524h-9l-27 -260h53zM362 37c0 -10 -3.33203 -18.667 -9.99902 -26s-15.334 -11 -26.001 -11h-67c-9.33301 0 -17.5 3.16699 -24.5 9.5s-11.167 14.5 -12.5 24.5l-6 90h-74l-9 -92c-1.33301 -9.33301 -5.5 -17 -12.5 -23s-14.833 -9 -23.5 -9h-48
c-9.33301 0 -17.666 3.66699 -24.999 11s-11 16 -11 26v4l88 717c0.666992 9.33301 4.66699 17.166 12 23.499s15.666 9.5 24.999 9.5h98c10 0 18.333 -3.16699 25 -9.5s11 -14.166 13 -23.499z" />
    <glyph glyph-name="B" unicode="B" horiz-adv-x="386" 
d="M228 618c0 12 -2.66699 20.333 -8 25s-12.333 7 -21 7h-25v-180h25c19.333 0 29 10 29 30v118zM228 299c0 10 -2.66699 17.667 -8 23s-12.333 8 -21 8h-25v-191h25c8.66699 0 15.667 2.66699 21 8s8 13 8 23v129zM355 144c0 -25.333 -4.33301 -46.9971 -13 -64.9971
s-20 -32.833 -34 -44.5s-29.667 -20.334 -47 -26.001s-34.333 -8.5 -51 -8.5h-137c-9.33301 0 -17.666 3.66699 -24.999 11s-11 15.666 -11 24.999v718c0 10 3.66699 18.667 11 26s15.666 11 24.999 11h137c16.667 0 33.667 -2.83301 51 -8.5s33 -14.334 47 -26.001
s25.333 -26.667 34 -45s13 -39.833 13 -64.5v-159c0 -36.667 -18.333 -65.667 -55 -87c36.667 -19.333 55 -48.333 55 -87v-170z" />
    <glyph glyph-name="C" unicode="C" horiz-adv-x="401" 
d="M370 145c0 -20 -4.5 -39.167 -13.5 -57.5s-20.833 -34.833 -35.5 -49.5s-32.5 -26.5 -53.5 -35.5s-42.833 -13.5 -65.5 -13.5c-23.333 0 -45.5 4.5 -66.5 13.5s-39 20.833 -54 35.5s-27.167 31.167 -36.5 49.5s-14 37.5 -14 57.5v501c0 20 4.66699 39.167 14 57.5
s21.5 34.833 36.5 49.5s33 26.167 54 34.5s43.167 12.5 66.5 12.5c22.667 0 44.5 -4.16699 65.5 -12.5s38.833 -19.833 53.5 -34.5s26.5 -31.167 35.5 -49.5s13.5 -37.5 13.5 -57.5v-100c0 -10.667 -3.66699 -19.5 -11 -26.5s-16.333 -10.5 -27 -10.5h-62
c-9.33301 0 -17.666 3.5 -24.999 10.5s-11 15.833 -11 26.5v95c0 8 -3 14 -9 18s-13.667 6 -23 6s-17 -2 -23 -6s-9 -10 -9 -18v-492c0 -7.33301 3 -13 9 -17s13.667 -6 23 -6s17 2 23 6s9 9.66699 9 17v96c0 10 3.66699 18.667 11 26s15.666 11 24.999 11h62
c10.667 0 19.667 -3.66699 27 -11s11 -16 11 -26v-100z" />
    <glyph glyph-name="D" unicode="D" horiz-adv-x="408" 
d="M239 618c0 12 -2.5 20.333 -7.5 25s-12.167 7 -21.5 7h-36v-511h36c9.33301 0 16.5 2.66699 21.5 8s7.5 13 7.5 23v448zM377 144c0 -25.333 -4.83301 -46.9971 -14.5 -64.9971s-22.167 -32.833 -37.5 -44.5s-32.166 -20.334 -50.499 -26.001s-36.166 -8.5 -53.499 -8.5
h-148c-9.33301 0 -17.666 3.66699 -24.999 11s-11 15.666 -11 24.999v718c0 10 3.66699 18.667 11 26s15.666 11 24.999 11h148c17.333 0 35.166 -2.83301 53.499 -8.5s35.166 -14.334 50.499 -26.001s27.833 -26.667 37.5 -45s14.5 -39.833 14.5 -64.5v-503z" />
    <glyph glyph-name="E" unicode="E" horiz-adv-x="338" 
d="M314 36c0 -9.33301 -3.5 -17.666 -10.5 -24.999s-15.833 -11 -26.5 -11h-204c-9.33301 0 -17.666 3.66699 -24.999 11s-11 15.666 -11 24.999v718c0 10 3.66699 18.667 11 26s15.666 11 24.999 11h204c10.667 0 19.5 -3.66699 26.5 -11s10.5 -16 10.5 -26v-57
c0 -10 -3.5 -18.5 -10.5 -25.5s-15.833 -10.5 -26.5 -10.5h-103v-181h54c11.333 0 20.333 -3.33301 27 -10s10 -15.667 10 -27v-66c0 -10.667 -3.33301 -19.5 -10 -26.5s-15.667 -10.5 -27 -10.5h-54v-200h103c10.667 0 19.5 -3.5 26.5 -10.5s10.5 -15.833 10.5 -26.5v-67z
" />
    <glyph glyph-name="F" unicode="F" horiz-adv-x="331" 
d="M314 697c0 -10 -3.5 -18.501 -10.5 -25.501s-15.833 -10.5 -26.5 -10.5h-103v-195h67c10.667 0 19.5 -3.66699 26.5 -11s10.5 -16.333 10.5 -27v-62c0 -9.33301 -3.5 -17.666 -10.5 -24.999s-15.833 -11 -26.5 -11h-67v-294c0 -9.33301 -3.66699 -17.666 -11 -24.999
s-16 -11 -26 -11h-64c-9.33301 0 -17.666 3.66699 -24.999 11s-11 15.666 -11 24.999v718c0 10 3.66699 18.667 11 26s15.666 11 24.999 11h204c10.667 0 19.5 -3.66699 26.5 -11s10.5 -16 10.5 -26v-57z" />
    <glyph glyph-name="G" unicode="G" horiz-adv-x="406" 
d="M370 36c0 -9.33301 -3.66309 -17.668 -10.9961 -25.001s-16.333 -11 -27 -11h-26c-9.33301 0 -16 4 -20 12l-8 16h-8c-8.66699 -9.33301 -21.167 -18.166 -37.5 -26.499s-33.5 -12.5 -51.5 -12.5c-22 0 -42.333 4 -61 12s-34.5 19 -47.5 33s-23.167 30.5 -30.5 49.5
s-11 39.5 -11 61.5v501c0 20 4.16699 39.167 12.5 57.5s20.166 34.833 35.499 49.5s33.166 26.167 53.499 34.5s42.166 12.5 65.499 12.5s45.166 -4.16699 65.499 -12.5s38.166 -19.833 53.499 -34.5s27.166 -31.167 35.499 -49.5s12.5 -37.5 12.5 -57.5v-106
c0 -10.667 -3.66699 -19.334 -11 -26.001s-15.666 -10 -24.999 -10h-63c-9.33301 0 -17.666 3.33301 -24.999 10s-11 15.334 -11 26.001v101c0 8 -3 14 -9 18s-13.667 6 -23 6s-17 -2 -23 -6s-9 -10 -9 -18v-503c0 -6.66699 3 -12.334 9 -17.001s13.667 -7 23 -7
s17 2.33301 23 7s9 10.334 9 17.001v133h-6c-6 0 -11.167 2.5 -15.5 7.5s-6.5 10.167 -6.5 15.5v55c0 10.667 3.5 19.5 10.5 26.5s15.5 10.5 25.5 10.5h94c10.667 0 19.667 -3.5 27 -10.5s11 -15.833 11 -26.5v-313z" />
    <glyph glyph-name="H" unicode="H" horiz-adv-x="422" 
d="M385 36c0 -9.33301 -3.5 -17.666 -10.5 -24.999s-15.833 -11 -26.5 -11h-65c-9.33301 0 -17.666 3.66699 -24.999 11s-11 15.666 -11 24.999v283h-73v-283c0 -9.33301 -3.66699 -17.666 -11 -24.999s-16 -11 -26 -11h-64c-9.33301 0 -17.666 3.66699 -24.999 11
s-11 15.666 -11 24.999v718c0 10 3.66699 18.667 11 26s15.666 11 24.999 11h64c10 0 18.667 -3.66699 26 -11s11 -16 11 -26v-294h73v294c0 10 3.66699 18.667 11 26s15.666 11 24.999 11h65c10.667 0 19.5 -3.66699 26.5 -11s10.5 -16 10.5 -26v-718z" />
    <glyph glyph-name="I" unicode="I" horiz-adv-x="223" 
d="M179 36c0 -9.33301 -3.5 -17.666 -10.5 -24.999s-15.833 -11 -26.5 -11h-63c-10 0 -18.5 3.66699 -25.5 11s-10.5 15.666 -10.5 24.999v718c0 10 3.5 18.667 10.5 26s15.5 11 25.5 11h63c10.667 0 19.5 -3.66699 26.5 -11s10.5 -16 10.5 -26v-718z" />
    <glyph glyph-name="J" unicode="J" horiz-adv-x="392" 
d="M361 145c0 -20 -4.33301 -39.167 -13 -57.5s-21 -34.833 -37 -49.5s-34.167 -26.5 -54.5 -35.5s-41.833 -13.5 -64.5 -13.5c-24 0 -46.167 4.5 -66.5 13.5s-38.166 20.833 -53.499 35.5s-27.333 31.167 -36 49.5s-13 37.5 -13 57.5v123c0 10 3.5 18.667 10.5 26
s15.833 11 26.5 11h61c11.333 0 20.333 -3.66699 27 -11s10 -16 10 -26v-113c0 -8 3.33301 -14.167 10 -18.5s14.667 -6.5 24 -6.5c8.66699 0 16 2.16699 22 6.5s9 10.5 9 18.5v599c0 10 3.66699 18.667 11 26s15.666 11 24.999 11h65c10.667 0 19.5 -3.66699 26.5 -11
s10.5 -16 10.5 -26v-609z" />
    <glyph glyph-name="K" unicode="K" horiz-adv-x="415" 
d="M395 46c0.666992 -2.66699 1 -6.00195 1 -10.002c0 -9.33301 -3.33301 -17.666 -10 -24.999s-15.334 -11 -26.001 -11h-60c-9.33301 0 -17.333 2.83301 -24 8.5s-10.667 12.834 -12 21.501l-52 258h-8l-29 -101v-151c0 -9.33301 -3.5 -17.666 -10.5 -24.999
s-15.833 -11 -26.5 -11h-65c-9.33301 0 -17.666 3.66699 -24.999 11s-11 15.666 -11 24.999v718c0 10 3.66699 18.667 11 26s15.666 11 24.999 11h65c10.667 0 19.5 -3.66699 26.5 -11s10.5 -16 10.5 -26v-320h9c10 55.333 21.167 110 33.5 164l36.5 164
c2 8.66699 6.5 15.667 13.5 21s14.5 8 22.5 8h54c10.667 0 19.334 -3.83301 26.001 -11.5s10 -16.167 10 -25.5v-10l-80 -316z" />
    <glyph glyph-name="L" unicode="L" horiz-adv-x="335" 
d="M314 36c0 -9.33301 -3.5 -17.666 -10.5 -24.999s-15.833 -11 -26.5 -11h-204c-9.33301 0 -17.666 3.66699 -24.999 11s-11 15.666 -11 24.999v718c0 10 3.66699 18.667 11 26s15.666 11 24.999 11h65c10.667 0 19.5 -3.66699 26.5 -11s10.5 -16 10.5 -26v-614h102
c10.667 0 19.5 -3.5 26.5 -10.5s10.5 -15.833 10.5 -26.5v-67z" />
    <glyph glyph-name="M" unicode="M" horiz-adv-x="607" 
d="M570 36c0 -9.33301 -3.33398 -17.666 -10.001 -24.999s-15.667 -11 -27 -11h-63c-10 0 -18.5 3.66699 -25.5 11s-10.5 15.666 -10.5 24.999v467h-8l-85 -472c-2 -9.33301 -6.16699 -16.833 -12.5 -22.5s-13.833 -8.5 -22.5 -8.5h-26c-10 0 -18.333 3 -25 9
s-10.334 13.333 -11.001 22l-77 473h-9v-468c0 -9.33301 -3.33301 -17.666 -10 -24.999s-15.667 -11 -27 -11h-48c-9.33301 0 -17.666 3.66699 -24.999 11s-11 15.666 -11 24.999v718c0 10 3.66699 18.667 11 26s15.666 11 24.999 11h145c10 0 18.333 -3 25 -9
s10.334 -13.333 11.001 -22l48 -330h9l53 330c0.666992 8.66699 4.33398 16 11.001 22s15 9 25 9h133c11.333 0 20.333 -3.66699 27 -11s10 -16 10 -26v-718z" />
    <glyph glyph-name="N" unicode="N" horiz-adv-x="436" 
d="M400 36c0 -9.33301 -3.66699 -17.667 -11 -25s-16.333 -11 -27 -11h-55c-8.66699 -0 -16 2.33301 -22 7s-10.667 11 -14 19l-113 375h-8v-365c0 -9.33301 -3.66699 -17.666 -11 -24.999s-16 -11 -26 -11h-40c-9.33301 0 -17.666 3.66699 -24.999 11
s-11 15.666 -11 24.999v718c0 10 3.66699 18.667 11 26s15.666 11 24.999 11h60c8.66699 0 16 -2.5 22 -7.5s10.333 -11.833 13 -20.5l110 -383h8v374c0 10 3.5 18.667 10.5 26s15.5 11 25.5 11h40c10.667 0 19.667 -3.66699 27 -11s11 -16 11 -26v-718z" />
    <glyph glyph-name="O" unicode="O" horiz-adv-x="398" 
d="M367 155c0 -19.333 -4.33301 -39 -13 -59s-20.667 -38 -36 -54s-33 -28.833 -53 -38.5s-42 -14.5 -66 -14.5s-46 4.83301 -66 14.5s-37.5 22.5 -52.5 38.5s-27 34 -36 54s-13.5 39.667 -13.5 59v481c0 19.333 4.5 39 13.5 59s21 37.833 36 53.5s32.5 28.167 52.5 37.5
s42 14 66 14s46 -4.66699 66 -14s37.667 -21.833 53 -37.5s27.333 -33.5 36 -53.5s13 -39.667 13 -59v-481zM232 641c0 8 -3 14 -9 18s-14 6 -24 6c-9.33301 0 -17 -2 -23 -6s-9 -10 -9 -18v-492c0 -7.33301 3 -13 9 -17s13.667 -6 23 -6c10 0 18 2 24 6s9 9.66699 9 17v492
z" />
    <glyph glyph-name="P" unicode="P" horiz-adv-x="384" 
d="M228 618c0 12 -2.66699 20.333 -8 25s-12.333 7 -21 7h-24v-211h24c19.333 0 29 11 29 33v146zM360 444c0 -25.333 -4.66699 -46.999 -14 -64.999s-21.166 -33 -35.499 -45s-30.333 -20.667 -48 -26s-34.834 -8 -51.501 -8h-36v-264
c0 -9.33301 -3.5 -17.666 -10.5 -24.999s-15.833 -11 -26.5 -11h-65c-9.33301 0 -17.666 3.66699 -24.999 11s-11 15.666 -11 24.999v718c0 10 3.66699 18.667 11 26s15.666 11 24.999 11h138c16.667 0 33.834 -2.83301 51.501 -8.5s33.667 -14.334 48 -26.001
s26.166 -26.667 35.499 -45s14 -39.833 14 -64.5v-203z" />
    <glyph glyph-name="Q" unicode="Q" horiz-adv-x="398" 
d="M232 148v493c0 8 -3 14 -9 18s-14 6 -24 6c-9.33301 0 -17 -2 -23 -6s-9 -10 -9 -18v-493c0 -6.66699 3 -12 9 -16s13.667 -6 23 -6c10 0 18 2 24 6s9 9.33301 9 16zM358 104l46 -46.001c9.33301 -8 14 -18.667 14 -32c0 -5.33301 -1.33301 -11 -4 -17s-6 -11 -10 -15
l-19 -20c-8.66699 -9.33301 -19.667 -14 -33 -14c-12 0 -22.667 4.66699 -32 14l-39 39c-12 -7.33301 -25 -13.166 -39 -17.499s-28.333 -6.5 -43 -6.5c-24 0 -46 4.83301 -66 14.5s-37.5 22.5 -52.5 38.5s-27 34 -36 54s-13.5 39.667 -13.5 59v481c0 19.333 4.5 39 13.5 59
s21 37.833 36 53.5s32.5 28.167 52.5 37.5s42 14 66 14s46 -4.66699 66 -14s37.667 -21.833 53 -37.5s27.333 -33.5 36 -53.5s13 -39.667 13 -59v-481c0 -16.667 -3 -33.667 -9 -51z" />
    <glyph glyph-name="R" unicode="R" horiz-adv-x="395" 
d="M228 618c0 12 -2.66699 20.333 -8 25s-12.333 7 -21 7h-25v-200h25c19.333 0 29 10.333 29 31v137zM372 40c3.33301 -10.667 0.832031 -20.002 -7.50098 -28.002s-17.833 -12 -28.5 -12h-60c-8 0 -15.167 2 -21.5 6s-10.5 10 -12.5 18c-8 32 -12 64.667 -12 98v166
c0 8.66699 -2.66699 16 -8 22s-13.666 9 -24.999 9h-23v-283c0 -9.33301 -3.66699 -17.666 -11 -24.999s-16 -11 -26 -11h-64c-9.33301 0 -17.666 3.66699 -24.999 11s-11 15.666 -11 24.999v718c0 10 3.66699 18.667 11 26s15.666 11 24.999 11h137
c16.667 0 34 -2.83301 52 -8.5s34 -14.334 48 -26.001s25.833 -26.667 35.5 -45s14.5 -39.833 14.5 -64.5v-178c0 -19.333 -5.16699 -36.166 -15.5 -50.499s-24.833 -26.5 -43.5 -36.5h1c18 -10 32.833 -22.167 44.5 -36.5s17.5 -31.166 17.5 -50.499v-162
c0 -17.333 0.666992 -33.666 2 -48.999s3.33301 -30 6 -44z" />
    <glyph glyph-name="S" unicode="S" horiz-adv-x="400" 
d="M372 184c0 -26 -3.83105 -50.502 -11.498 -73.502s-18.834 -43.333 -33.501 -61s-32.834 -32.167 -54.501 -43.5s-46.167 -17 -73.5 -17s-52.166 4.5 -74.499 13.5s-41.5 20.833 -57.5 35.5s-28.333 31.167 -37 49.5s-13 37.5 -13 57.5v53c0 10.667 3.5 19.5 10.5 26.5
s15.5 10.5 25.5 10.5h54c10 0 18.667 -3.5 26 -10.5s11 -15.833 11 -26.5v-20c0 -15.333 4.33301 -27.833 13 -37.5s20.334 -14.5 35.001 -14.5c29.333 0 44 17.333 44 52c0 14.667 -2.16699 29.667 -6.5 45s-11 30.666 -20 45.999s-20 30.5 -33 45.5l-43.5 50.5
c-32.667 34 -58.834 71.5 -78.501 112.5s-29.5 84.167 -29.5 129.5c0 27.333 3.83301 52.833 11.5 76.5s19.167 44 34.5 61s34 30.5 56 40.5s47.333 15 76 15c23.333 0 45.166 -4.16699 65.499 -12.5s37.833 -19.833 52.5 -34.5s26.167 -31.167 34.5 -49.5
s12.5 -37.5 12.5 -57.5v-54c0 -10 -3.33301 -18.5 -10 -25.5s-15.667 -10.5 -27 -10.5h-54c-10 0 -18.5 3.5 -25.5 10.5s-10.5 15.5 -10.5 25.5v27c0 14 -3.5 25.167 -10.5 33.5s-16.167 12.5 -27.5 12.5s-21.166 -4.16699 -29.499 -12.5s-12.5 -19.5 -12.5 -33.5
s1.33301 -26.667 4 -38s7.16699 -23.166 13.5 -35.499s15.333 -26.166 27 -41.499l44.5 -56c1.33301 -2.66699 2.83301 -5.16699 4.5 -7.5l4.5 -6.5l42 -53c14 -18 26.167 -37.167 36.5 -57.5s18.666 -42.166 24.999 -65.499s9.5 -48 9.5 -74z" />
    <glyph glyph-name="T" unicode="T" horiz-adv-x="360" 
d="M344 691c0 -9.33301 -3.50098 -17.666 -10.501 -24.999s-15.833 -11 -26.5 -11h-57v-619c0 -9.33301 -3.66699 -17.666 -11 -24.999s-15.666 -11 -24.999 -11h-64c-10.667 0 -19.5 3.66699 -26.5 11s-10.5 15.666 -10.5 24.999v619h-61c-10.667 0 -19.667 3.66699 -27 11
s-11 15.666 -11 24.999v63c0 10 3.66699 18.667 11 26s16.333 11 27 11h255c10.667 0 19.5 -3.66699 26.5 -11s10.5 -16 10.5 -26v-63z" />
    <glyph glyph-name="U" unicode="U" horiz-adv-x="389" 
d="M355 145c0 -20 -4.00195 -39.167 -12.002 -57.5s-18.833 -34.833 -32.5 -49.5s-30 -26.5 -49 -35.5s-40.167 -13.5 -63.5 -13.5s-45.166 4.5 -65.499 13.5s-37.666 20.833 -51.999 35.5s-25.666 31.167 -33.999 49.5s-12.5 37.5 -12.5 57.5v609c0 10 3.5 18.667 10.5 26
s15.5 11 25.5 11h58c10.667 0 19.667 -3.66699 27 -11s11 -16 11 -26v-605c0 -7.33301 3 -13 9 -17s13.667 -6 23 -6c8.66699 0 16 2 22 6s9 9.66699 9 17v605c0 10 3.66699 18.667 11 26s15.666 11 24.999 11h53c10.667 0 19.5 -3.66699 26.5 -11s10.5 -16 10.5 -26v-609z
" />
    <glyph glyph-name="V" unicode="V" horiz-adv-x="392" 
d="M337 791c10.667 0 19.3359 -3.66699 26.0029 -11s10 -15.666 10 -24.999v-7l-108 -717c-0.666992 -8.66699 -4.33398 -16 -11.001 -22s-15 -9 -25 -9h-62c-8.66699 0 -16.5 3 -23.5 9s-11.167 13.333 -12.5 22l-108 717v7c0 9.33301 3.33301 17.666 10 24.999
s15.667 11 27 11h59c9.33301 0 17.666 -3.16699 24.999 -9.5s11.333 -14.5 12 -24.5l42 -434h8l47 434c0.666992 10 4.66699 18.167 12 24.5s15.666 9.5 24.999 9.5h47z" />
    <glyph glyph-name="W" unicode="W" horiz-adv-x="582" 
d="M518 791c10.667 0 19.333 -3.66797 26 -11.001s10 -15.666 10 -24.999v-7l-100 -717c-1.33301 -8.66699 -5.5 -16 -12.5 -22s-14.833 -9 -23.5 -9h-46c-8.66699 0 -16.5 3 -23.5 9s-11.167 13.667 -12.5 23l-41 322h-8l-41 -322c-0.666992 -9.33301 -4.5 -17 -11.5 -23
s-15.167 -9 -24.5 -9h-49c-10 0 -18.333 3 -25 9s-10.334 13.333 -11.001 22l-102 717v4c0 10.667 3.33301 19.834 10 27.501s15.334 11.5 26.001 11.5h60c9.33301 0 17.666 -3.16699 24.999 -9.5s11.333 -14.5 12 -24.5l40 -372h8l41 372
c0.666992 10 4.33398 18.167 11.001 24.5s15 9.5 25 9.5h21c10 0 18.333 -3.16699 25 -9.5s11 -14.5 13 -24.5l39 -372h7l24 187l24 186c1.33301 9.33301 5.5 17.166 12.5 23.499s15.5 9.5 25.5 9.5h46z" />
    <glyph glyph-name="X" unicode="X" horiz-adv-x="401" 
d="M329 791c10 0 18.501 -3.83496 25.501 -11.502s10.5 -16.167 10.5 -25.5v-11l-95 -328l91 -369c0.666992 -2.66699 1 -6 1 -10c0 -9.33301 -3.33301 -17.666 -10 -24.999s-15.334 -11 -26.001 -11h-55c-9.33301 0 -17.166 2.66699 -23.499 8s-10.5 12.333 -12.5 21
l-38 179h-9l-43 -180c-2 -8 -6.33301 -14.667 -13 -20s-14.334 -8 -23.001 -8h-48c-10 0 -18.5 3.83301 -25.5 11.5s-10.5 15.834 -10.5 24.501c0 2.66699 0.333008 6.33398 1 11.001l95 349l-89 348c-0.666992 2.66699 -1 6 -1 10c0 9.33301 3.5 17.833 10.5 25.5
s15.833 11.5 26.5 11.5h53c8.66699 0 16.5 -2.83301 23.5 -8.5s11.167 -12.834 12.5 -21.501l37 -179h9l42 181c3.33301 8 8 14.667 14 20s13.333 8 22 8h48z" />
    <glyph glyph-name="Y" unicode="Y" horiz-adv-x="390" 
d="M335 791c10 0 18.665 -3.66797 25.998 -11.001s11 -15.666 11 -24.999c0 -2.66699 -0.666992 -6.33398 -2 -11.001l-108 -403v-305c0 -9.33301 -3.66699 -17.666 -11 -24.999s-16.333 -11 -27 -11h-57c-11.333 0 -20.333 3.66699 -27 11s-10 15.666 -10 24.999v305
l-105 403c-0.666992 2.66699 -1 6 -1 10c0 9.33301 3.33301 17.833 10 25.5s15.334 11.5 26.001 11.5h53c8.66699 0 16.334 -2.83301 23.001 -8.5s11 -12.5 13 -20.5l50 -235h7l45 234c1.33301 8.66699 5.5 15.834 12.5 21.501s14.833 8.5 23.5 8.5h48z" />
    <glyph glyph-name="Z" unicode="Z" horiz-adv-x="329" 
d="M262 791c8.66699 0 16.833 -3.5 24.5 -10.5s11.5 -15.5 11.5 -25.5c0 -4 -0.666992 -7 -2 -9l-130 -606h99c10 0 18.5 -3.5 25.5 -10.5s10.5 -15.833 10.5 -26.5v-67c0 -9.33301 -3.5 -17.666 -10.5 -24.999s-15.5 -11 -25.5 -11h-209c-10 0 -18.5 3.66699 -25.5 11
s-10.5 15.666 -10.5 24.999c0 3.33301 0.666992 6 2 8l134 617h-84c-10.667 0 -19.5 3.5 -26.5 10.5s-10.5 15.5 -10.5 25.5v57c0 10 3.5 18.667 10.5 26s15.833 11 26.5 11h190z" />
    <glyph glyph-name="bracketleft" unicode="[" horiz-adv-x="386" 
d="M383 -170c0 -10 -3.66699 -18.5 -11 -25.5s-16 -10.5 -26 -10.5h-204c-10.667 0 -19.667 3.5 -27 10.5s-11 15.5 -11 25.5v1059c0 10.667 3.66699 19.5 11 26.5s16.333 10.5 27 10.5h204c10 0 18.667 -3.5 26 -10.5s11 -15.833 11 -26.5v-56
c0 -10 -3.66699 -18.5 -11 -25.5s-16 -10.5 -26 -10.5h-104v-873h104c10 0 18.667 -3.5 26 -10.5s11 -15.833 11 -26.5v-57z" />
    <glyph glyph-name="backslash" unicode="\" horiz-adv-x="384" 
d="M113 791c8.66699 0 16.168 -2.5 22.501 -7.5s10.5 -11.833 12.5 -20.5l189 -716c0.666992 -2.66699 1 -6 1 -10c0 -9.33301 -3.33301 -17.833 -10 -25.5s-15.334 -11.5 -26.001 -11.5h-62c-8.66699 -0 -16.167 2.33301 -22.5 7s-10.833 11 -13.5 19l-187 718
c-2 4.66699 -3 8.33398 -3 11.001c0 9.33301 3.66699 17.666 11 24.999s16.333 11 27 11h61z" />
    <glyph glyph-name="bracketright" unicode="]" horiz-adv-x="386" 
d="M4 -113c0 10.667 3.5 19.5 10.5 26.5s15.5 10.5 25.5 10.5h104v873h-104c-10 0 -18.5 3.5 -25.5 10.5s-10.5 15.5 -10.5 25.5v56c0 10.667 3.5 19.5 10.5 26.5s15.5 10.5 25.5 10.5h205c9.33301 0 17.666 -3.5 24.999 -10.5s11 -15.833 11 -26.5v-1059
c0 -10 -3.66699 -18.5 -11 -25.5s-15.666 -10.5 -24.999 -10.5h-205c-10 0 -18.5 3.5 -25.5 10.5s-10.5 15.5 -10.5 25.5v57z" />
    <glyph glyph-name="asciicircum" unicode="^" horiz-adv-x="391" 
d="M353 694c3.33301 -4 5 -8 5 -12c0 -6 -2.5 -11.167 -7.5 -15.5s-10.167 -6.5 -15.5 -6.5h-52c-8 0 -14 2.66699 -18 8l-65 80h-6l-64 -80c-4 -5.33301 -10 -8 -18 -8h-52c-6.66699 0 -12 2.16699 -16 6.5s-6 9.83301 -6 16.5c0 4 1 7.66699 3 11l81 130
c7.33301 12 18.333 18 33 18h86c14 0 24 -6 30 -18z" />
    <glyph glyph-name="underscore" unicode="_" horiz-adv-x="517" 
d="M480 36c0 -9.33301 -3.33301 -17.666 -10 -24.999s-15.667 -11 -27 -11h-371c-10.667 0 -19.5 3.66699 -26.5 11s-10.5 15.666 -10.5 24.999v67c0 10.667 3.5 19.5 10.5 26.5s15.833 10.5 26.5 10.5h371c11.333 0 20.333 -3.5 27 -10.5s10 -15.833 10 -26.5v-67z" />
    <glyph glyph-name="grave" unicode="`" horiz-adv-x="181" 
d="M163 684c2.66699 -7.33301 2.00098 -13.333 -1.99902 -18s-11.333 -7 -22 -7h-35c-6 0 -13 4.66699 -21 14l-64 67c-4.66699 6 -7 13 -7 21s3.16699 15 9.5 21s17.166 9 32.499 9h38c10 0 17 -1.5 21 -4.5s7 -7.5 9 -13.5z" />
    <glyph glyph-name="a" unicode="a" horiz-adv-x="368" 
d="M211 256c-11.333 -4 -21.001 -8.66797 -29.001 -14.001s-14.5 -11.166 -19.5 -17.499s-9.16699 -13.333 -12.5 -21s-4.66602 -29.5 -3.99902 -65.5c0 -22.667 11 -34 33 -34c21.333 0 32 11.333 32 34v118zM342.999 43.999l-0.000976562 -7.00098
c0 -9.33301 -3.33301 -17.833 -10 -25.5s-15.334 -11.5 -26.001 -11.5h-42c-8 0 -12.667 3.66699 -14 11l-3 21h-7c-8.66699 -13.333 -20.167 -23.833 -34.5 -31.5s-31.166 -11.5 -50.499 -11.5c-41.333 0 -74.666 12.833 -99.999 38.5s-38 61.167 -38 106.5
c0 33.333 2.83301 59.5 8.5 78.5s13 34.667 22 47s19.333 23.833 31 34.5s23.167 20 34.5 28c28 17.333 60.333 31.333 97 42v87c0 10 -1.83301 17.333 -5.5 22s-9.83398 7 -18.501 7c-9.33301 0 -15.666 -2.33301 -18.999 -7s-5 -12 -5 -22v-14
c0 -10 -3.83301 -18.5 -11.5 -25.5s-16.167 -10.5 -25.5 -10.5h-58c-9.33301 0 -17.666 3.5 -24.999 10.5s-11 15.5 -11 25.5v11c0 22 4.33301 42 13 60s20.167 33.5 34.5 46.5s31 22.833 50 29.5s39.5 10 61.5 10c21.333 0 41 -3.33301 59 -10s33.167 -16.5 45.5 -29.5
s22.166 -28.5 29.499 -46.5s11 -38 11 -60v-328c0 -12.667 0.666992 -25.167 2 -37.5s3 -25.166 5 -38.499z" />
    <glyph glyph-name="b" unicode="b" horiz-adv-x="386" 
d="M228 451c0 10 -3.33301 17.333 -10 22s-15 7 -25 7c-8.66699 0 -16 -2.33301 -22 -7s-9 -12 -9 -22v-318c0 -9.33301 3 -16.5 9 -21.5s13.333 -7.5 22 -7.5c10 0 18.333 2.5 25 7.5s10 12.167 10 21.5v318zM352 89c0 -16.667 -2.66602 -30.998 -7.99902 -42.998
s-12.666 -22 -21.999 -30s-20.166 -14.5 -32.499 -19.5s-25.166 -7.5 -38.499 -7.5c-16.667 0 -32.834 3.5 -48.501 10.5s-28.5 15.5 -38.5 25.5h-7l-2 -14c-2.66699 -7.33301 -7.66699 -11 -15 -11h-67c-9.33301 0 -17.666 3.66699 -24.999 11s-11 15.666 -11 24.999v718
c0 10 3.66699 18.667 11 26s15.666 11 24.999 11h52c10 0 18.667 -3.66699 26 -11s11 -16 11 -26v-196h7c10 11.333 22.167 20.166 36.5 26.499s29.5 9.5 45.5 9.5c13.333 0 26.166 -2.16699 38.499 -6.5s23.166 -11 32.499 -20s16.666 -19.667 21.999 -32s8 -25.5 8 -39.5
v-407z" />
    <glyph glyph-name="c" unicode="c" horiz-adv-x="372" 
d="M347 134c0 -21.333 -4.16699 -41 -12.5 -59s-19.833 -33.167 -34.5 -45.5s-31.5 -22.166 -50.5 -29.499s-38.833 -11 -59.5 -11c-22.667 0 -43.667 3.66699 -63 11s-36.166 17.166 -50.499 29.499s-25.5 27.5 -33.5 45.5s-12 37.667 -12 59v314c0 22 4 42 12 60
s19.167 33.5 33.5 46.5s31.166 22.833 50.499 29.5s40.333 10 63 10c20.667 0 40.5 -3.33301 59.5 -10s35.833 -16.5 50.5 -29.5s26.167 -28.5 34.5 -46.5s12.5 -38 12.5 -60v-33c0 -9.33301 -3.66699 -17.666 -11 -24.999s-16 -11 -26 -11h-53
c-10 0 -18.5 3.66699 -25.5 11s-10.5 15.666 -10.5 24.999v36c0 10 -2.83301 17.333 -8.5 22s-13.167 7 -22.5 7c-10 0 -18.167 -2.33301 -24.5 -7s-9.5 -12 -9.5 -22v-318c0 -9.33301 3.16699 -16.5 9.5 -21.5s14.5 -7.5 24.5 -7.5c9.33301 0 16.833 2.5 22.5 7.5
s8.5 12.167 8.5 21.5v33c0 10 3.5 18.667 10.5 26s15.5 11 25.5 11h53c10 0 18.667 -3.66699 26 -11s11 -16 11 -26v-32z" />
    <glyph glyph-name="d" unicode="d" horiz-adv-x="385" 
d="M223 451c0 10 -3 17.333 -9 22s-13.333 7 -22 7c-9.33301 0 -17.333 -2.33301 -24 -7s-10 -12 -10 -22v-318c0 -9.33301 3.33301 -16.5 10 -21.5s14.667 -7.5 24 -7.5c8.66699 0 16 2.5 22 7.5s9 12.167 9 21.5v318zM348 36c0 -9.33301 -3.33398 -17.668 -10.001 -25.001
s-15.667 -11 -27 -11h-66c-7.33301 0 -11.666 3.66699 -12.999 11l-4 14h-7c-10 -10 -22.667 -18.5 -38 -25.5s-31.666 -10.5 -48.999 -10.5c-13.333 0 -26.166 2.5 -38.499 7.5s-23 11.5 -32 19.5s-16.167 18 -21.5 30s-8 26.333 -8 43v407c0 14 2.66699 27.167 8 39.5
s12.5 23 21.5 32s19.667 15.667 32 20s25.166 6.5 38.499 6.5c16 0 31.333 -3.16699 46 -9.5s26.667 -15.166 36 -26.499h7v196c0 10 3.66699 18.667 11 26s15.666 11 24.999 11h52c11.333 0 20.333 -3.66699 27 -11s10 -16 10 -26v-718z" />
    <glyph glyph-name="e" unicode="e" horiz-adv-x="378" 
d="M221 452c0 10 -2.83301 17.333 -8.5 22s-13.167 7 -22.5 7c-10 0 -18.167 -2.33301 -24.5 -7s-9.5 -12 -9.5 -22v-133h65v133zM347 134c0 -21.333 -4.16699 -41 -12.5 -59s-19.833 -33.167 -34.5 -45.5s-31.5 -22.166 -50.5 -29.499s-38.833 -11 -59.5 -11
c-22.667 0 -43.667 3.66699 -63 11s-36.166 17.166 -50.499 29.499s-25.5 27.5 -33.5 45.5s-12 37.667 -12 59v315c0 21.333 4 41 12 59s19.167 33.5 33.5 46.5s31.166 22.833 50.499 29.5s40.333 10 63 10c20.667 0 40.5 -3.33301 59.5 -10s35.833 -16.5 50.5 -29.5
s26.167 -28.5 34.5 -46.5s12.5 -37.667 12.5 -59v-142c0 -16.667 -6 -30.834 -18 -42.501s-26.333 -17.5 -43 -17.5h-130v-114c0 -9.33301 3.16699 -16.666 9.5 -21.999s14.5 -8 24.5 -8c9.33301 0 16.833 2.66699 22.5 8s8.5 13 8.5 23c0 10.667 3.5 19.667 10.5 27
s15.5 11 25.5 11h53c10 0 18.667 -3.66699 26 -11s11 -16.333 11 -27z" />
    <glyph glyph-name="f" unicode="f" horiz-adv-x="262" 
d="M252 511c0 -10 -3.66699 -18.499 -11 -25.499s-16 -10.5 -26 -10.5h-28v-439c0 -9.33301 -3.33301 -17.666 -10 -24.999s-15.667 -11 -27 -11h-53c-9.33301 0 -17.666 3.66699 -24.999 11s-11 15.666 -11 24.999v439h-6c-9.33301 0 -17.666 3.5 -24.999 10.5
s-11 15.5 -11 25.5v35c0 10.667 3.66699 19.334 11 26.001s15.666 10 24.999 10h6v79c0 19.333 3.16699 37 9.5 53s15.166 29.667 26.499 41s24.833 20.166 40.5 26.499s32.167 9.5 49.5 9.5h19c16 0 29 -3.66699 39 -11s15 -16 15 -26v-64
c0 -3.33301 -1.33301 -6.33301 -4 -9s-6 -4 -10 -4h-25c-10 0 -18.167 -3 -24.5 -9s-9.5 -12.667 -9.5 -20v-66h28c10 0 18.667 -3.33301 26 -10s11 -15.334 11 -26.001v-35z" />
    <glyph glyph-name="g" unicode="g" horiz-adv-x="394" 
d="M158 133c0 -9.33301 3.33301 -16.5 10 -21.5s14.667 -7.5 24 -7.5c8.66699 0 16.167 2.5 22.5 7.5s9.5 12.167 9.5 21.5v318c0 10 -3.16699 17.333 -9.5 22s-13.833 7 -22.5 7c-9.33301 0 -17.333 -2.33301 -24 -7s-10 -12 -10 -22v-318zM348 -77
c0 -19.333 -3.16797 -36.999 -9.50098 -52.999s-15.166 -29.333 -26.499 -40s-24.5 -19.334 -39.5 -26.001s-31.5 -10 -49.5 -10h-57c-10.667 0 -19.667 3.5 -27 10.5s-11 15.833 -11 26.5v41c0 10 3.66699 18.5 11 25.5s16.333 10.5 27 10.5h26c9.33301 0 17 3 23 9
s9 13 9 21v88h-8c-8.66699 -10 -20.5 -18.667 -35.5 -26s-30.833 -11 -47.5 -11c-13.333 0 -26.166 2.5 -38.499 7.5s-23 11.667 -32 20s-16 18.5 -21 30.5s-7.5 26 -7.5 42v407c0 14.667 2.5 28.334 7.5 41.001s12 23.167 21 31.5s19.667 14.666 32 18.999
s25.166 6.5 38.499 6.5c18 0 34.667 -3.16699 50 -9.5s28 -15.166 38 -26.499h7l4 16c1.33301 6 5.66602 9 12.999 9h67c10.667 0 19.334 -3.33301 26.001 -10s10 -15.334 10 -26.001v-624z" />
    <glyph glyph-name="h" unicode="h" horiz-adv-x="385" 
d="M350 36c0 -9.33301 -3.5 -17.665 -10.5 -24.998s-15.5 -11 -25.5 -11h-52c-10 0 -18.5 3.66699 -25.5 11s-10.5 15.666 -10.5 24.999v415c0 10 -3 17.333 -9 22s-14 7 -24 7c-8.66699 0 -16 -2.33301 -22 -7s-9 -12 -9 -22v-415c0 -9.33301 -3.66699 -17.666 -11 -24.999
s-16 -11 -26 -11h-52c-9.33301 0 -17.666 3.66699 -24.999 11s-11 15.666 -11 24.999v718c0 10 3.66699 18.667 11 26s15.666 11 24.999 11h52c10 0 18.667 -3.66699 26 -11s11 -16 11 -26v-196h7c10 11.333 22.167 20.166 36.5 26.499s29.166 9.5 44.499 9.5
c14 0 27 -2.16699 39 -6.5s22.833 -11 32.5 -20s16.834 -19.667 21.501 -32s7 -25.5 7 -39.5v-460z" />
    <glyph glyph-name="i" unicode="i" 
d="M162 36c0 -9.33301 -3.66699 -17.666 -11 -24.999s-16 -11 -26 -11h-52c-9.33301 0 -17.666 3.66699 -24.999 11s-11 15.666 -11 24.999v510c0 10.667 3.66699 19.334 11 26.001s15.666 10 24.999 10h52c10 0 18.667 -3.33301 26 -10s11 -15.334 11 -26.001v-510z
M162 695c0 -10 -3.66699 -18.5 -11 -25.5s-16 -10.5 -26 -10.5h-52c-9.33301 0 -17.666 3.5 -24.999 10.5s-11 15.5 -11 25.5v59c0 10 3.66699 18.667 11 26s15.666 11 24.999 11h52c10 0 18.667 -3.66699 26 -11s11 -16 11 -26v-59z" />
    <glyph glyph-name="j" unicode="j" 
d="M162 695c0 -10 -3.66699 -18.5 -11 -25.5s-16 -10.5 -26 -10.5h-53c-9.33301 0 -17.666 3.5 -24.999 10.5s-11 15.5 -11 25.5v59c0 10 3.66699 18.667 11 26s15.666 11 24.999 11h53c10 0 18.667 -3.66699 26 -11s11 -16 11 -26v-59zM162 -77
c0 -19.333 -3.33203 -36.6699 -9.99902 -52.0029s-15.5 -28.666 -26.5 -39.999s-24 -20.333 -39 -27s-31.833 -10 -50.5 -10h-20c-16 0 -28.833 4 -38.5 12s-14.5 19 -14.5 33v58c0 4.66699 1 8.33398 3 11.001s5 4 9 4l35 -6c6 -1.33301 11.833 1.33398 17.5 8.00098
s8.5 14.667 8.5 24v608c0 10.667 3.66699 19.334 11 26.001s15.666 10 24.999 10h53c10 0 18.667 -3.33301 26 -10s11 -15.334 11 -26.001v-623z" />
    <glyph glyph-name="k" unicode="k" horiz-adv-x="380" 
d="M356 47c1.33301 -4.66699 1.99902 -8 1.99902 -10c0 -9.33301 -3.5 -17.833 -10.5 -25.5s-15.5 -11.5 -25.5 -11.5h-48c-8 -0 -15.333 2.33301 -22 7s-11 11 -13 19l-54 197h-7l-16 -42v-145c0 -9.33301 -3.66699 -17.666 -11 -24.999s-16 -11 -26 -11h-52
c-9.33301 0 -17.666 3.66699 -24.999 11s-11 15.666 -11 24.999v718c0 10 3.66699 18.667 11 26s15.666 11 24.999 11h52c10 0 18.667 -3.66699 26 -11s11 -16 11 -26v-388h8l57 192c1.33301 7.33301 5.5 13.333 12.5 18s14.5 7 22.5 7h45
c10.667 0 19.334 -3.5 26.001 -10.5s10 -15.5 10 -25.5c0 -4.66699 -0.666992 -9 -2 -13l-71 -197z" />
    <glyph glyph-name="l" unicode="l" 
d="M162 36c0 -9.33301 -3.66699 -17.666 -11 -24.999s-16 -11 -26 -11h-52c-9.33301 0 -17.666 3.66699 -24.999 11s-11 15.666 -11 24.999v718c0 10 3.66699 18.667 11 26s15.666 11 24.999 11h52c10 0 18.667 -3.66699 26 -11s11 -16 11 -26v-718z" />
    <glyph glyph-name="m" unicode="m" horiz-adv-x="575" 
d="M541 36c0 -9.33301 -3.50293 -17.666 -10.5029 -24.999s-15.833 -11 -26.5 -11h-52c-9.33301 0 -17.666 3.66699 -24.999 11s-11 15.666 -11 24.999v409c0 10 -3.16699 17.333 -9.5 22s-13.833 7 -22.5 7s-16.167 -2.33301 -22.5 -7s-9.5 -12 -9.5 -22v-409
c0 -9.33301 -3.66699 -17.666 -11 -24.999s-16.333 -11 -27 -11h-50c-9.33301 0 -17.666 3.66699 -24.999 11s-11 15.666 -11 24.999v415c0 10 -3.33301 17.333 -10 22s-14 7 -22 7c-10 0 -18.167 -2.33301 -24.5 -7s-9.5 -12 -9.5 -22v-415
c0 -9.33301 -3.66699 -17.666 -11 -24.999s-16 -11 -26 -11h-52c-9.33301 0 -17.666 3.66699 -24.999 11s-11 15.666 -11 24.999v510c0 10.667 3.66699 19.334 11 26.001s15.666 10 24.999 10h69c8 0 12.667 -3.33301 14 -10l4 -14h7
c9.33301 11.333 21.833 20.166 37.5 26.499s31.167 9.5 46.5 9.5c11.333 0 21.5 -1.83301 30.5 -5.5s17.5 -8 25.5 -13s14.833 -10.833 20.5 -17.5l15.5 -19h6c10 14 22.667 26.667 38 38s33 17 53 17c14 0 27.167 -2.16699 39.5 -6.5s22.833 -11 31.5 -20
s15.834 -19.667 21.501 -32s8.5 -25.5 8.5 -39.5v-460z" />
    <glyph glyph-name="n" unicode="n" horiz-adv-x="386" 
d="M352 36c0 -9.33301 -3.66504 -17.666 -10.998 -24.999s-16.333 -11 -27 -11h-50c-9.33301 0 -17.666 3.66699 -24.999 11s-11 15.666 -11 24.999v415c0 10 -3.33301 17.333 -10 22s-14 7 -22 7c-10 0 -18.167 -2.33301 -24.5 -7s-9.5 -12 -9.5 -22v-415
c0 -9.33301 -3.66699 -17.666 -11 -24.999s-16 -11 -26 -11h-52c-9.33301 0 -17.666 3.66699 -24.999 11s-11 15.666 -11 24.999v510c0 10.667 3.66699 19.334 11 26.001s15.666 10 24.999 10h67c7.33301 0 12.333 -3.33301 15 -10l2 -14h7c10 11.333 23 20.166 39 26.499
s32 9.5 48 9.5c13.333 0 26.166 -2.16699 38.499 -6.5s23.166 -11 32.499 -20s16.666 -19.667 21.999 -32s8 -25.5 8 -39.5v-460z" />
    <glyph glyph-name="o" unicode="o" horiz-adv-x="378" 
d="M347 134c0 -21.333 -4.16699 -41 -12.5 -59s-19.833 -33.167 -34.5 -45.5s-31.5 -22.166 -50.5 -29.499s-38.833 -11 -59.5 -11c-22.667 0 -43.667 3.66699 -63 11s-36.166 17.166 -50.499 29.499s-25.5 27.5 -33.5 45.5s-12 37.667 -12 59v314c0 22 4 42 12 60
s19.167 33.5 33.5 46.5s31.166 22.833 50.499 29.5s40.333 10 63 10c20.667 0 40.5 -3.33301 59.5 -10s35.833 -16.5 50.5 -29.5s26.167 -28.5 34.5 -46.5s12.5 -38 12.5 -60v-314zM221 451c0 10 -2.83301 17.333 -8.5 22s-13.167 7 -22.5 7
c-10 0 -18.167 -2.33301 -24.5 -7s-9.5 -12 -9.5 -22v-318c0 -9.33301 3.16699 -16.5 9.5 -21.5s14.5 -7.5 24.5 -7.5c9.33301 0 16.833 2.5 22.5 7.5s8.5 12.167 8.5 21.5v318z" />
    <glyph glyph-name="p" unicode="p" horiz-adv-x="386" 
d="M228 451c0 10 -3.33301 17.333 -10 22s-15 7 -25 7c-8.66699 0 -16 -2.33301 -22 -7s-9 -12 -9 -22v-318c0 -9.33301 3 -16.5 9 -21.5s13.333 -7.5 22 -7.5c10 0 18.333 2.5 25 7.5s10 12.167 10 21.5v318zM352 89c0 -16 -2.66797 -30 -8.00098 -42
s-12.666 -22.167 -21.999 -30.5s-20.166 -15 -32.499 -20s-25.166 -7.5 -38.499 -7.5c-16 0 -31.167 3.66699 -45.5 11s-26.5 16 -36.5 26h-7v-196c0 -10 -3.66699 -18.5 -11 -25.5s-16 -10.5 -26 -10.5h-52c-9.33301 0 -17.666 3.5 -24.999 10.5s-11 15.5 -11 25.5v716
c0 10.667 3.66699 19.334 11 26.001s15.666 10 24.999 10h67c7.33301 0 12.333 -3.33301 15 -10l2 -14h7c10 11.333 22.833 20.166 38.5 26.499s31.834 9.5 48.501 9.5c13.333 0 26.166 -2.16699 38.499 -6.5s23.166 -10.666 32.499 -18.999s16.666 -18.833 21.999 -31.5
s8 -26.334 8 -41.001v-407z" />
    <glyph glyph-name="q" unicode="q" horiz-adv-x="385" 
d="M222 451c0 10 -3 17.333 -9 22s-13.333 7 -22 7c-10 0 -18 -2.33301 -24 -7s-9 -12 -9 -22v-318c0 -9.33301 3 -16.5 9 -21.5s14 -7.5 24 -7.5c8.66699 0 16 2.5 22 7.5s9 12.167 9 21.5v318zM348 -170c0 -10 -3.66797 -18.5 -11.001 -25.5s-16 -10.5 -26 -10.5h-53
c-9.33301 0 -17.666 3.5 -24.999 10.5s-11 15.5 -11 25.5v196h-7c-10 -10 -22 -18.667 -36 -26s-29.333 -11 -46 -11c-13.333 0 -26.166 2.5 -38.499 7.5s-23 11.667 -32 20s-16.333 18.5 -22 30.5s-8.5 26 -8.5 42v407c0 14.667 2.83301 28.334 8.5 41.001
s13 23.167 22 31.5s19.667 14.666 32 18.999s25.166 6.5 38.499 6.5c16.667 0 33 -3.16699 49 -9.5s29 -15.166 39 -26.499h7l2 13c2 7.33301 7 11 15 11h66c10 0 18.667 -3.33301 26 -10s11 -15.334 11 -26.001v-716z" />
    <glyph glyph-name="r" unicode="r" horiz-adv-x="286" 
d="M270 500c0 -12.667 -5 -21.834 -15 -27.501s-21.333 -8.83398 -34 -9.50098c-19.333 -2 -34 -6.83301 -44 -14.5s-15 -21.167 -15 -40.5v-372c0 -9.33301 -3.66699 -17.666 -11 -24.999s-16 -11 -26 -11h-52c-9.33301 0 -17.666 3.66699 -24.999 11
s-11 15.666 -11 24.999v510c0 10.667 3.66699 19.334 11 26.001s15.666 10 24.999 10h72c7.33301 0 11.666 -3.66699 12.999 -11l5 -19h7c6 6.66699 14.167 13.334 24.5 20.001s21.5 12 33.5 16c2.66699 0.666992 5.33398 1 8.00098 1c9.33301 0 17.333 -3.16699 24 -9.5
s10 -13.833 10 -22.5v-57z" />
    <glyph glyph-name="s" unicode="s" horiz-adv-x="365" 
d="M340 150c0 -20.667 -3.00195 -40.6699 -9.00195 -60.0029s-15.667 -36.333 -29 -51s-30 -26.667 -50 -36s-42.667 -14 -68 -14c-49.333 0 -87.166 13.167 -113.499 39.5s-39.5 61.5 -39.5 105.5v15c0 10 3.66699 18.667 11 26s16 11 26 11h39
c10 0 18.667 -3.66699 26 -11s11 -16 11 -26v-15c0 -9.33301 3.16699 -17.166 9.5 -23.499s15.166 -9.5 26.499 -9.5s20 3.16699 26 9.5s9 17.833 9 34.5c0 12 -1.83301 22.833 -5.5 32.5s-9.5 19.334 -17.5 29.001s-18.667 19.834 -32 30.501l-48 38
c-24 19.333 -44.5 42.333 -61.5 69s-25.5 56.334 -25.5 89.001c0 30.667 4.5 56.167 13.5 76.5s20.833 36.666 35.5 48.999s31.334 21.333 50.001 27s38.667 8.5 60 8.5c20.667 0 40.167 -3.33301 58.5 -10s34.333 -16.5 48 -29.5s24.334 -28.5 32.001 -46.5
s11.5 -38 11.5 -60v-14c0 -9.33301 -3.66699 -17.666 -11 -24.999s-16.333 -11 -27 -11h-39c-10 0 -18.5 3.66699 -25.5 11s-10.5 15.666 -10.5 24.999v14c0 10 -3 17.833 -9 23.5s-14.667 8.5 -26 8.5c-12 0 -21 -3.33301 -27 -10s-9 -17.334 -9 -32.001
c0 -8.66699 1 -16 3 -22s4.83301 -11.833 8.5 -17.5s8.66699 -11.5 15 -17.5s14.166 -13 23.499 -21l23 -17c14.667 -12 29.167 -25.167 43.5 -39.5s26.833 -29.666 37.5 -45.999s19.334 -33.5 26.001 -51.5s10 -36.667 10 -56z" />
    <glyph glyph-name="t" unicode="t" horiz-adv-x="299" 
d="M271 511c0 -10 -3.49902 -18.501 -10.499 -25.501s-15.5 -10.5 -25.5 -10.5h-31v-337c0 -8 2.83301 -14.167 8.5 -18.5s13.167 -6.5 22.5 -6.5h17c3.33301 0 6.33301 -1.5 9 -4.5s4 -5.83301 4 -8.5v-64c0 -9.33301 -3.33301 -17.666 -10 -24.999s-15.667 -11 -27 -11
h-29c-18 0 -34.5 3.16699 -49.5 9.5s-27.667 15 -38 26s-18.5 23.667 -24.5 38s-9 29.5 -9 45.5v356h-24c-9.33301 0 -17.666 3.5 -24.999 10.5s-11 15.5 -11 25.5v35c0 10.667 3.66699 19.334 11 26.001s15.666 10 24.999 10h24v44c0 10.667 3.66699 19.667 11 27
s15.666 11 24.999 11h53c10 0 18.667 -3.66699 26 -11s11 -16.333 11 -27v-44h31c10 0 18.5 -3.33301 25.5 -10s10.5 -15.334 10.5 -26.001v-35z" />
    <glyph glyph-name="u" unicode="u" horiz-adv-x="385" 
d="M348 36c0 -9.33301 -3.33496 -17.667 -10.002 -25s-15.667 -11 -27 -11h-63c-8 0 -12.333 3.66699 -13 11l-5 14h-7c-9.33301 -10 -22.166 -18.5 -38.499 -25.5s-33.166 -10.5 -50.499 -10.5c-13.333 0 -26.166 2.5 -38.499 7.5s-23 11.5 -32 19.5s-16.167 18 -21.5 30
s-8 26.333 -8 43v457c0 10.667 3.5 19.334 10.5 26.001s15.5 10 25.5 10h51c11.333 0 20.333 -3.33301 27 -10s10 -15.334 10 -26.001v-413c0 -9.33301 3.33301 -16.5 10 -21.5s14.667 -7.5 24 -7.5c8.66699 0 16 2.5 22 7.5s9 12.167 9 21.5v413
c0 10.667 3.66699 19.334 11 26.001s15.666 10 24.999 10h52c11.333 0 20.333 -3.33301 27 -10s10 -15.334 10 -26.001v-510z" />
    <glyph glyph-name="v" unicode="v" horiz-adv-x="328" 
d="M272 582c11.333 0 20.667 -4.16699 28 -12.5s9.66602 -18.5 6.99902 -30.5l-91 -509c-1.33301 -8.66699 -5.5 -15.834 -12.5 -21.501s-15.167 -8.5 -24.5 -8.5h-39c-9.33301 0 -17.166 2.83301 -23.499 8.5s-10.5 12.834 -12.5 21.501l-93 509
c-2.66699 12 -0.166992 22.167 7.5 30.5s17.167 12.5 28.5 12.5h38c10 0 18.333 -2.83301 25 -8.5s10.334 -13.167 11.001 -22.5l35 -281h8l17 139c6 48.667 11.333 96 16 142c1.33301 9.33301 5.66602 16.833 12.999 22.5s15.333 8.5 24 8.5h38z" />
    <glyph glyph-name="w" unicode="w" horiz-adv-x="506" 
d="M464 582c11.333 0 20.832 -4.33105 28.499 -12.998s10.167 -18.667 7.5 -30l-99 -509c-2.66699 -8.66699 -7.16699 -15.834 -13.5 -21.501s-13.833 -8.5 -22.5 -8.5h-33c-8.66699 0 -16.334 2.83301 -23.001 8.5s-11 13.167 -13 22.5l-39 244h-9l-40 -244
c-1.33301 -9.33301 -5.33301 -16.833 -12 -22.5s-14.667 -8.5 -24 -8.5h-32c-9.33301 0 -17.333 2.83301 -24 8.5s-10.667 13.167 -12 22.5l-90 509c-2 11.333 0.833008 21.166 8.5 29.499s16.834 12.5 27.501 12.5h47c8.66699 0 16.667 -3 24 -9s11.333 -13.667 12 -23
l28 -260h8l39 262c0.666992 9.33301 4.33398 16.666 11.001 21.999s15 8 25 8h28c9.33301 0 17.5 -2.66699 24.5 -8s10.833 -12.666 11.5 -21.999l40 -262h8l27 260c1.33301 9.33301 5.5 17 12.5 23s15.167 9 24.5 9h44z" />
    <glyph glyph-name="x" unicode="x" horiz-adv-x="364" 
d="M340 47c0.666992 -2 1.16602 -3.66797 1.49902 -5.00098s0.5 -3.33301 0.5 -6c0 -8.66699 -3.66699 -16.834 -11 -24.501s-15.666 -11.5 -24.999 -11.5h-53c-8.66699 0 -16.167 2.66699 -22.5 8s-10.5 12.333 -12.5 21l-31 134h-8c-6 -23.333 -11.5 -46 -16.5 -68
l-14.5 -66c-2.66699 -8.66699 -7.16699 -15.667 -13.5 -21s-13.833 -8 -22.5 -8h-50c-10 0 -18.667 3.66699 -26 11s-11 15.333 -11 24c0 4.66699 1 9 3 13l86 242l-86 244c-2 4 -3 8 -3 12c0 10.667 3.66699 19.334 11 26.001s15.666 10 24.999 10h51
c8.66699 0 16.167 -2.33301 22.5 -7s10.833 -11.667 13.5 -21l31 -124h8l30 124c2.66699 9.33301 7.33398 16.333 14.001 21s14 7 22 7h49c11.333 0 20.5 -3.66699 27.5 -11s10.5 -15.666 10.5 -24.999c0 -4.66699 -1.33301 -9 -4 -13l-85 -222l44 -131z" />
    <glyph glyph-name="y" unicode="y" horiz-adv-x="348" 
d="M300 582c11.333 0 20.3311 -3.66797 26.998 -11.001s10 -15.666 10 -24.999c0 -3.33301 -0.333008 -5.66602 -1 -6.99902l-131 -646c-6 -31.333 -19.667 -55.666 -41 -72.999s-50.666 -26 -87.999 -26h-16c-10.667 0 -18.334 3 -23.001 9s-7 13 -7 21v55
c0 8 2.83301 15 8.5 21s12.834 9 21.501 9c10.667 0 19.167 2.16699 25.5 6.5s10.166 9.83301 11.499 16.5l24 102l-52 252l-53 253c-1.33301 1.33301 -2 3.66602 -2 6.99902c0 9.33301 3.66699 17.666 11 24.999s16.333 11 27 11h45c10 0 18.333 -2.83301 25 -8.5
s10.334 -13.167 11.001 -22.5l40 -287h8l39 287c0.666992 9.33301 4.33398 16.833 11.001 22.5s15 8.5 25 8.5h44z" />
    <glyph glyph-name="z" unicode="z" horiz-adv-x="298" 
d="M278 30c0 -8 -3 -15.001 -9 -21.001s-13 -9 -21 -9h-205c-8 0 -14.833 3 -20.5 9s-8.5 13 -8.5 21v7l114 438h-81c-8 0 -14.833 2.83301 -20.5 8.5s-8.5 12.5 -8.5 20.5v49c0 8.66699 2.83301 15.667 8.5 21s12.5 8 20.5 8h193c8 0 15 -2.83301 21 -8.5s9 -12.5 9 -20.5
c0 -3.33301 -0.333008 -5.66602 -1 -6.99902l-114 -437h93c8 0 15 -3 21 -9s9 -13 9 -21v-49z" />
    <glyph glyph-name="braceleft" unicode="{" horiz-adv-x="352" 
d="M300 791c-29.333 0 -44.001 -15.001 -44.001 -45.001v-285c0 -8.66699 -4 -17 -12 -25l-59 -60l59 -60c8 -7.33301 12 -16 12 -26v-315c0 -28.667 14.667 -43 44 -43c10.667 0 19.5 -3.66699 26.5 -11s10.5 -16.333 10.5 -27v-64c0 -10 -3.5 -18.5 -10.5 -25.5
s-15.833 -10.5 -26.5 -10.5c-49.333 0 -92 18 -128 54c-35.333 34.667 -53 77 -53 127v275l-101 100c-6.66699 6.66699 -10 15.334 -10 26.001c0 10 3.33301 18.667 10 26l101 101v243c0 50 17.667 92.667 53 128c34.667 34.667 77.334 52 128.001 52
c10.667 0 19.5 -3.5 26.5 -10.5s10.5 -15.833 10.5 -26.5v-62c0 -10 -3.5 -18.5 -10.5 -25.5s-15.833 -10.5 -26.5 -10.5z" />
    <glyph glyph-name="bar" unicode="|" horiz-adv-x="223" 
d="M179 36c0 -9.33301 -3.5 -17.666 -10.5 -24.999s-15.833 -11 -26.5 -11h-63c-10 0 -18.5 3.66699 -25.5 11s-10.5 15.666 -10.5 24.999v718c0 10 3.5 18.667 10.5 26s15.5 11 25.5 11h63c10.667 0 19.5 -3.66699 26.5 -11s10.5 -16 10.5 -26v-718z" />
    <glyph glyph-name="braceright" unicode="}" horiz-adv-x="352" 
d="M42 791c-10.667 0 -19.5 3.50098 -26.5 10.501s-10.5 15.5 -10.5 25.5v62c0 10.667 3.5 19.5 10.5 26.5s15.833 10.5 26.5 10.5c50.667 0 93.334 -17.333 128.001 -52c35.333 -35.333 53 -78 53 -128v-243l100 -101c8 -7.33301 12 -16 12 -26
c0 -10.667 -4 -19.334 -12 -26.001l-100 -100v-275c0 -50 -17.667 -92.333 -53 -127c-34.667 -36 -77.334 -54 -128.001 -54c-10.667 0 -19.5 3.5 -26.5 10.5s-10.5 15.5 -10.5 25.5v64c0 10.667 3.5 19.667 10.5 27s15.833 11 26.5 11c30.667 0 46 14.333 46 43v315
c0 10 3.33301 18.667 10 26l60 60l-60 60c-6.66699 8 -10 16.333 -10 25v285c0 30 -15.333 45 -46 45z" />
    <glyph glyph-name="asciitilde" unicode="~" horiz-adv-x="413" 
d="M372 403c-10.667 -30 -24.166 -51.334 -40.499 -64.001s-36.833 -19 -61.5 -19c-30.667 0 -60.334 12.667 -89.001 38c-6 4.66699 -11.333 8.16699 -16 10.5s-9 3.5 -13 3.5c-6.66699 0 -12 -2.66699 -16 -8s-7.83301 -11.166 -11.5 -17.499s-8 -11.833 -13 -16.5
s-11.5 -7 -19.5 -7h-2h-2l-22 5c-9.33301 1.33301 -16 5.33301 -20 12s-6 15 -6 25c0 5.33301 1 12.333 3 21c11.333 30 25 51.333 41 64s36.333 19 61 19c30.667 0 60.334 -12.333 89.001 -37c4.66699 -4 9 -7.33301 13 -10s8.33301 -4 13 -4c8 0 14.333 2.5 19 7.5
s9.16699 10.5 13.5 16.5s8.66602 11.667 12.999 17s10.5 8 18.5 8c1.33301 0 2.5 -0.166992 3.5 -0.5s2.16699 -0.5 3.5 -0.5l19 -5c10 -2 17 -6.33301 21 -13s6 -14.334 6 -23.001c0 -7.33301 -1.66699 -14.666 -5 -21.999z" />
    <glyph glyph-name="exclamdown" unicode="&#xa1;" horiz-adv-x="217" 
d="M170 612.002c0 9.33301 -3.33301 17.666 -10 24.999s-15.667 10.999 -27 10.999h-50c-10 0 -18.5 -3.66602 -25.5 -10.999s-10.5 -15.666 -10.5 -24.999v-82.9951c0 -9.99902 3.5 -18.665 10.5 -25.998s15.5 -10.999 25.5 -10.999h50c11.333 0 20.333 3.66602 27 10.999
s10 15.999 10 25.998v82.9951zM179 200.027l-23 233.985h-92l-24 -233.985v-368.978c0 -11.333 3.5 -20.332 10.5 -26.998c7 -6.66699 15.5 -10 25.5 -10h66c10 0 18.667 3.33301 26 10c7.33301 6.66602 11 15.665 11 26.998v368.978z" />
    <glyph glyph-name="cent" unicode="&#xa2;" horiz-adv-x="372" 
d="M346 134c0 -36 -10.668 -66 -32.001 -90s-47.666 -40 -78.999 -48h-3v-39c0 -10.667 -3.66699 -19.5 -11 -26.5s-16.333 -10.5 -27 -10.5h-19c-9.33301 0 -17.666 3.5 -24.999 10.5s-11 15.833 -11 26.5v39h-3c-31.333 10 -56.666 27 -75.999 51s-29 53 -29 87v314
c0 36 9.66699 66 29 90s44.666 40.333 75.999 49h3v45c0 10.667 3.66699 19.667 11 27s15.666 11 24.999 11h19c10.667 0 19.667 -3.66699 27 -11s11 -16.333 11 -27v-44h3c32 -8.66699 58.5 -25 79.5 -49s31.5 -54.333 31.5 -91v-42c0 -10 -3.66699 -18.5 -11 -25.5
s-16.333 -10.5 -27 -10.5h-51c-10 0 -18.5 3.5 -25.5 10.5s-10.5 15.5 -10.5 25.5v45c0 10 -3 17.333 -9 22s-14 7 -24 7c-8.66699 0 -16.167 -2.33301 -22.5 -7s-9.5 -12 -9.5 -22v-318c0 -9.33301 3.16699 -16.5 9.5 -21.5s13.833 -7.5 22.5 -7.5c10 0 18 2.5 24 7.5
s9 12.167 9 21.5v43c0 10.667 3.5 19.667 10.5 27s15.5 11 25.5 11h51c10.667 0 19.667 -3.66699 27 -11s11 -16.333 11 -27v-42z" />
    <glyph glyph-name="sterling" unicode="&#xa3;" horiz-adv-x="532" 
d="M167 322l-34 -0.000976562c-9.33301 0 -17.666 3.5 -24.999 10.5s-11 15.5 -11 25.5v54c0 10 3.66699 18.667 11 26s15.666 11 24.999 11h34v183c0 50 16.333 91 49 123c32.667 30 72.667 45 120 45h12c10.667 0 19.5 -3.33301 26.5 -10s10.5 -15.667 10.5 -27v-53
c0 -9.33301 -3.5 -17.666 -10.5 -24.999s-15.833 -11 -26.5 -11h-12c-28 0 -42 -14 -42 -42v-183h74c11.333 0 20.5 -3.66699 27.5 -11s10.5 -16 10.5 -26v-54c0 -10 -3.5 -18.5 -10.5 -25.5s-16.167 -10.5 -27.5 -10.5h-74v-204h120c10.667 0 19.5 -3.66699 26.5 -11
s10.5 -16.333 10.5 -27v-54c0 -10 -3.5 -18.667 -10.5 -26s-15.833 -11 -26.5 -11h-210c-10.667 0 -19.5 3.66699 -26.5 11s-10.5 16 -10.5 26v296z" />
    <glyph glyph-name="currency" unicode="&#xa4;" horiz-adv-x="685" 
d="M188 274c0 -30.667 7.5 -53.334 22.5 -68.001s35.167 -22 60.5 -22c26.667 0 47.334 7.33301 62.001 22s22 37.334 22 68.001c0 29.333 -7.33301 51.666 -22 66.999s-35.334 23 -62.001 23c-25.333 0 -45.5 -7.66699 -60.5 -23s-22.5 -37.666 -22.5 -66.999zM140 84
c-4.66699 -4 -9.66602 -6 -14.999 -6c-6.66699 0 -12.334 2.33301 -17.001 7l-28 30c-4 4 -6 9 -6 15c0 6.66699 2 12 6 16l28 27c-20 30 -30 63.667 -30 101c0 18.667 3 36.667 9 54s13.333 33.666 22 48.999l-27 29c-4 2.66699 -6 7.66699 -6 15c0 6 2 11.333 6 16l27 27
c6 5.33301 11.667 8 17 8c4.66699 0 9.33398 -2 14.001 -6l30 -29c30 20 63.667 30 101 30c38 0 72 -10 102 -30l30 29c4 4 9 6 15 6c5.33301 0 10.666 -2.66699 15.999 -8l28 -27c4 -4.66699 6 -10 6 -16s-2 -11 -6 -15l-28 -29c9.33301 -15.333 17 -31.666 23 -48.999
s9 -35.333 9 -54c0 -37.333 -10 -71 -30 -101l27 -27c4 -4 6 -9 6 -15c0 -6.66699 -2 -12 -6 -16l-27 -30c-5.33301 -4.66699 -11 -7 -17 -7c-6.66699 0 -12.334 2 -17.001 6l-25 28c-31.333 -21.333 -66.666 -32 -105.999 -32s-74 10.667 -104 32z" />
    <glyph glyph-name="yen" unicode="&#xa5;" horiz-adv-x="424" 
d="M403 185c0 -10 -3.5 -18.667 -10.5 -26s-15.833 -11 -26.5 -11h-88v-112c0 -9.33301 -3.5 -17.666 -10.5 -24.999s-15.833 -11 -26.5 -11h-59c-10 0 -18.5 3.66699 -25.5 11s-10.5 15.666 -10.5 24.999v112h-86c-10.667 0 -19.5 3.66699 -26.5 11s-10.5 16 -10.5 26v25
c0 10.667 3.5 19.5 10.5 26.5s15.833 10.5 26.5 10.5h86v43l-13 47h-73c-10.667 0 -19.5 3.66699 -26.5 11s-10.5 15.666 -10.5 24.999v27c0 10 3.5 18.667 10.5 26s15.833 11 26.5 11h37l-60 206c-1.33301 4 -2 7.66699 -2 11c0 9.33301 3.33301 17.666 10 24.999
s15.667 11 27 11h54c8.66699 0 16.167 -2.33301 22.5 -7s11.166 -11 14.499 -19l53 -208h8l47 205c2.66699 10 7.16699 17.333 13.5 22s13.833 7 22.5 7h47c10.667 0 19.334 -3.66699 26.001 -11s10 -15.666 10 -24.999c0 -1.33301 -0.333008 -5 -1 -11l-61 -206h38
c10.667 0 19.5 -3.66699 26.5 -11s10.5 -16 10.5 -26v-27c0 -9.33301 -3.5 -17.666 -10.5 -24.999s-15.833 -11 -26.5 -11h-77l-11 -47v-43h88c10.667 0 19.5 -3.5 26.5 -10.5s10.5 -15.833 10.5 -26.5v-25z" />
    <glyph glyph-name="brokenbar" unicode="&#xa6;" horiz-adv-x="223" 
d="M179 524c0 -10 -3.5 -18.5 -10.5 -25.5s-15.833 -10.5 -26.5 -10.5h-63c-10 0 -18.5 3.5 -25.5 10.5s-10.5 15.5 -10.5 25.5v320c0 10 3.5 18.667 10.5 26s15.5 11 25.5 11h63c10.667 0 19.5 -3.66699 26.5 -11s10.5 -16 10.5 -26v-320zM179 38
c0 -10 -3.5 -18.5 -10.5 -25.5s-15.833 -10.5 -26.5 -10.5h-63c-10 0 -18.5 3.5 -25.5 10.5s-10.5 15.5 -10.5 25.5v320c0 10 3.5 18.667 10.5 26s15.5 11 25.5 11h63c10.667 0 19.5 -3.66699 26.5 -11s10.5 -16 10.5 -26v-320z" />
    <glyph glyph-name="section" unicode="&#xa7;" horiz-adv-x="365" 
d="M228 376c0 34.667 -25.667 66.002 -77 94.002h-5c-2.66699 -6.66699 -4.5 -14.834 -5.5 -24.501s-1.5 -19.834 -1.5 -30.501c0 -34 25 -65 75 -93h7c4.66699 16 7 34 7 54zM328 390.002c0 -24.667 -3.66797 -48.4961 -11.001 -71.4961s-18.333 -43.833 -33 -62.5
c10 -15.333 17.5 -32 22.5 -50s7.5 -36.667 7.5 -56c0 -49.333 -12 -88.333 -36 -117s-56.333 -43 -97 -43c-67.333 0 -110 43.333 -128 130c-0.666992 5.33301 -1 9.66602 -1 12.999c0 10 2.33301 18.667 7 26s11.667 12 21 14l35 5c12 0 20.5 -4.33301 25.5 -13
s8.83301 -18 11.5 -28s6 -19.167 10 -27.5s11.667 -12.5 23 -12.5c20 0 30 15.667 30 47c0 30.667 -17.333 58.334 -52 83.001c-27.333 17.333 -49 32.666 -65 45.999s-28.5 26.166 -37.5 38.499s-14.667 25.5 -17 39.5s-3.5 30.667 -3.5 50c0 24.667 3.5 48.167 10.5 70.5
s17.5 43.166 31.5 62.499c-9.33301 16 -16.666 32.833 -21.999 50.5s-8 36.167 -8 55.5c0 50.667 12.333 89.834 37 117.501s56.667 41.5 96 41.5c68 0 110.667 -43.667 128 -131c0.666992 -4.66699 1 -8.66699 1 -12c0 -8.66699 -2.33301 -17 -7 -25
s-11.667 -12.333 -21 -13l-35 -4c-10 0 -18.333 3.66699 -25 11s-10.667 15.666 -12 24.999l-6 23c-2.66699 6 -6 10.667 -10 14s-9.33301 5 -16 5c-20.667 0 -31 -15 -31 -45c0 -30.667 17.667 -58.334 53 -83.001c26.667 -17.333 48.167 -33 64.5 -47s28.833 -27 37.5 -39
s14.5 -25 17.5 -39s4.5 -30.333 4.5 -49z" />
    <glyph glyph-name="dieresis" unicode="&#xa8;" horiz-adv-x="413" 
d="M368 695c0 -10 -3.5 -18.5 -10.5 -25.5s-15.833 -10.5 -26.5 -10.5h-51c-10 0 -18.5 3.5 -25.5 10.5s-10.5 15.5 -10.5 25.5v59c0 10 3.5 18.667 10.5 26s15.5 11 25.5 11h51c10.667 0 19.5 -3.66699 26.5 -11s10.5 -16 10.5 -26v-59zM168 695
c0 -10 -3.66699 -18.5 -11 -25.5s-16 -10.5 -26 -10.5h-51c-10 0 -18.667 3.5 -26 10.5s-11 15.5 -11 25.5v59c0 10 3.66699 18.667 11 26s16 11 26 11h51c10 0 18.667 -3.66699 26 -11s11 -16 11 -26v-59z" />
    <glyph glyph-name="copyright" unicode="&#xa9;" horiz-adv-x="797" 
d="M682 394c0 -65.333 -6.66699 -123 -20 -173s-32.166 -92.167 -56.499 -126.5s-54 -60.5 -89 -78.5s-74.5 -27 -118.5 -27s-83.333 9.66699 -118 29s-64 46.166 -88 80.499s-42.333 76.5 -55 126.5s-19 106.333 -19 169s6.33301 118.834 19 168.501s31 92 55 127
s53.333 62 88 81s74 28.5 118 28.5s83.5 -9 118.5 -27s64.667 -44.333 89 -79s43.166 -77 56.499 -127s20 -107.333 20 -172zM616 394c0 228 -72.667 342 -218 342c-142 0 -213 -114 -213 -342s71 -342 213 -342c145.333 0 218 114 218 342zM523 268
c-8.66699 -33.333 -21.334 -57.166 -38.001 -71.499s-42 -21.5 -76 -21.5c-22 0 -41 4 -57 12s-29.5 20.833 -40.5 38.5s-18.833 40.5 -23.5 68.5s-7 62.333 -7 103c0 39.333 2.33301 73.166 7 101.499s12.5 51.5 23.5 69.5s24.667 31 41 39s35.5 12 57.5 12
c32 0 56.667 -6.5 74 -19.5s30.333 -36.833 39 -71.5c0.666992 -6.66699 1 -12.334 1 -17.001c0 -9.33301 -2.33301 -17.833 -7 -25.5s-11.667 -11.834 -21 -12.501l-24 -1c-9.33301 0 -17.5 2.66699 -24.5 8s-11.5 13 -13.5 23l-2 27c-2.66699 12 -10 18 -22 18
c-8.66699 0 -16.834 -5.33301 -24.501 -16s-12.167 -27.667 -13.5 -51v-162c1.33301 -23.333 5.83301 -40.666 13.5 -51.999s16.834 -17 27.501 -17c6 0 10.667 3.5 14 10.5s6.83301 15.333 10.5 25s8.33398 18.334 14.001 26.001s13.167 11.5 22.5 11.5l22 -1
c9.33301 -1.33301 16.333 -6 21 -14s7 -16.667 7 -26v-7.5c0 -2.33301 -0.333008 -4.5 -1 -6.5z" />
    <glyph glyph-name="ordfeminine" unicode="&#xaa;" horiz-adv-x="254" 
d="M137.458 594.719c-6.84668 -2.41699 -12.6855 -5.2373 -17.5186 -8.46094c-4.83203 -3.22363 -8.75879 -6.74902 -11.7793 -10.5771c-3.02051 -3.82715 -5.53711 -8.05762 -7.55078 -12.6914c-2.0127 -4.63379 -2.81836 -17.8291 -2.41602 -39.5859
c0 -13.6992 6.64453 -20.5488 19.9346 -20.5488c12.8867 0 19.3301 6.84961 19.3301 20.5488v71.3154zM217.195 466.592l0.00195312 -4.23047c0 -5.64062 -2.01367 -10.7773 -6.04102 -15.4111c-4.02637 -4.63379 -9.26172 -6.9502 -15.7051 -6.9502h-25.3711
c-4.83301 0 -7.65234 2.21582 -8.45801 6.64844l-1.81152 12.6914h-4.22852c-5.23535 -8.05859 -12.1826 -14.4043 -20.8408 -19.0381s-18.8262 -6.9502 -30.5049 -6.9502c-24.9678 0 -45.1035 7.75586 -60.4062 23.2686
c-15.3037 15.5127 -22.9551 36.9678 -22.9551 64.3652c0 20.1455 1.71191 35.96 5.13477 47.4434s7.85254 20.9521 13.2891 28.4062s11.6787 14.4043 18.7266 20.8506s13.9941 12.0869 20.8398 16.9219c16.9141 10.4756 36.4453 18.9365 58.5947 25.3828v52.5811
c0 6.04395 -1.10742 10.4756 -3.32227 13.2959c-2.21582 2.82031 -5.94141 4.23047 -11.1768 4.23047c-5.6377 0 -9.46387 -1.41016 -11.4775 -4.23047c-2.0127 -2.82031 -3.01953 -7.25195 -3.01953 -13.2959v-8.46191c0 -6.04395 -2.31543 -11.1807 -6.94727 -15.4111
c-4.63086 -4.23047 -9.76562 -6.3457 -15.4033 -6.3457h-35.0361c-5.6377 0 -10.6719 2.11523 -15.1016 6.3457s-6.64453 9.36719 -6.64453 15.4111v6.64844c0 13.2959 2.61719 25.3828 7.85254 36.2607c5.23535 10.8789 12.1826 20.2471 20.8408 28.1035
s18.7256 13.7998 30.2031 17.8291s23.8604 6.04395 37.1494 6.04395c12.8867 0 24.7666 -2.01465 35.6406 -6.04395c10.873 -4.0293 20.0342 -9.97266 27.4844 -17.8291s13.3906 -17.2246 17.8203 -28.1035c4.42969 -10.8779 6.64453 -22.9648 6.64453 -36.2607v-198.233
c0 -7.65527 0.402344 -15.21 1.20801 -22.6641s1.8125 -15.21 3.02051 -23.2686z" />
    <glyph glyph-name="guillemotleft" unicode="&#xab;" horiz-adv-x="496" 
d="M455 47c0.666992 -4.66699 1 -8.00098 1 -10.001c0 -9.33301 -3.33301 -17.833 -10 -25.5s-15.667 -11.5 -27 -11.5h-67c-8 0 -15.5 2.33301 -22.5 7s-11.5 11 -13.5 19l-71 256c-2 2.66699 -3 6 -3 10c0 4.66699 1 7.66699 3 9l71 256c2 7.33301 6.5 13.333 13.5 18
s14.5 7 22.5 7h67c11.333 0 20.333 -3.66699 27 -11s10 -15.666 10 -24.999c0 -2.66699 -0.333008 -6 -1 -10l-69 -235c-0.666992 -1.33301 -1 -4.33301 -1 -9c0 -4 0.333008 -7.33301 1 -10zM241 46.999c0.666992 -4.66699 1 -8.00098 1 -10.001
c0 -9.33301 -3.5 -17.833 -10.5 -25.5s-15.833 -11.5 -26.5 -11.5h-67c-8 0 -15.667 2.33301 -23 7s-11.666 11 -12.999 19l-71 256c-1.33301 2.66699 -2 6 -2 10c0 4.66699 0.666992 7.66699 2 9l71 256c1.33301 7.33301 5.66602 13.333 12.999 18s15 7 23 7h67
c10.667 0 19.5 -3.66699 26.5 -11s10.5 -15.666 10.5 -24.999c0 -2.66699 -0.333008 -6 -1 -10l-69 -235c-1.33301 -1.33301 -2 -4.33301 -2 -9c0 -4 0.666992 -7.33301 2 -10z" />
    <glyph glyph-name="logicalnot" unicode="&#xac;" horiz-adv-x="772" 
d="M98 418c12 28 27.667 53.998 47 77.998s41.666 44.333 66.999 61s52.333 29.834 81 39.501s59.334 14.5 92.001 14.5s63.834 -4.83301 93.501 -14.5s57.167 -22.834 82.5 -39.501s47.5 -37 66.5 -61s34.5 -50 46.5 -78c1.33301 -1.33301 2 -2.66602 2 -3.99902
c0 -5.33301 -2 -9.66602 -6 -12.999s-8 -5 -12 -5c-6.66699 0 -11.334 3.66699 -14.001 11c-9.33301 24.667 -22.666 47.834 -39.999 69.501s-37.333 40 -60 55s-47.334 27 -74.001 36s-55 13.5 -85 13.5c-28 0 -55.333 -4.5 -82 -13.5s-51.5 -21 -74.5 -36
s-43 -33.333 -60 -55s-30.833 -44.834 -41.5 -69.501c-4 -7.33301 -8.33301 -11 -13 -11c-3.33301 0 -7 1.66699 -11 5s-6 6.33301 -6 9zM674 162.998c-12 -28 -27.5 -54.167 -46.5 -78.5s-41.167 -45.166 -66.5 -62.499s-52.833 -30.5 -82.5 -39.5
s-60.834 -13.5 -93.501 -13.5s-63.334 4.5 -92.001 13.5s-55.667 22.167 -81 39.5s-47.666 38.166 -66.999 62.499s-35 50.5 -47 78.5c-0.666992 0 -1 1.66699 -1 5c0 4.66699 2 8.5 6 11.5s7.66699 4.5 11 4.5c4.66699 0 9 -3.33301 13 -10
c10.667 -27.333 24.5 -51.333 41.5 -72s37 -38.667 60 -54s47.833 -27.166 74.5 -35.499s54 -12.5 82 -12.5c30 0 58.333 4.16699 85 12.5s51.334 20.166 74.001 35.499s42.667 33.333 60 54s30.666 44.667 39.999 72c2.66699 6.66699 7.33398 10 14.001 10
c4 0 8 -1.5 12 -4.5s6 -6.83301 6 -11.5zM676 339.998c0 8 3 15 9 21s13.333 9 22 9c8 0 15.333 -3 22 -9s10 -13 10 -21v-99c0 -8.66699 -3 -16 -9 -22s-13.667 -9 -23 -9c-8.66699 0 -16 3 -22 9s-9 13.333 -9 22v99zM582 339.998c0 8 3.16699 15 9.5 21s13.5 9 21.5 9
c8.66699 0 16.334 -3 23.001 -9s10 -13 10 -21v-99c0 -8.66699 -3.33301 -16 -10 -22s-14.334 -9 -23.001 -9c-8 0 -15.167 3 -21.5 9s-9.5 13.333 -9.5 22v99zM98 288.998c0 8.66699 4.66699 13 14 13c8.66699 0 13 -4.33301 13 -13c0 -7.33301 -4.33301 -11 -13 -11
c-9.33301 0 -14 3.66699 -14 11zM127 339.998c0 8 3.16699 15 9.5 21s13.5 9 21.5 9s15.5 -3 22.5 -9s10.5 -13 10.5 -21v-99c0 -8.66699 -3.5 -16 -10.5 -22s-14.5 -9 -22.5 -9s-15.167 3 -21.5 9s-9.5 13.333 -9.5 22v99zM34 339.998c0 8 3.16699 15 9.5 21s13.5 9 21.5 9
c8.66699 0 16.167 -3 22.5 -9s9.5 -13 9.5 -21v-99c0 -8.66699 -3.16699 -16 -9.5 -22s-13.833 -9 -22.5 -9c-8 0 -15.167 3 -21.5 9s-9.5 13.333 -9.5 22v99zM452 471.998c17.333 16 36.666 24.001 57.999 24.001c20.667 0 39.167 -8.33301 55.5 -25
s24.5 -35.334 24.5 -56.001c0 -22 -7.33301 -41 -22 -57l-68 -69l68 -66c14.667 -16.667 22 -35.334 22 -56.001c0 -22.667 -8.16699 -42.167 -24.5 -58.5s-34.833 -24.5 -55.5 -24.5c-21.333 0 -40.666 8.33301 -57.999 25l-67 66l-65 -66
c-17.333 -16.667 -36.333 -25 -57 -25c-22 0 -41 8.16699 -57 24.5s-24 35.833 -24 58.5c0 21.333 8 40 24 56l66 66l-66 69c-16 14.667 -24 33.667 -24 57c0 20.667 8 39.334 24 56.001s35 25 57 25c20.667 0 39.667 -8 57 -24l65 -68z" />
    <glyph glyph-name="registered" unicode="&#xae;" horiz-adv-x="797" 
d="M682 394c0 -125.333 -23.667 -222.335 -71 -291.002c-51.333 -76 -122.333 -114 -213 -114c-44.667 0 -84.167 9.83301 -118.5 29.5s-63.5 47.834 -87.5 84.501c-24 35.333 -42.333 77.333 -55 126s-19 103.667 -19 165c0 62 6.33301 117.5 19 166.5s31 90.833 55 125.5
c24 36 53.167 63.833 87.5 83.5s73.833 29.5 118.5 29.5c90 0 161 -37.667 213 -113c47.333 -69.333 71 -166.666 71 -291.999zM616 393.998c0 228.667 -72.667 343 -218 343c-142 0 -213 -114.333 -213 -343c0 -227.333 71 -341 213 -341c145.333 0 218 113.667 218 341z
M432 487.998c0 40 -12 60 -36 60h-17v-121h15c25.333 0 38 20.333 38 61zM475 169.998l-8 0.000976562c-10 0 -18.333 2.83301 -25 8.5s-10.667 12.834 -12 21.501l-29 162h-22v-154c0 -10.667 -3.5 -19.667 -10.5 -27s-15.833 -11 -26.5 -11h-11
c-9.33301 0 -17.666 3.66699 -24.999 11s-11 16.333 -11 27v374c0 9.33301 3.66699 17.666 11 24.999s15.666 11 24.999 11h79c38.667 0 66.167 -10.333 82.5 -31s24.5 -52.334 24.5 -95.001c0 -49.333 -14 -85 -42 -107l37 -169v-8c0 -10 -3.33301 -18.833 -10 -26.5
s-15.667 -11.5 -27 -11.5z" />
    <glyph glyph-name="macron" unicode="&#xaf;" horiz-adv-x="316" 
d="M271 696c0 -9.33301 -3.5 -17.666 -10.5 -24.999s-15.833 -11 -26.5 -11h-152c-10 0 -18.5 3.66699 -25.5 11s-10.5 15.666 -10.5 24.999v16c0 9.33301 3.5 17.666 10.5 24.999s15.5 11 25.5 11h152c10.667 0 19.5 -3.66699 26.5 -11s10.5 -15.666 10.5 -24.999v-16z" />
    <glyph glyph-name="degree" unicode="&#xb0;" horiz-adv-x="329" 
d="M307 640c0 -22 -3.5 -42.833 -10.5 -62.5s-17.167 -36.667 -30.5 -51s-28.666 -25.666 -45.999 -33.999s-36 -12.5 -56 -12.5s-38.5 4.16699 -55.5 12.5s-32 19.666 -45 33.999s-23 31.333 -30 51s-10.5 40.5 -10.5 62.5s3.5 42.833 10.5 62.5s17 36.834 30 51.501
s28 26 45 34s35.5 12 55.5 12s38.667 -4 56 -12s32.666 -19.333 45.999 -34s23.5 -31.834 30.5 -51.501s10.5 -40.5 10.5 -62.5zM240 640c0 10.667 -2 20.5 -6 29.5s-9.66699 17 -17 24s-15.5 12.833 -24.5 17.5s-18.5 7 -28.5 7s-19.667 -2.33301 -29 -7
s-17.333 -10.5 -24 -17.5s-11.834 -15 -15.501 -24s-5.5 -18.833 -5.5 -29.5c0 -10 1.83301 -19.833 5.5 -29.5s8.83398 -18 15.501 -25s14.667 -12.5 24 -16.5s19 -6 29 -6s19.5 2 28.5 6s17.167 9.5 24.5 16.5s13 15.333 17 25s6 19.5 6 29.5z" />
    <glyph glyph-name="plusminus" unicode="&#xb1;" horiz-adv-x="406" 
d="M370 332c0 -9.33301 -3.66699 -17.666 -11 -24.999s-16.333 -11 -27 -11h-69v-90c0 -9.33301 -3.66699 -17.666 -11 -24.999s-16 -11 -26 -11h-47c-10.667 0 -19.5 3.66699 -26.5 11s-10.5 15.666 -10.5 24.999v90h-70c-10.667 0 -19.5 3.66699 -26.5 11
s-10.5 15.666 -10.5 24.999v68c0 10 3.5 18.667 10.5 26s15.833 11 26.5 11h70v89c0 10 3.5 18.667 10.5 26s15.833 11 26.5 11h47c10 0 18.667 -3.66699 26 -11s11 -16 11 -26v-89h69c10.667 0 19.667 -3.66699 27 -11s11 -16 11 -26v-68zM369 37
c0 -9.33301 -3.66699 -17.666 -11 -24.999s-16.333 -11 -27 -11h-260c-9.33301 0 -17.666 3.66699 -24.999 11s-11 15.666 -11 24.999v51c0 10 3.66699 18.667 11 26s15.666 11 24.999 11h260c10.667 0 19.667 -3.66699 27 -11s11 -16 11 -26v-51z" />
    <glyph glyph-name="twosuperior" unicode="&#xb2;" horiz-adv-x="235" 
d="M180.493 718.77c0 -10.6318 -1.25586 -21.1104 -3.77246 -31.4473c-2.51562 -10.3369 -5.77148 -20.2305 -9.7666 -29.6807c-3.99609 -9.4502 -8.50977 -18.7529 -13.541 -27.9082c-5.03223 -9.15527 -10.0645 -17.8672 -15.0967 -26.1357
c-0.887695 -1.77246 -1.99707 -3.54492 -3.3291 -5.31738s-2.29395 -3.39648 -2.88574 -4.87305c-5.03223 -8.56445 -9.32422 -16.4648 -12.876 -23.7002s-6.58496 -14.1758 -9.10059 -20.8213c-2.5166 -6.64551 -4.81055 -13.29 -6.88184 -19.9346
c-2.07129 -6.64551 -3.99512 -13.9551 -5.77148 -21.9287h58.6035c4.44043 0 8.28809 -1.55078 11.5439 -4.65234c3.25586 -3.10059 4.88379 -7.01367 4.88379 -11.7393v-29.6807c0 -4.13379 -1.62793 -7.8252 -4.88379 -11.0742s-7.10352 -4.87305 -11.5439 -4.87305
h-111.88c-3.84766 0 -7.47363 1.3291 -10.877 3.9873c-3.4043 2.65723 -5.10645 6.34863 -5.10645 11.0742c0.887695 12.6992 2.88574 25.7676 5.99414 39.2051c3.10742 13.4375 6.80664 26.7275 11.0986 39.8691c4.29199 13.1426 9.39746 26.0635 15.3164 38.7627
c5.91895 12.6982 12.2822 25.1016 19.0898 37.21c2.66309 5.02051 5.32715 9.4502 7.99121 13.2891s5.03223 7.53027 7.10352 11.0742l11.9873 20.8213c3.55176 5.90625 6.51172 11.8125 8.87988 17.7197c2.36719 5.90625 4.14258 12.1084 5.32715 18.6055
s1.77637 14.0283 1.77637 22.5928c0 7.08789 -1.77637 12.2559 -5.32812 15.5049s-7.69531 4.87305 -12.4307 4.87305s-9.1748 -1.62402 -13.3184 -4.87305s-6.21582 -8.41699 -6.21582 -15.5049v-19.4922c0 -4.42969 -1.55371 -8.19531 -4.66211 -11.2959
c-3.10742 -3.10059 -7.0293 -4.65137 -11.7646 -4.65137h-22.6426c-4.73535 0 -8.58301 1.55078 -11.543 4.65137s-4.43945 6.86621 -4.43945 11.2959v27.0234c0 8.56445 1.84961 17.2764 5.54883 26.1357c3.7002 8.86035 8.80566 16.7607 15.3174 23.7012
s14.1328 12.4775 22.8643 16.6123s18.4248 6.20215 29.0801 6.20215c12.4307 0 23.5303 -1.99316 33.2979 -5.98047s17.833 -9.45117 24.1963 -16.3916s11.2471 -15.4316 14.6514 -25.4736c3.40332 -10.041 5.10547 -20.9678 5.10547 -32.7812z" />
    <glyph glyph-name="threesuperior" unicode="&#xb3;" horiz-adv-x="240" 
d="M173.39 509.234c0 -8.86035 -1.84961 -17.3516 -5.5498 -25.4736c-3.7002 -8.12109 -8.73145 -15.4307 -15.0947 -21.9277c-6.36426 -6.49707 -13.9854 -11.7393 -22.8643 -15.7266c-8.87988 -3.9873 -18.499 -5.98047 -28.8584 -5.98047
s-19.9785 1.99316 -28.8584 5.98047c-8.87891 3.9873 -16.5742 9.22949 -23.0859 15.7266s-11.5439 13.8066 -15.0957 21.9277c-3.55176 8.12207 -5.32715 16.6133 -5.32715 25.4736v15.5039c0 4.72559 1.62793 8.63867 4.88379 11.7402
c3.25586 3.10059 6.95605 4.65137 11.0996 4.65137h25.75c4.43945 0 8.28711 -1.55078 11.543 -4.65137c3.25586 -3.10156 4.88379 -7.01465 4.88379 -11.7402v-13.7324c0 -3.24902 1.40625 -5.75977 4.21777 -7.53223c2.81152 -1.77148 6.1416 -2.65723 9.98926 -2.65723
s7.3252 0.885742 10.4336 2.65723c3.10742 1.77246 4.66113 4.2832 4.66113 7.53223v76.6377c0 2.6582 -1.55371 4.94727 -4.66113 6.86621c-3.1084 1.91992 -6.58594 2.87988 -10.4336 2.87988h-10.2119c-4.14355 0 -7.84277 1.62402 -11.0986 4.87305
s-4.88379 6.94043 -4.88379 11.0752v16.833c0 4.72559 1.62793 8.63867 4.88379 11.7393s6.95508 4.65137 11.0986 4.65137h10.2119c3.84766 0 7.3252 1.03418 10.4336 3.10156c3.10742 2.06738 4.66113 4.72559 4.66113 7.97461v71.3223
c0 3.54395 -1.55371 6.20215 -4.66113 7.97461c-3.1084 1.77246 -6.58594 2.6582 -10.4336 2.6582s-7.17773 -0.885742 -9.98926 -2.6582s-4.21777 -4.43066 -4.21777 -7.97461v-13.7334c0 -4.42969 -1.62793 -8.19531 -4.88379 -11.2959
s-7.10352 -4.65137 -11.543 -4.65137h-25.75c-4.14355 0 -7.84375 1.55078 -11.0996 4.65137s-4.88379 6.86621 -4.88379 11.2959v15.9482c0 8.85938 1.77539 17.3496 5.32715 25.4717s8.58398 15.4316 15.0957 21.9287s14.207 11.5918 23.0859 15.2842
c8.87988 3.69141 18.499 5.53711 28.8584 5.53711s19.9785 -1.8457 28.8584 -5.53711c8.87891 -3.69238 16.5 -8.78711 22.8643 -15.2842c6.36328 -6.49707 11.3945 -13.8066 15.0947 -21.9287s5.5498 -16.6123 5.5498 -25.4717v-71.3223
c0 -3.24902 -0.517578 -6.94043 -1.55371 -11.0742c-1.03613 -4.13477 -2.44238 -7.97461 -4.21777 -11.5186c-1.77637 -3.54395 -4.07031 -6.64453 -6.88184 -9.30273s-6.28906 -4.57812 -10.4326 -5.75879c4.14355 -1.77246 7.62109 -3.9873 10.4326 -6.64453
c2.81152 -2.6582 5.10547 -5.75879 6.88184 -9.30273c1.77539 -3.54395 3.18164 -7.30957 4.21777 -11.2969s1.55371 -7.75293 1.55371 -11.2969v-74.4229z" />
    <glyph glyph-name="acute" unicode="&#xb4;" horiz-adv-x="181" 
d="M62 773c3.33301 6 6.83301 10.5 10.5 13.5s10.167 4.5 19.5 4.5h40c15.333 0 26 -3 32 -9s9 -13 9 -21s-2.33301 -15 -7 -21l-63 -67c-8.66699 -9.33301 -15.667 -14 -21 -14h-35c-10.667 0 -18.167 2.33301 -22.5 7s-4.83301 10.667 -1.5 18z" />
    <glyph glyph-name="mu" unicode="&#xb5;" horiz-adv-x="385" 
d="M348 36c0 -9.33301 -3.33496 -17.667 -10.002 -25s-15.667 -11 -27 -11h-63c-8 0 -12.333 3.66699 -13 11l-5 14h-7c-9.33301 -10 -22.166 -18.5 -38.499 -25.5s-33.166 -10.5 -50.499 -10.5c-13.333 0 -26.166 2.5 -38.499 7.5s-23 11.5 -32 19.5s-16.167 18 -21.5 30
s-8 26.333 -8 43v457c0 10.667 3.5 19.334 10.5 26.001s15.5 10 25.5 10h51c11.333 0 20.333 -3.33301 27 -10s10 -15.334 10 -26.001v-413c0 -9.33301 3.33301 -16.5 10 -21.5s14.667 -7.5 24 -7.5c8.66699 0 16 2.5 22 7.5s9 12.167 9 21.5v413
c0 10.667 3.66699 19.334 11 26.001s15.666 10 24.999 10h52c11.333 0 20.333 -3.33301 27 -10s10 -15.334 10 -26.001v-510zM158.998 -169.001c0 -9.33301 -3.66699 -17.666 -11 -24.999s-16 -11 -26 -11h-52c-9.33301 0 -17.666 3.66699 -24.999 11s-11 15.666 -11 24.999
v510c0 10.667 3.66699 19.334 11 26.001s15.666 10 24.999 10h52c10 0 18.667 -3.33301 26 -10s11 -15.334 11 -26.001v-510z" />
    <glyph glyph-name="mu" unicode="&#x3bc;" horiz-adv-x="385" 
d="M348 36c0 -9.33301 -3.33496 -17.667 -10.002 -25s-15.667 -11 -27 -11h-63c-8 0 -12.333 3.66699 -13 11l-5 14h-7c-9.33301 -10 -22.166 -18.5 -38.499 -25.5s-33.166 -10.5 -50.499 -10.5c-13.333 0 -26.166 2.5 -38.499 7.5s-23 11.5 -32 19.5s-16.167 18 -21.5 30
s-8 26.333 -8 43v457c0 10.667 3.5 19.334 10.5 26.001s15.5 10 25.5 10h51c11.333 0 20.333 -3.33301 27 -10s10 -15.334 10 -26.001v-413c0 -9.33301 3.33301 -16.5 10 -21.5s14.667 -7.5 24 -7.5c8.66699 0 16 2.5 22 7.5s9 12.167 9 21.5v413
c0 10.667 3.66699 19.334 11 26.001s15.666 10 24.999 10h52c11.333 0 20.333 -3.33301 27 -10s10 -15.334 10 -26.001v-510zM158.998 -169.001c0 -9.33301 -3.66699 -17.666 -11 -24.999s-16 -11 -26 -11h-52c-9.33301 0 -17.666 3.66699 -24.999 11s-11 15.666 -11 24.999
v510c0 10.667 3.66699 19.334 11 26.001s15.666 10 24.999 10h52c10 0 18.667 -3.33301 26 -10s11 -15.334 11 -26.001v-510z" />
    <glyph glyph-name="paragraph" unicode="&#xb6;" horiz-adv-x="553" 
d="M481 -138l-18.001 0.000976562c-9.33301 0 -17.666 3.66699 -24.999 11s-11 16 -11 26v757c0 11.333 -3.5 20.5 -10.5 27.5s-15.833 10.5 -26.5 10.5c-11.333 0 -20.5 -3.5 -27.5 -10.5s-10.5 -16.167 -10.5 -27.5v-757c0 -10 -3.66699 -18.667 -11 -26
s-16.333 -11 -27 -11h-16c-10.667 0 -19.334 3.66699 -26.001 11s-10 16 -10 26v455h-18c-26 0 -51 4.66699 -75 14s-45.5 23.166 -64.5 41.499s-34.5 41 -46.5 68s-18 58.5 -18 94.5c0 70 17.333 124 52 162c9.33301 9.33301 20.5 17.5 33.5 24.5s27 12.667 42 17
s29.833 7.83301 44.5 10.5s28.334 4 41.001 4h228c10 0 18.5 -3.66699 25.5 -11s10.5 -16.333 10.5 -27v-853c0 -10 -3.5 -18.667 -10.5 -26s-15.5 -11 -25.5 -11z" />
    <glyph glyph-name="periodcentered" unicode="&#xb7;" 
d="M162 382c0 -9.33301 -3.66699 -17.666 -11 -24.999s-16 -11 -26 -11h-52c-9.33301 0 -17.666 3.66699 -24.999 11s-11 15.666 -11 24.999v83c0 10 3.66699 18.667 11 26s15.666 11 24.999 11h52c10 0 18.667 -3.66699 26 -11s11 -16 11 -26v-83z" />
    <glyph glyph-name="cedilla" unicode="&#xb8;" horiz-adv-x="190" 
d="M156 -140c0 -20 -5.16602 -36 -15.499 -48s-24.833 -18 -43.5 -18c-16.667 0 -30.334 6 -41.001 18s-16 28 -16 48c0 5.33301 1.5 10 4.5 14s7.83301 6 14.5 6h3c6.66699 0 11.667 -2 15 -6s5 -8.66699 5 -14v-15c0 -4 1.5 -7 4.5 -9s6.5 -3 10.5 -3s7.66699 1 11 3
s5 5 5 9v75c0 2.66699 -1.66699 5.33398 -5 8.00098s-7 4 -11 4c-6 0 -10.333 -2.66699 -13 -8c-0.666992 -2.66699 -2.66699 -4 -6 -4l-19 1c-6.66699 0 -11.5 2 -14.5 6s-4.5 9 -4.5 15l3 76h45l-4 -56h6c4.66699 4 9.5 6.16699 14.5 6.5s9.83301 0.5 14.5 0.5
c10 0 18.667 -3.83301 26 -11.5s11 -18.834 11 -33.501v-64z" />
    <glyph glyph-name="onesuperior" unicode="&#xb9;" horiz-adv-x="208" 
d="M118.781 460.947c0 -4.13379 -1.62695 -7.8252 -4.88281 -11.0742s-7.10352 -4.87305 -11.543 -4.87305h-28.4141c-4.73535 0 -8.65723 1.62402 -11.7656 4.87305c-3.10742 3.24902 -4.66113 6.94043 -4.66113 11.0742v244.09h-16.4277
c-4.43945 0 -8.21289 1.55078 -11.3203 4.65137c-3.1084 3.10059 -4.66211 7.01367 -4.66211 11.7393v8.85938c0 4.13477 1.18359 7.60547 3.55176 10.4111s5.62402 5.09473 9.76758 6.86719c14.5029 6.20215 24.418 17.1289 29.7461 32.7812
c1.77539 4.42969 4.06934 8.04785 6.88086 10.8535s6.58496 4.20801 11.3203 4.20801h15.9834c4.43945 0 8.28711 -1.62402 11.543 -4.87207c3.25586 -3.24902 4.88379 -7.08887 4.88379 -11.5195v-318.069z" />
    <glyph glyph-name="ordmasculine" unicode="&#xba;" horiz-adv-x="210" 
d="M180.803 513.683c0 -8.56738 -1.92285 -17.2822 -5.76758 -26.1445s-9.16797 -16.8379 -15.9697 -23.9277s-14.6387 -12.7764 -23.5107 -17.0605c-8.87207 -4.2832 -18.6309 -6.4248 -29.2773 -6.4248s-20.4062 2.1416 -29.2783 6.4248
c-8.87207 4.28418 -16.6348 9.9707 -23.2891 17.0605s-11.9775 15.0654 -15.9697 23.9277s-5.98828 17.5771 -5.98828 26.1445v213.139c0 8.56738 1.99609 17.2822 5.98828 26.1445s9.31543 16.7646 15.9697 23.707s14.417 12.4814 23.2891 16.6172
s18.6318 6.20312 29.2783 6.20312s20.4053 -2.06738 29.2773 -6.20312s16.709 -9.6748 23.5107 -16.6172s12.125 -14.8447 15.9697 -23.707s5.76758 -17.5771 5.76758 -26.1445v-213.139zM120.916 729.037c0 3.54492 -1.33105 6.20312 -3.99219 7.97559
s-6.20996 2.65918 -10.6465 2.65918c-4.14062 0 -7.54199 -0.886719 -10.2031 -2.65918s-3.99219 -4.43066 -3.99219 -7.97559v-218.013c0 -3.24902 1.33105 -5.75977 3.99219 -7.53223s6.0625 -2.65918 10.2031 -2.65918c4.43652 0 7.98535 0.886719 10.6465 2.65918
s3.99219 4.2832 3.99219 7.53223v218.013z" />
    <glyph glyph-name="guillemotright" unicode="&#xbb;" horiz-adv-x="496" 
d="M109 282c0.666992 2.66699 1 6.00098 1 10.001c0 4.66699 -0.333008 7.66699 -1 9l-69 235v10c0 9.33301 3.33301 17.666 10 24.999s15.334 11 26.001 11h67c8.66699 0 16.167 -2.33301 22.5 -7s10.833 -10.667 13.5 -18l71 -256c1.33301 -1.33301 2 -4.33301 2 -9
c0 -4 -0.666992 -7.33301 -2 -10l-71 -256c-2.66699 -8 -7.16699 -14.333 -13.5 -19s-13.833 -7 -22.5 -7h-67c-10.667 -0 -19.334 3.83301 -26.001 11.5s-10 16.167 -10 25.5v10zM323 282.001c0.666992 2.66699 1 6.00098 1 10.001c0 4.66699 -0.333008 7.66699 -1 9
l-69 235c-0.666992 4 -1 7.33301 -1 10c0 9.33301 3.5 17.666 10.5 24.999s15.833 11 26.5 11h68c8 0 15.167 -2.33301 21.5 -7s11.166 -10.667 14.499 -18l70 -256c2 -1.33301 3 -4.33301 3 -9c0 -4 -1 -7.33301 -3 -10l-70 -256c-3.33301 -8 -8.16602 -14.333 -14.499 -19
s-13.5 -7 -21.5 -7h-68c-10.667 0 -19.5 3.83301 -26.5 11.5s-10.5 16.167 -10.5 25.5c0 2 0.333008 5.33301 1 10z" />
    <glyph glyph-name="onequarter" unicode="&#xbc;" horiz-adv-x="827" 
d="M534 791c10.667 0 19.333 -3.83301 26 -11.5s10 -15.834 10 -24.501c0 -6.66699 -0.666992 -12 -2 -16l-334 -717c-7.33301 -14.667 -19 -22 -35 -22h-39c-11.333 0 -20.5 3.83301 -27.5 11.5s-10.5 15.834 -10.5 24.501c0 6.66699 1.33301 12 4 16l334 717
c5.33301 14.667 16 22 32 22h42zM160.999 273c0 -6.66699 -2.5 -12.5 -7.5 -17.5s-10.833 -7.5 -17.5 -7.5h-44c-7.33301 0 -13.5 2.5 -18.5 7.5s-7.5 10.833 -7.5 17.5v378h-25c-7.33301 0 -13.333 2.33301 -18 7s-7 10.667 -7 18v14c0 6.66699 1.83301 12.167 5.5 16.5
s8.83398 7.83301 15.501 10.5c22 9.33301 37.333 26.333 46 51c2.66699 6.66699 6.16699 12.167 10.5 16.5s10.166 6.5 17.499 6.5h25c6.66699 0 12.5 -2.5 17.5 -7.5s7.5 -10.833 7.5 -17.5v-493zM587.999 280h-5l-37 -103h42v103zM703.999 113c0 -6 -2.5 -11.667 -7.5 -17
s-11.167 -8 -18.5 -8h-4v-63c0 -6.66699 -2.5 -12.5 -7.5 -17.5s-10.833 -7.5 -17.5 -7.5h-36c-6.66699 0 -12.5 2.5 -17.5 7.5s-7.5 10.833 -7.5 17.5v63h-108c-6.66699 0 -12.5 2.66699 -17.5 8s-7.5 11 -7.5 17v53l137 363c4.66699 11.333 13 17 25 17h32
c6.66699 0 12.5 -2.5 17.5 -7.5s7.5 -11.167 7.5 -18.5v-343h4c7.33301 0 13.5 -2.5 18.5 -7.5s7.5 -10.833 7.5 -17.5v-39z" />
    <glyph glyph-name="onehalf" unicode="&#xbd;" horiz-adv-x="860" 
d="M534 791c10.667 0 19.333 -3.83301 26 -11.5s10 -15.834 10 -24.501c0 -6.66699 -0.666992 -12 -2 -16l-334 -717c-7.33301 -14.667 -19 -22 -35 -22h-39c-11.333 0 -20.5 3.83301 -27.5 11.5s-10.5 15.834 -10.5 24.501c0 6.66699 1.33301 12 4 16l334 717
c5.33301 14.667 16 22 32 22h42zM160.999 273c0 -6.66699 -2.5 -12.5 -7.5 -17.5s-10.833 -7.5 -17.5 -7.5h-44c-7.33301 0 -13.5 2.5 -18.5 7.5s-7.5 10.833 -7.5 17.5v378h-25c-7.33301 0 -13.333 2.33301 -18 7s-7 10.667 -7 18v14c0 6.66699 1.83301 12.167 5.5 16.5
s8.83398 7.83301 15.501 10.5c22 9.33301 37.333 26.333 46 51c2.66699 6.66699 6.16699 12.167 10.5 16.5s10.166 6.5 17.499 6.5h25c6.66699 0 12.5 -2.5 17.5 -7.5s7.5 -10.833 7.5 -17.5v-493zM740.999 426c0 -16 -2.00098 -32.166 -6.00098 -48.499
s-9.16699 -31.833 -15.5 -46.5s-13.333 -29.167 -21 -43.5s-15.5 -27.833 -23.5 -40.5c-1.33301 -2.66699 -3 -5.33398 -5 -8.00098s-3.66699 -5.33398 -5 -8.00098c-7.33301 -13.333 -13.833 -25.666 -19.5 -36.999s-10.5 -22.166 -14.5 -32.499
s-7.5 -20.666 -10.5 -30.999s-5.83301 -21.5 -8.5 -33.5h91c6.66699 0 12.5 -2.5 17.5 -7.5s7.5 -11.167 7.5 -18.5v-46c0 -6.66699 -2.5 -12.5 -7.5 -17.5s-10.833 -7.5 -17.5 -7.5h-174c-6 0 -11.667 2 -17 6s-8 9.66699 -8 17c1.33301 20 4.33301 40.5 9 61.5
s10.334 41.667 17.001 62s14.667 40.5 24 60.5s19.333 39.333 30 58c4 8 8.16699 15 12.5 21s7.83301 11.667 10.5 17l19 32.5c5.33301 9 9.83301 18.167 13.5 27.5s6.5 19 8.5 29s3 21.667 3 35c0 11.333 -2.83301 19.5 -8.5 24.5s-12.167 7.5 -19.5 7.5
s-14.166 -2.5 -20.499 -7.5s-9.5 -13.167 -9.5 -24.5v-30c0 -7.33301 -2.5 -13.333 -7.5 -18s-11.167 -7 -18.5 -7h-35c-7.33301 0 -13.333 2.33301 -18 7s-7 10.667 -7 18v42c0 13.333 3 26.833 9 40.5s14 26 24 37s21.833 19.667 35.5 26s28.5 9.5 44.5 9.5
c19.333 0 36.666 -3.16699 51.999 -9.5s28 -14.833 38 -25.5s17.667 -23.834 23 -39.501s8 -32.834 8 -51.501z" />
    <glyph glyph-name="threequarters" unicode="&#xbe;" horiz-adv-x="784" 
d="M576 791c10.667 0 19.332 -3.83301 25.999 -11.5s10 -15.834 10 -24.501c0 -6.66699 -0.666992 -12 -2 -16l-334 -717c-7.33301 -14.667 -18.666 -22 -33.999 -22h-40c-11.333 0 -20.5 3.83301 -27.5 11.5s-10.5 15.834 -10.5 24.501c0 6.66699 1.33301 12 4 16l334 717
c5.33301 14.667 16 22 32 22h42zM587.998 280h-5l-37 -103h42v103zM703.998 113c0 -6 -2.5 -11.667 -7.5 -17s-11.167 -8 -18.5 -8h-4v-63c0 -6.66699 -2.5 -12.5 -7.5 -17.5s-10.833 -7.5 -17.5 -7.5h-36c-6.66699 0 -12.5 2.5 -17.5 7.5s-7.5 10.833 -7.5 17.5v63h-108
c-6.66699 0 -12.5 2.66699 -17.5 8s-7.5 11 -7.5 17v53l137 363c4.66699 11.333 13 17 25 17h32c6.66699 0 12.5 -2.5 17.5 -7.5s7.5 -11.167 7.5 -18.5v-343h4c7.33301 0 13.5 -2.5 18.5 -7.5s7.5 -10.833 7.5 -17.5v-39zM245.998 347
c0 -13.333 -2.83301 -26.334 -8.5 -39.001s-13.5 -24 -23.5 -34s-21.833 -18.167 -35.5 -24.5s-28.5 -9.5 -44.5 -9.5s-31 3.16699 -45 9.5s-26 14.5 -36 24.5s-17.667 21.333 -23 34s-8 25.667 -8 39v24c0 7.33301 2.5 13.5 7.5 18.5s10.5 7.5 16.5 7.5h40
c7.33301 0 13.5 -2.5 18.5 -7.5s7.5 -11.167 7.5 -18.5v-21c0 -4.66699 2.16699 -8.5 6.5 -11.5s9.5 -4.5 15.5 -4.5s11.333 1.5 16 4.5s7 6.83301 7 11.5v119c0 4 -2.33301 7.5 -7 10.5s-10 4.5 -16 4.5h-16c-6.66699 0 -12.5 2.5 -17.5 7.5s-7.5 10.833 -7.5 17.5v26
c0 7.33301 2.5 13.333 7.5 18s10.833 7 17.5 7h16c6 0 11.333 1.66699 16 5s7 7.33301 7 12v111c0 5.33301 -2.33301 9.33301 -7 12s-10 4 -16 4s-11.167 -1.33301 -15.5 -4s-6.5 -6.66699 -6.5 -12v-22c0 -6.66699 -2.5 -12.334 -7.5 -17.001s-11.167 -7 -18.5 -7h-40
c-6 0 -11.5 2.33301 -16.5 7s-7.5 10.334 -7.5 17.001v25c0 14 2.66699 27.167 8 39.5s13 23.666 23 33.999s22 18.333 36 24s29 8.5 45 8.5s30.833 -2.83301 44.5 -8.5s25.5 -13.667 35.5 -24s17.833 -21.666 23.5 -33.999s8.5 -25.5 8.5 -39.5v-110
c0 -5.33301 -0.833008 -11.166 -2.5 -17.499s-3.83398 -12.333 -6.50098 -18s-6.16699 -10.5 -10.5 -14.5s-9.83301 -7 -16.5 -9c6.66699 -2.66699 12.167 -6 16.5 -10s7.83301 -8.83301 10.5 -14.5s4.83398 -11.5 6.50098 -17.5s2.5 -11.667 2.5 -17v-116z" />
    <glyph glyph-name="questiondown" unicode="&#xbf;" horiz-adv-x="394" 
d="M133 566c0 10.667 3.66699 19.667 11 27s16 11 26 11h51c10 0 18.5 -3.66699 25.5 -11s10.5 -16.333 10.5 -27v-82c0 -11.333 -3.5 -20.5 -10.5 -27.5s-15.5 -10.5 -25.5 -10.5h-51c-10 0 -18.667 3.5 -26 10.5s-11 16.167 -11 27.5v82zM18 -11
c0 34.667 5.66797 69.501 17.001 104.501s27.333 68.5 48 100.5c10 15.333 18.333 29.5 25 42.5s11.334 25 14.001 36s4.66699 22.167 6 33.5s2.66602 24 3.99902 38c0.666992 12 4.16699 22.333 10.5 31s15.5 13 27.5 13h51c11.333 0 20.166 -4.5 26.499 -13.5
s9.5 -19.167 9.5 -30.5c0 -25.333 -1.16699 -48 -3.5 -68s-6.16602 -38.167 -11.499 -54.5s-12 -32.166 -20 -47.499s-17.667 -31.333 -29 -48c-15.333 -23.333 -27 -46.833 -35 -70.5s-12 -45.834 -12 -66.501c0 -37.333 8 -56 24 -56c11.333 0 20 4.5 26 13.5
s11 19.167 15 30.5s8.66699 21.833 14 31.5s13 14.5 23 14.5c4 0 7.33301 -0.333008 10 -1l49 -8c8.66699 -1.33301 15.667 -5.83301 21 -13.5s8 -16.167 8 -25.5c0 -4 -0.333008 -7.33301 -1 -10c-6.66699 -30 -14.5 -56 -23.5 -78s-20.333 -39.833 -34 -53.5
s-29.334 -23.667 -47.001 -30s-38.167 -9.5 -61.5 -9.5c-45.333 0 -81.833 16.167 -109.5 48.5s-41.5 81.166 -41.5 146.499z" />
    <glyph glyph-name="Agrave" unicode="&#xc0;" horiz-adv-x="386" 
d="M191 524h-9l-27 -260h53zM362 37c0 -10 -3.33203 -18.667 -9.99902 -26s-15.334 -11 -26.001 -11h-67c-9.33301 0 -17.5 3.16699 -24.5 9.5s-11.167 14.5 -12.5 24.5l-6 90h-74l-9 -92c-1.33301 -9.33301 -5.5 -17 -12.5 -23s-14.833 -9 -23.5 -9h-48
c-9.33301 0 -17.666 3.66699 -24.999 11s-11 16 -11 26v4l88 717c0.666992 9.33301 4.66699 17.166 12 23.499s15.666 9.5 24.999 9.5h98c10 0 18.333 -3.16699 25 -9.5s11 -14.166 13 -23.499zM259.001 880c2.66699 -7.33301 2.00098 -13.333 -1.99902 -18
s-11.333 -7 -22 -7h-35c-6 0 -13 4.66699 -21 14l-64 67c-4.66699 6 -7 13 -7 21s3.16699 15 9.5 21s17.166 9 32.499 9h38c10 0 17 -1.5 21 -4.5s7 -7.5 9 -13.5z" />
    <glyph glyph-name="Aacute" unicode="&#xc1;" horiz-adv-x="386" 
d="M191 524h-9l-27 -260h53zM362 37c0 -10 -3.33203 -18.667 -9.99902 -26s-15.334 -11 -26.001 -11h-67c-9.33301 0 -17.5 3.16699 -24.5 9.5s-11.167 14.5 -12.5 24.5l-6 90h-74l-9 -92c-1.33301 -9.33301 -5.5 -17 -12.5 -23s-14.833 -9 -23.5 -9h-48
c-9.33301 0 -17.666 3.66699 -24.999 11s-11 16 -11 26v4l88 717c0.666992 9.33301 4.66699 17.166 12 23.499s15.666 9.5 24.999 9.5h98c10 0 18.333 -3.16699 25 -9.5s11 -14.166 13 -23.499zM170.001 969c3.33301 6 6.83301 10.5 10.5 13.5s10.167 4.5 19.5 4.5h40
c15.333 0 26 -3 32 -9s9 -13 9 -21s-2.33301 -15 -7 -21l-63 -67c-8.66699 -9.33301 -15.667 -14 -21 -14h-35c-10.667 0 -18.167 2.33301 -22.5 7s-4.83301 10.667 -1.5 18z" />
    <glyph glyph-name="Acircumflex" unicode="&#xc2;" horiz-adv-x="386" 
d="M191 524h-9l-27 -260h53zM362 37c0 -10 -3.33203 -18.667 -9.99902 -26s-15.334 -11 -26.001 -11h-67c-9.33301 0 -17.5 3.16699 -24.5 9.5s-11.167 14.5 -12.5 24.5l-6 90h-74l-9 -92c-1.33301 -9.33301 -5.5 -17 -12.5 -23s-14.833 -9 -23.5 -9h-48
c-9.33301 0 -17.666 3.66699 -24.999 11s-11 16 -11 26v4l88 717c0.666992 9.33301 4.66699 17.166 12 23.499s15.666 9.5 24.999 9.5h98c10 0 18.333 -3.16699 25 -9.5s11 -14.166 13 -23.499zM119.001 969c5.33301 4.66699 10.333 8.83203 15 12.499s10.667 5.5 18 5.5h86
c6 0 11.167 -1.5 15.5 -4.5s9.16602 -7.5 14.499 -13.5l82 -79c3.33301 -2.66699 5 -6.66699 5 -12c0 -6 -2.5 -11.167 -7.5 -15.5s-10.167 -6.5 -15.5 -6.5h-52c-6 0 -12 2.66699 -18 8l-65 66h-6l-64 -66c-6 -5.33301 -12 -8 -18 -8h-52c-6.66699 0 -12 2.16699 -16 6.5
s-6 9.83301 -6 16.5c0 1.33301 0.333008 2.83301 1 4.5s1.33398 3.83398 2.00098 6.50098z" />
    <glyph glyph-name="Atilde" unicode="&#xc3;" horiz-adv-x="386" 
d="M191 524h-9l-27 -260h53zM362 37c0 -10 -3.33203 -18.667 -9.99902 -26s-15.334 -11 -26.001 -11h-67c-9.33301 0 -17.5 3.16699 -24.5 9.5s-11.167 14.5 -12.5 24.5l-6 90h-74l-9 -92c-1.33301 -9.33301 -5.5 -17 -12.5 -23s-14.833 -9 -23.5 -9h-48
c-9.33301 0 -17.666 3.66699 -24.999 11s-11 16 -11 26v4l88 717c0.666992 9.33301 4.66699 17.166 12 23.499s15.666 9.5 24.999 9.5h98c10 0 18.333 -3.16699 25 -9.5s11 -14.166 13 -23.499zM350.001 958c-6 -70.667 -35.666 -106.002 -88.999 -106.002
c-24.667 0 -51 9.66699 -79 29c-17.333 11.333 -29.666 17 -36.999 17c-10.667 0 -18.334 -2.16699 -23.001 -6.5s-8.33398 -9.16602 -11.001 -14.499s-5.5 -10.166 -8.5 -14.499s-8.16699 -6.5 -15.5 -6.5h-32c-6.66699 0 -11.5 2.33301 -14.5 7s-4.5 10.334 -4.5 17.001v4
c5.33301 69.333 35 104 89 104c13.333 0 26.333 -2.33301 39 -7s26.334 -12 41.001 -22c8 -4.66699 15.167 -8.33398 21.5 -11.001s11.5 -4 15.5 -4c10 0 17.167 2.16699 21.5 6.5s8 9.33301 11 15s6.16699 10.667 9.5 15s7.66602 6.5 12.999 6.5h34
c6.66699 0 11.5 -2.5 14.5 -7.5s4.5 -10.833 4.5 -17.5v-4z" />
    <glyph glyph-name="Adieresis" unicode="&#xc4;" horiz-adv-x="386" 
d="M191 524h-9l-27 -260h53zM362 37c0 -10 -3.33203 -18.667 -9.99902 -26s-15.334 -11 -26.001 -11h-67c-9.33301 0 -17.5 3.16699 -24.5 9.5s-11.167 14.5 -12.5 24.5l-6 90h-74l-9 -92c-1.33301 -9.33301 -5.5 -17 -12.5 -23s-14.833 -9 -23.5 -9h-48
c-9.33301 0 -17.666 3.66699 -24.999 11s-11 16 -11 26v4l88 717c0.666992 9.33301 4.66699 17.166 12 23.499s15.666 9.5 24.999 9.5h98c10 0 18.333 -3.16699 25 -9.5s11 -14.166 13 -23.499zM357.001 891c0 -10 -3.5 -18.5 -10.5 -25.5s-15.833 -10.5 -26.5 -10.5h-51
c-10 0 -18.5 3.5 -25.5 10.5s-10.5 15.5 -10.5 25.5v59c0 10 3.5 18.667 10.5 26s15.5 11 25.5 11h51c10.667 0 19.5 -3.66699 26.5 -11s10.5 -16 10.5 -26v-59zM157.001 891c0 -10 -3.66699 -18.5 -11 -25.5s-16 -10.5 -26 -10.5h-51c-10 0 -18.667 3.5 -26 10.5
s-11 15.5 -11 25.5v59c0 10 3.66699 18.667 11 26s16 11 26 11h51c10 0 18.667 -3.66699 26 -11s11 -16 11 -26v-59z" />
    <glyph glyph-name="Aring" unicode="&#xc5;" horiz-adv-x="386" 
d="M191 524h-9l-27 -260h53zM362 37c0 -10 -3.33203 -18.667 -9.99902 -26s-15.334 -11 -26.001 -11h-67c-9.33301 0 -17.5 3.16699 -24.5 9.5s-11.167 14.5 -12.5 24.5l-6 90h-74l-9 -92c-1.33301 -9.33301 -5.5 -17 -12.5 -23s-14.833 -9 -23.5 -9h-48
c-9.33301 0 -17.666 3.66699 -24.999 11s-11 16 -11 26v4l88 717c0.666992 9.33301 4.66699 17.166 12 23.499s15.666 9.5 24.999 9.5h98c10 0 18.333 -3.16699 25 -9.5s11 -14.166 13 -23.499zM146.001 941c0 -12.667 4.33301 -23.667 13 -33s20 -14 34 -14
c12.667 0 23.334 4.66699 32.001 14s13 20.333 13 33s-4.33301 23.667 -13 33s-19.334 14 -32.001 14c-14 0 -25.333 -4.66699 -34 -14s-13 -20.333 -13 -33zM105.001 941c0 12 2.5 23.5 7.5 34.5s11.5 20.5 19.5 28.5s17 14.333 27 19s21.333 7 34 7
c11.333 0 22.5 -2.33301 33.5 -7s20.5 -11 28.5 -19s14.167 -17.5 18.5 -28.5s6.5 -22.5 6.5 -34.5c0 -12.667 -2.16699 -24 -6.5 -34s-10.5 -19 -18.5 -27s-17.5 -14.333 -28.5 -19s-22.167 -7 -33.5 -7c-12.667 0 -24 2.33301 -34 7s-19 11 -27 19s-14.5 17 -19.5 27
s-7.5 21.333 -7.5 34z" />
    <glyph glyph-name="AE" unicode="&#xc6;" horiz-adv-x="527" 
d="M224 578h-8c-7.33301 -52.667 -15.333 -105 -24 -157s-16.667 -104.333 -24 -157h56v314zM503 36c0 -9.33301 -3.66797 -17.665 -11.001 -24.998s-16 -11 -26 -11h-204c-10.667 0 -19.667 3.66699 -27 11s-11 15.666 -11 24.999v88h-76l-15 -93
c-1.33301 -8.66699 -5.16602 -16 -11.499 -22s-14.5 -9 -24.5 -9h-45c-10.667 0 -19.667 3.66699 -27 11s-11 15.666 -11 24.999c0 2.66699 0.666992 5 2 7l122 717c1.33301 9.33301 5.5 16.833 12.5 22.5s15.167 8.5 24.5 8.5h291c10 0 18.667 -3.66699 26 -11
s11 -16 11 -26v-57c0 -10 -3.66699 -18.5 -11 -25.5s-16 -10.5 -26 -10.5h-105v-181h57c10 0 18.667 -3.33301 26 -10s11 -15.667 11 -27v-66c0 -10.667 -3.66699 -19.5 -11 -26.5s-16 -10.5 -26 -10.5h-57v-200h105c10 0 18.667 -3.5 26 -10.5s11 -15.833 11 -26.5v-67z
" />
    <glyph glyph-name="Ccedilla" unicode="&#xc7;" horiz-adv-x="401" 
d="M370 145c0 -20 -4.5 -39.167 -13.5 -57.5s-20.833 -34.833 -35.5 -49.5s-32.5 -26.5 -53.5 -35.5s-42.833 -13.5 -65.5 -13.5c-23.333 0 -45.5 4.5 -66.5 13.5s-39 20.833 -54 35.5s-27.167 31.167 -36.5 49.5s-14 37.5 -14 57.5v501c0 20 4.66699 39.167 14 57.5
s21.5 34.833 36.5 49.5s33 26.167 54 34.5s43.167 12.5 66.5 12.5c22.667 0 44.5 -4.16699 65.5 -12.5s38.833 -19.833 53.5 -34.5s26.5 -31.167 35.5 -49.5s13.5 -37.5 13.5 -57.5v-100c0 -10.667 -3.66699 -19.5 -11 -26.5s-16.333 -10.5 -27 -10.5h-62
c-9.33301 0 -17.666 3.5 -24.999 10.5s-11 15.833 -11 26.5v95c0 8 -3 14 -9 18s-13.667 6 -23 6s-17 -2 -23 -6s-9 -10 -9 -18v-492c0 -7.33301 3 -13 9 -17s13.667 -6 23 -6s17 2 23 6s9 9.66699 9 17v96c0 10 3.66699 18.667 11 26s15.666 11 24.999 11h62
c10.667 0 19.667 -3.66699 27 -11s11 -16 11 -26v-100zM263 -140c0 -20 -5.16602 -36 -15.499 -48s-24.833 -18 -43.5 -18c-16.667 0 -30.334 6 -41.001 18s-16 28 -16 48c0 5.33301 1.5 10 4.5 14s7.83301 6 14.5 6h3c6.66699 0 11.667 -2 15 -6s5 -8.66699 5 -14v-15
c0 -4 1.5 -7 4.5 -9s6.5 -3 10.5 -3s7.66699 1 11 3s5 5 5 9v75c0 2.66699 -1.66699 5.33398 -5 8.00098s-7 4 -11 4c-6 0 -10.333 -2.66699 -13 -8c-0.666992 -2.66699 -2.66699 -4 -6 -4l-19 1c-6.66699 0 -11.5 2 -14.5 6s-4.5 9 -4.5 15l3 76h45l-4 -56h6
c4.66699 4 9.5 6.16699 14.5 6.5s9.83301 0.5 14.5 0.5c10 0 18.667 -3.83301 26 -11.5s11 -18.834 11 -33.501v-64z" />
    <glyph glyph-name="Egrave" unicode="&#xc8;" horiz-adv-x="338" 
d="M314 36c0 -9.33301 -3.5 -17.666 -10.5 -24.999s-15.833 -11 -26.5 -11h-204c-9.33301 0 -17.666 3.66699 -24.999 11s-11 15.666 -11 24.999v718c0 10 3.66699 18.667 11 26s15.666 11 24.999 11h204c10.667 0 19.5 -3.66699 26.5 -11s10.5 -16 10.5 -26v-57
c0 -10 -3.5 -18.5 -10.5 -25.5s-15.833 -10.5 -26.5 -10.5h-103v-181h54c11.333 0 20.333 -3.33301 27 -10s10 -15.667 10 -27v-66c0 -10.667 -3.33301 -19.5 -10 -26.5s-15.667 -10.5 -27 -10.5h-54v-200h103c10.667 0 19.5 -3.5 26.5 -10.5s10.5 -15.833 10.5 -26.5v-67z
M235 880c2.66699 -7.33301 2.00098 -13.333 -1.99902 -18s-11.333 -7 -22 -7h-35c-6 0 -13 4.66699 -21 14l-64 67c-4.66699 6 -7 13 -7 21s3.16699 15 9.5 21s17.166 9 32.499 9h38c10 0 17 -1.5 21 -4.5s7 -7.5 9 -13.5z" />
    <glyph glyph-name="Eacute" unicode="&#xc9;" horiz-adv-x="338" 
d="M314 36c0 -9.33301 -3.5 -17.666 -10.5 -24.999s-15.833 -11 -26.5 -11h-204c-9.33301 0 -17.666 3.66699 -24.999 11s-11 15.666 -11 24.999v718c0 10 3.66699 18.667 11 26s15.666 11 24.999 11h204c10.667 0 19.5 -3.66699 26.5 -11s10.5 -16 10.5 -26v-57
c0 -10 -3.5 -18.5 -10.5 -25.5s-15.833 -10.5 -26.5 -10.5h-103v-181h54c11.333 0 20.333 -3.33301 27 -10s10 -15.667 10 -27v-66c0 -10.667 -3.33301 -19.5 -10 -26.5s-15.667 -10.5 -27 -10.5h-54v-200h103c10.667 0 19.5 -3.5 26.5 -10.5s10.5 -15.833 10.5 -26.5v-67z
M146 969c3.33301 6 6.83301 10.5 10.5 13.5s10.167 4.5 19.5 4.5h40c15.333 0 26 -3 32 -9s9 -13 9 -21s-2.33301 -15 -7 -21l-63 -67c-8.66699 -9.33301 -15.667 -14 -21 -14h-35c-10.667 0 -18.167 2.33301 -22.5 7s-4.83301 10.667 -1.5 18z" />
    <glyph glyph-name="Ecircumflex" unicode="&#xca;" horiz-adv-x="338" 
d="M314 36c0 -9.33301 -3.5 -17.666 -10.5 -24.999s-15.833 -11 -26.5 -11h-204c-9.33301 0 -17.666 3.66699 -24.999 11s-11 15.666 -11 24.999v718c0 10 3.66699 18.667 11 26s15.666 11 24.999 11h204c10.667 0 19.5 -3.66699 26.5 -11s10.5 -16 10.5 -26v-57
c0 -10 -3.5 -18.5 -10.5 -25.5s-15.833 -10.5 -26.5 -10.5h-103v-181h54c11.333 0 20.333 -3.33301 27 -10s10 -15.667 10 -27v-66c0 -10.667 -3.33301 -19.5 -10 -26.5s-15.667 -10.5 -27 -10.5h-54v-200h103c10.667 0 19.5 -3.5 26.5 -10.5s10.5 -15.833 10.5 -26.5v-67z
M95 969c5.33301 4.66699 10.333 8.83203 15 12.499s10.667 5.5 18 5.5h86c6 0 11.167 -1.5 15.5 -4.5s9.16602 -7.5 14.499 -13.5l82 -79c3.33301 -2.66699 5 -6.66699 5 -12c0 -6 -2.5 -11.167 -7.5 -15.5s-10.167 -6.5 -15.5 -6.5h-52c-6 0 -12 2.66699 -18 8l-65 66h-6
l-64 -66c-6 -5.33301 -12 -8 -18 -8h-52c-6.66699 0 -12 2.16699 -16 6.5s-6 9.83301 -6 16.5c0 1.33301 0.333008 2.83301 1 4.5s1.33398 3.83398 2.00098 6.50098z" />
    <glyph glyph-name="Edieresis" unicode="&#xcb;" horiz-adv-x="338" 
d="M314 36c0 -9.33301 -3.5 -17.666 -10.5 -24.999s-15.833 -11 -26.5 -11h-204c-9.33301 0 -17.666 3.66699 -24.999 11s-11 15.666 -11 24.999v718c0 10 3.66699 18.667 11 26s15.666 11 24.999 11h204c10.667 0 19.5 -3.66699 26.5 -11s10.5 -16 10.5 -26v-57
c0 -10 -3.5 -18.5 -10.5 -25.5s-15.833 -10.5 -26.5 -10.5h-103v-181h54c11.333 0 20.333 -3.33301 27 -10s10 -15.667 10 -27v-66c0 -10.667 -3.33301 -19.5 -10 -26.5s-15.667 -10.5 -27 -10.5h-54v-200h103c10.667 0 19.5 -3.5 26.5 -10.5s10.5 -15.833 10.5 -26.5v-67z
M333 891c0 -10 -3.5 -18.5 -10.5 -25.5s-15.833 -10.5 -26.5 -10.5h-51c-10 0 -18.5 3.5 -25.5 10.5s-10.5 15.5 -10.5 25.5v59c0 10 3.5 18.667 10.5 26s15.5 11 25.5 11h51c10.667 0 19.5 -3.66699 26.5 -11s10.5 -16 10.5 -26v-59zM133 891
c0 -10 -3.66699 -18.5 -11 -25.5s-16 -10.5 -26 -10.5h-51c-10 0 -18.667 3.5 -26 10.5s-11 15.5 -11 25.5v59c0 10 3.66699 18.667 11 26s16 11 26 11h51c10 0 18.667 -3.66699 26 -11s11 -16 11 -26v-59z" />
    <glyph glyph-name="Igrave" unicode="&#xcc;" horiz-adv-x="223" 
d="M179 36c0 -9.33301 -3.5 -17.666 -10.5 -24.999s-15.833 -11 -26.5 -11h-63c-10 0 -18.5 3.66699 -25.5 11s-10.5 15.666 -10.5 24.999v718c0 10 3.5 18.667 10.5 26s15.5 11 25.5 11h63c10.667 0 19.5 -3.66699 26.5 -11s10.5 -16 10.5 -26v-718zM177 880
c2.66699 -7.33301 2.00098 -13.333 -1.99902 -18s-11.333 -7 -22 -7h-35c-6 0 -13 4.66699 -21 14l-64 67c-4.66699 6 -7 13 -7 21s3.16699 15 9.5 21s17.166 9 32.499 9h38c10 0 17 -1.5 21 -4.5s7 -7.5 9 -13.5z" />
    <glyph glyph-name="Iacute" unicode="&#xcd;" horiz-adv-x="223" 
d="M179 36c0 -9.33301 -3.5 -17.666 -10.5 -24.999s-15.833 -11 -26.5 -11h-63c-10 0 -18.5 3.66699 -25.5 11s-10.5 15.666 -10.5 24.999v718c0 10 3.5 18.667 10.5 26s15.5 11 25.5 11h63c10.667 0 19.5 -3.66699 26.5 -11s10.5 -16 10.5 -26v-718zM88 969
c3.33301 6 6.83301 10.5 10.5 13.5s10.167 4.5 19.5 4.5h40c15.333 0 26 -3 32 -9s9 -13 9 -21s-2.33301 -15 -7 -21l-63 -67c-8.66699 -9.33301 -15.667 -14 -21 -14h-35c-10.667 0 -18.167 2.33301 -22.5 7s-4.83301 10.667 -1.5 18z" />
    <glyph glyph-name="Icircumflex" unicode="&#xce;" horiz-adv-x="223" 
d="M179 36c0 -9.33301 -3.5 -17.666 -10.5 -24.999s-15.833 -11 -26.5 -11h-63c-10 0 -18.5 3.66699 -25.5 11s-10.5 15.666 -10.5 24.999v718c0 10 3.5 18.667 10.5 26s15.5 11 25.5 11h63c10.667 0 19.5 -3.66699 26.5 -11s10.5 -16 10.5 -26v-718zM38 969
c5.33301 4.66699 10.333 8.83203 15 12.499s10.667 5.5 18 5.5h86c6 0 11.167 -1.5 15.5 -4.5s9.16602 -7.5 14.499 -13.5l82 -79c3.33301 -2.66699 5 -6.66699 5 -12c0 -6 -2.5 -11.167 -7.5 -15.5s-10.167 -6.5 -15.5 -6.5h-52c-6 0 -12 2.66699 -18 8l-65 66h-6l-64 -66
c-6 -5.33301 -12 -8 -18 -8h-52c-6.66699 0 -12 2.16699 -16 6.5s-6 9.83301 -6 16.5c0 1.33301 0.333008 2.83301 1 4.5s1.33398 3.83398 2.00098 6.50098z" />
    <glyph glyph-name="Idieresis" unicode="&#xcf;" horiz-adv-x="223" 
d="M179 36c0 -9.33301 -3.5 -17.666 -10.5 -24.999s-15.833 -11 -26.5 -11h-63c-10 0 -18.5 3.66699 -25.5 11s-10.5 15.666 -10.5 24.999v718c0 10 3.5 18.667 10.5 26s15.5 11 25.5 11h63c10.667 0 19.5 -3.66699 26.5 -11s10.5 -16 10.5 -26v-718zM275 891
c0 -10 -3.5 -18.5 -10.5 -25.5s-15.833 -10.5 -26.5 -10.5h-51c-10 0 -18.5 3.5 -25.5 10.5s-10.5 15.5 -10.5 25.5v59c0 10 3.5 18.667 10.5 26s15.5 11 25.5 11h51c10.667 0 19.5 -3.66699 26.5 -11s10.5 -16 10.5 -26v-59zM75 891c0 -10 -3.66699 -18.5 -11 -25.5
s-16 -10.5 -26 -10.5h-51c-10 0 -18.667 3.5 -26 10.5s-11 15.5 -11 25.5v59c0 10 3.66699 18.667 11 26s16 11 26 11h51c10 0 18.667 -3.66699 26 -11s11 -16 11 -26v-59z" />
    <glyph glyph-name="Eth" unicode="&#xd0;" horiz-adv-x="408" 
d="M376 144c0 -25.333 -4.83301 -46.9971 -14.5 -64.9971s-22.167 -32.833 -37.5 -44.5s-32.166 -20.334 -50.499 -26.001s-35.833 -8.5 -52.5 -8.5h-149c-9.33301 0 -17.666 3.66699 -24.999 11s-11 15.666 -11 24.999v718c0 10 3.66699 18.667 11 26s15.666 11 24.999 11
h149c16.667 0 34.167 -2.83301 52.5 -8.5s35.166 -14.334 50.499 -26.001s27.833 -26.667 37.5 -45s14.5 -39.833 14.5 -64.5v-503zM209 430.003v-66c0 -10 -3.5 -18.5 -10.5 -25.5s-15.5 -10.5 -25.5 -10.5v-189h36c19.333 0 29 10.333 29 31v448
c0 21.333 -9.66699 32 -29 32h-36v-183c10 0 18.5 -3.66699 25.5 -11s10.5 -16 10.5 -26z" />
    <glyph glyph-name="Ntilde" unicode="&#xd1;" horiz-adv-x="436" 
d="M400 36c0 -9.33301 -3.66699 -17.667 -11 -25s-16.333 -11 -27 -11h-55c-8.66699 -0 -16 2.33301 -22 7s-10.667 11 -14 19l-113 375h-8v-365c0 -9.33301 -3.66699 -17.666 -11 -24.999s-16 -11 -26 -11h-40c-9.33301 0 -17.666 3.66699 -24.999 11
s-11 15.666 -11 24.999v718c0 10 3.66699 18.667 11 26s15.666 11 24.999 11h60c8.66699 0 16 -2.5 22 -7.5s10.333 -11.833 13 -20.5l110 -383h8v374c0 10 3.5 18.667 10.5 26s15.5 11 25.5 11h40c10.667 0 19.667 -3.66699 27 -11s11 -16 11 -26v-718zM374 958.999
c-6 -70.667 -35.666 -106.002 -88.999 -106.002c-24.667 0 -51 9.66699 -79 29c-17.333 11.333 -29.666 17 -36.999 17c-10.667 0 -18.334 -2.16699 -23.001 -6.5s-8.33398 -9.16602 -11.001 -14.499s-5.5 -10.166 -8.5 -14.499s-8.16699 -6.5 -15.5 -6.5h-32
c-6.66699 0 -11.5 2.33301 -14.5 7s-4.5 10.334 -4.5 17.001v4c5.33301 69.333 35 104 89 104c13.333 0 26.333 -2.33301 39 -7s26.334 -12 41.001 -22c8 -4.66699 15.167 -8.33398 21.5 -11.001s11.5 -4 15.5 -4c10 0 17.167 2.16699 21.5 6.5s8 9.33301 11 15
s6.16699 10.667 9.5 15s7.66602 6.5 12.999 6.5h34c6.66699 0 11.5 -2.5 14.5 -7.5s4.5 -10.833 4.5 -17.5v-4z" />
    <glyph glyph-name="Ograve" unicode="&#xd2;" horiz-adv-x="398" 
d="M367 155c0 -19.333 -4.33301 -39 -13 -59s-20.667 -38 -36 -54s-33 -28.833 -53 -38.5s-42 -14.5 -66 -14.5s-46 4.83301 -66 14.5s-37.5 22.5 -52.5 38.5s-27 34 -36 54s-13.5 39.667 -13.5 59v481c0 19.333 4.5 39 13.5 59s21 37.833 36 53.5s32.5 28.167 52.5 37.5
s42 14 66 14s46 -4.66699 66 -14s37.667 -21.833 53 -37.5s27.333 -33.5 36 -53.5s13 -39.667 13 -59v-481zM232 641c0 8 -3 14 -9 18s-14 6 -24 6c-9.33301 0 -17 -2 -23 -6s-9 -10 -9 -18v-492c0 -7.33301 3 -13 9 -17s13.667 -6 23 -6c10 0 18 2 24 6s9 9.66699 9 17v492
zM264 880c2.66699 -7.33301 2.00098 -13.333 -1.99902 -18s-11.333 -7 -22 -7h-35c-6 0 -13 4.66699 -21 14l-64 67c-4.66699 6 -7 13 -7 21s3.16699 15 9.5 21s17.166 9 32.499 9h38c10 0 17 -1.5 21 -4.5s7 -7.5 9 -13.5z" />
    <glyph glyph-name="Oacute" unicode="&#xd3;" horiz-adv-x="398" 
d="M367 155c0 -19.333 -4.33301 -39 -13 -59s-20.667 -38 -36 -54s-33 -28.833 -53 -38.5s-42 -14.5 -66 -14.5s-46 4.83301 -66 14.5s-37.5 22.5 -52.5 38.5s-27 34 -36 54s-13.5 39.667 -13.5 59v481c0 19.333 4.5 39 13.5 59s21 37.833 36 53.5s32.5 28.167 52.5 37.5
s42 14 66 14s46 -4.66699 66 -14s37.667 -21.833 53 -37.5s27.333 -33.5 36 -53.5s13 -39.667 13 -59v-481zM232 641c0 8 -3 14 -9 18s-14 6 -24 6c-9.33301 0 -17 -2 -23 -6s-9 -10 -9 -18v-492c0 -7.33301 3 -13 9 -17s13.667 -6 23 -6c10 0 18 2 24 6s9 9.66699 9 17v492
zM175 969c3.33301 6 6.83301 10.5 10.5 13.5s10.167 4.5 19.5 4.5h40c15.333 0 26 -3 32 -9s9 -13 9 -21s-2.33301 -15 -7 -21l-63 -67c-8.66699 -9.33301 -15.667 -14 -21 -14h-35c-10.667 0 -18.167 2.33301 -22.5 7s-4.83301 10.667 -1.5 18z" />
    <glyph glyph-name="Ocircumflex" unicode="&#xd4;" horiz-adv-x="398" 
d="M367 155c0 -19.333 -4.33301 -39 -13 -59s-20.667 -38 -36 -54s-33 -28.833 -53 -38.5s-42 -14.5 -66 -14.5s-46 4.83301 -66 14.5s-37.5 22.5 -52.5 38.5s-27 34 -36 54s-13.5 39.667 -13.5 59v481c0 19.333 4.5 39 13.5 59s21 37.833 36 53.5s32.5 28.167 52.5 37.5
s42 14 66 14s46 -4.66699 66 -14s37.667 -21.833 53 -37.5s27.333 -33.5 36 -53.5s13 -39.667 13 -59v-481zM232 641c0 8 -3 14 -9 18s-14 6 -24 6c-9.33301 0 -17 -2 -23 -6s-9 -10 -9 -18v-492c0 -7.33301 3 -13 9 -17s13.667 -6 23 -6c10 0 18 2 24 6s9 9.66699 9 17v492
zM124 969c5.33301 4.66699 10.333 8.83203 15 12.499s10.667 5.5 18 5.5h86c6 0 11.167 -1.5 15.5 -4.5s9.16602 -7.5 14.499 -13.5l82 -79c3.33301 -2.66699 5 -6.66699 5 -12c0 -6 -2.5 -11.167 -7.5 -15.5s-10.167 -6.5 -15.5 -6.5h-52c-6 0 -12 2.66699 -18 8l-65 66h-6
l-64 -66c-6 -5.33301 -12 -8 -18 -8h-52c-6.66699 0 -12 2.16699 -16 6.5s-6 9.83301 -6 16.5c0 1.33301 0.333008 2.83301 1 4.5s1.33398 3.83398 2.00098 6.50098z" />
    <glyph glyph-name="Otilde" unicode="&#xd5;" horiz-adv-x="398" 
d="M367 155c0 -19.333 -4.33301 -39 -13 -59s-20.667 -38 -36 -54s-33 -28.833 -53 -38.5s-42 -14.5 -66 -14.5s-46 4.83301 -66 14.5s-37.5 22.5 -52.5 38.5s-27 34 -36 54s-13.5 39.667 -13.5 59v481c0 19.333 4.5 39 13.5 59s21 37.833 36 53.5s32.5 28.167 52.5 37.5
s42 14 66 14s46 -4.66699 66 -14s37.667 -21.833 53 -37.5s27.333 -33.5 36 -53.5s13 -39.667 13 -59v-481zM232 641c0 8 -3 14 -9 18s-14 6 -24 6c-9.33301 0 -17 -2 -23 -6s-9 -10 -9 -18v-492c0 -7.33301 3 -13 9 -17s13.667 -6 23 -6c10 0 18 2 24 6s9 9.66699 9 17v492
zM357 958c-6 -70.667 -35.666 -106.002 -88.999 -106.002c-24.667 0 -51 9.66699 -79 29c-17.333 11.333 -29.666 17 -36.999 17c-10.667 0 -18.334 -2.16699 -23.001 -6.5s-8.33398 -9.16602 -11.001 -14.499s-5.5 -10.166 -8.5 -14.499s-8.16699 -6.5 -15.5 -6.5h-32
c-6.66699 0 -11.5 2.33301 -14.5 7s-4.5 10.334 -4.5 17.001v4c5.33301 69.333 35 104 89 104c13.333 0 26.333 -2.33301 39 -7s26.334 -12 41.001 -22c8 -4.66699 15.167 -8.33398 21.5 -11.001s11.5 -4 15.5 -4c10 0 17.167 2.16699 21.5 6.5s8 9.33301 11 15
s6.16699 10.667 9.5 15s7.66602 6.5 12.999 6.5h34c6.66699 0 11.5 -2.5 14.5 -7.5s4.5 -10.833 4.5 -17.5v-4z" />
    <glyph glyph-name="Odieresis" unicode="&#xd6;" horiz-adv-x="398" 
d="M367 155c0 -19.333 -4.33301 -39 -13 -59s-20.667 -38 -36 -54s-33 -28.833 -53 -38.5s-42 -14.5 -66 -14.5s-46 4.83301 -66 14.5s-37.5 22.5 -52.5 38.5s-27 34 -36 54s-13.5 39.667 -13.5 59v481c0 19.333 4.5 39 13.5 59s21 37.833 36 53.5s32.5 28.167 52.5 37.5
s42 14 66 14s46 -4.66699 66 -14s37.667 -21.833 53 -37.5s27.333 -33.5 36 -53.5s13 -39.667 13 -59v-481zM232 641c0 8 -3 14 -9 18s-14 6 -24 6c-9.33301 0 -17 -2 -23 -6s-9 -10 -9 -18v-492c0 -7.33301 3 -13 9 -17s13.667 -6 23 -6c10 0 18 2 24 6s9 9.66699 9 17v492
zM363 891c0 -10 -3.5 -18.5 -10.5 -25.5s-15.833 -10.5 -26.5 -10.5h-51c-10 0 -18.5 3.5 -25.5 10.5s-10.5 15.5 -10.5 25.5v59c0 10 3.5 18.667 10.5 26s15.5 11 25.5 11h51c10.667 0 19.5 -3.66699 26.5 -11s10.5 -16 10.5 -26v-59zM163 891
c0 -10 -3.66699 -18.5 -11 -25.5s-16 -10.5 -26 -10.5h-51c-10 0 -18.667 3.5 -26 10.5s-11 15.5 -11 25.5v59c0 10 3.66699 18.667 11 26s16 11 26 11h51c10 0 18.667 -3.66699 26 -11s11 -16 11 -26v-59z" />
    <glyph glyph-name="multiply" unicode="&#xd7;" horiz-adv-x="406" 
d="M97 521c6.66699 7.33301 14.666 11 23.999 11c10.667 0 19.667 -4 27 -12l61 -60l65 63c6 6.66699 14.333 10 25 10c10 0 18.667 -3.66699 26 -11l34 -34c6 -6 9 -14.333 9 -25c0 -11.333 -3 -20 -9 -26l-65 -65l62 -60c7.33301 -8 11 -16.667 11 -26
c0 -10 -3.66699 -18.667 -11 -26l-48 -46c-6.66699 -8 -15.334 -12 -26.001 -12c-9.33301 0 -17.666 3.33301 -24.999 10l-61 62l-64 -63c-7.33301 -8 -16.666 -12 -27.999 -12c-9.33301 0 -17.333 3.66699 -24 11l-33 34c-7.33301 6 -11 14.667 -11 26
c0 10.667 3.66699 19 11 25l63 65l-61 61c-6 6 -9 14.333 -9 25s3 19.667 9 27z" />
    <glyph glyph-name="Oslash" unicode="&#xd8;" horiz-adv-x="398" 
d="M232 641c0 8 -3 14 -9 18s-14 6 -24 6c-9.33301 0 -17 -2 -23 -6s-9 -10 -9 -18v-492c0 -7.33301 3 -13 9 -17s13.667 -6 23 -6c10 0 18 2 24 6s9 9.66699 9 17v492zM329 821c10 0 18.4961 -3.66699 25.4961 -11s10.5 -15.666 10.5 -24.999v-9l-17 -69
c6.66699 -11.333 11.5 -23 14.5 -35s4.5 -24 4.5 -36v-481c0 -19.333 -4.33301 -39 -13 -59s-20.667 -38 -36 -54s-33 -28.833 -53 -38.5s-42 -14.5 -66 -14.5c-14 0 -27.667 2.16699 -41 6.5s-26.333 9.5 -39 15.5h-6c-0.666992 -6 -1.66699 -11 -3 -15
c-1.33301 -6.66699 -5.16602 -12.667 -11.499 -18s-13.5 -8 -21.5 -8h-9c-9.33301 0 -17.666 3.66699 -24.999 11s-11 15.666 -11 24.999c0 4 0.666992 7.33301 2 10l16 67c-6 11.333 -10.667 23 -14 35s-5 24.333 -5 37v481c0 19.333 4.5 39 13.5 59s21 37.833 36 53.5
s32.5 28.167 52.5 37.5s42 14 66 14c14.667 0 28.834 -2 42.501 -6s25.834 -9 36.501 -15h8l3 17c2 6.66699 6 12.5 12 17.5s13 7.5 21 7.5h7z" />
    <glyph glyph-name="Ugrave" unicode="&#xd9;" horiz-adv-x="389" 
d="M355 145c0 -20 -4.00195 -39.167 -12.002 -57.5s-18.833 -34.833 -32.5 -49.5s-30 -26.5 -49 -35.5s-40.167 -13.5 -63.5 -13.5s-45.166 4.5 -65.499 13.5s-37.666 20.833 -51.999 35.5s-25.666 31.167 -33.999 49.5s-12.5 37.5 -12.5 57.5v609c0 10 3.5 18.667 10.5 26
s15.5 11 25.5 11h58c10.667 0 19.667 -3.66699 27 -11s11 -16 11 -26v-605c0 -7.33301 3 -13 9 -17s13.667 -6 23 -6c8.66699 0 16 2 22 6s9 9.66699 9 17v605c0 10 3.66699 18.667 11 26s15.666 11 24.999 11h53c10.667 0 19.5 -3.66699 26.5 -11s10.5 -16 10.5 -26v-609z
M259.998 880c2.66699 -7.33301 2.00098 -13.333 -1.99902 -18s-11.333 -7 -22 -7h-35c-6 0 -13 4.66699 -21 14l-64 67c-4.66699 6 -7 13 -7 21s3.16699 15 9.5 21s17.166 9 32.499 9h38c10 0 17 -1.5 21 -4.5s7 -7.5 9 -13.5z" />
    <glyph glyph-name="Uacute" unicode="&#xda;" horiz-adv-x="389" 
d="M356 145c0 -20 -4.00195 -39.167 -12.002 -57.5s-18.833 -34.833 -32.5 -49.5s-30 -26.5 -49 -35.5s-40.167 -13.5 -63.5 -13.5s-45.166 4.5 -65.499 13.5s-37.666 20.833 -51.999 35.5s-25.666 31.167 -33.999 49.5s-12.5 37.5 -12.5 57.5v609c0 10 3.5 18.667 10.5 26
s15.5 11 25.5 11h58c10.667 0 19.667 -3.66699 27 -11s11 -16 11 -26v-605c0 -7.33301 3 -13 9 -17s13.667 -6 23 -6c8.66699 0 16 2 22 6s9 9.66699 9 17v605c0 10 3.66699 18.667 11 26s15.666 11 24.999 11h53c10.667 0 19.5 -3.66699 26.5 -11s10.5 -16 10.5 -26v-609z
M171.998 969c3.33301 6 6.83301 10.5 10.5 13.5s10.167 4.5 19.5 4.5h40c15.333 0 26 -3 32 -9s9 -13 9 -21s-2.33301 -15 -7 -21l-63 -67c-8.66699 -9.33301 -15.667 -14 -21 -14h-35c-10.667 0 -18.167 2.33301 -22.5 7s-4.83301 10.667 -1.5 18z" />
    <glyph glyph-name="Ucircumflex" unicode="&#xdb;" horiz-adv-x="389" 
d="M355 145c0 -20 -4.00195 -39.167 -12.002 -57.5s-18.833 -34.833 -32.5 -49.5s-30 -26.5 -49 -35.5s-40.167 -13.5 -63.5 -13.5s-45.166 4.5 -65.499 13.5s-37.666 20.833 -51.999 35.5s-25.666 31.167 -33.999 49.5s-12.5 37.5 -12.5 57.5v609c0 10 3.5 18.667 10.5 26
s15.5 11 25.5 11h58c10.667 0 19.667 -3.66699 27 -11s11 -16 11 -26v-605c0 -7.33301 3 -13 9 -17s13.667 -6 23 -6c8.66699 0 16 2 22 6s9 9.66699 9 17v605c0 10 3.66699 18.667 11 26s15.666 11 24.999 11h53c10.667 0 19.5 -3.66699 26.5 -11s10.5 -16 10.5 -26v-609z
M118.998 969c5.33301 4.66699 10.333 8.83203 15 12.499s10.667 5.5 18 5.5h86c6 0 11.167 -1.5 15.5 -4.5s9.16602 -7.5 14.499 -13.5l82 -79c3.33301 -2.66699 5 -6.66699 5 -12c0 -6 -2.5 -11.167 -7.5 -15.5s-10.167 -6.5 -15.5 -6.5h-52c-6 0 -12 2.66699 -18 8l-65 66
h-6l-64 -66c-6 -5.33301 -12 -8 -18 -8h-52c-6.66699 0 -12 2.16699 -16 6.5s-6 9.83301 -6 16.5c0 1.33301 0.333008 2.83301 1 4.5s1.33398 3.83398 2.00098 6.50098z" />
    <glyph glyph-name="Udieresis" unicode="&#xdc;" horiz-adv-x="389" 
d="M355 145c0 -20 -4.00195 -39.167 -12.002 -57.5s-18.833 -34.833 -32.5 -49.5s-30 -26.5 -49 -35.5s-40.167 -13.5 -63.5 -13.5s-45.166 4.5 -65.499 13.5s-37.666 20.833 -51.999 35.5s-25.666 31.167 -33.999 49.5s-12.5 37.5 -12.5 57.5v609c0 10 3.5 18.667 10.5 26
s15.5 11 25.5 11h58c10.667 0 19.667 -3.66699 27 -11s11 -16 11 -26v-605c0 -7.33301 3 -13 9 -17s13.667 -6 23 -6c8.66699 0 16 2 22 6s9 9.66699 9 17v605c0 10 3.66699 18.667 11 26s15.666 11 24.999 11h53c10.667 0 19.5 -3.66699 26.5 -11s10.5 -16 10.5 -26v-609z
M357.998 891c0 -10 -3.5 -18.5 -10.5 -25.5s-15.833 -10.5 -26.5 -10.5h-51c-10 0 -18.5 3.5 -25.5 10.5s-10.5 15.5 -10.5 25.5v59c0 10 3.5 18.667 10.5 26s15.5 11 25.5 11h51c10.667 0 19.5 -3.66699 26.5 -11s10.5 -16 10.5 -26v-59zM157.998 891
c0 -10 -3.66699 -18.5 -11 -25.5s-16 -10.5 -26 -10.5h-51c-10 0 -18.667 3.5 -26 10.5s-11 15.5 -11 25.5v59c0 10 3.66699 18.667 11 26s16 11 26 11h51c10 0 18.667 -3.66699 26 -11s11 -16 11 -26v-59z" />
    <glyph glyph-name="Yacute" unicode="&#xdd;" horiz-adv-x="390" 
d="M335 791c10 0 18.665 -3.66797 25.998 -11.001s11 -15.666 11 -24.999c0 -2.66699 -0.666992 -6.33398 -2 -11.001l-108 -403v-305c0 -9.33301 -3.66699 -17.666 -11 -24.999s-16.333 -11 -27 -11h-57c-11.333 0 -20.333 3.66699 -27 11s-10 15.666 -10 24.999v305
l-105 403c-0.666992 2.66699 -1 6 -1 10c0 9.33301 3.33301 17.833 10 25.5s15.334 11.5 26.001 11.5h53c8.66699 0 16.334 -2.83301 23.001 -8.5s11 -12.5 13 -20.5l50 -235h7l45 234c1.33301 8.66699 5.5 15.834 12.5 21.501s14.833 8.5 23.5 8.5h48zM170.998 968.999
c3.33301 6 6.83301 10.5 10.5 13.5s10.167 4.5 19.5 4.5h40c15.333 0 26 -3 32 -9s9 -13 9 -21s-2.33301 -15 -7 -21l-63 -67c-8.66699 -9.33301 -15.667 -14 -21 -14h-35c-10.667 0 -18.167 2.33301 -22.5 7s-4.83301 10.667 -1.5 18z" />
    <glyph glyph-name="Thorn" unicode="&#xde;" horiz-adv-x="378" 
d="M353 240c0 -21.333 -4.16699 -41 -12.5 -59s-19.833 -33.167 -34.5 -45.5s-31.5 -22.166 -50.5 -29.499s-38.833 -11 -59.5 -11c-22.667 0 -43.667 3.66699 -63 11s-36.166 17.166 -50.499 29.499s-25.5 27.5 -33.5 45.5s-12 37.667 -12 59v314c0 22 4 42 12 60
s19.167 33.5 33.5 46.5s31.166 22.833 50.499 29.5s40.333 10 63 10c20.667 0 40.5 -3.33301 59.5 -10s35.833 -16.5 50.5 -29.5s26.167 -28.5 34.5 -46.5s12.5 -38 12.5 -60v-314zM227 557c0 10 -2.83301 17.333 -8.5 22s-13.167 7 -22.5 7
c-10 0 -18.167 -2.33301 -24.5 -7s-9.5 -12 -9.5 -22v-318c0 -9.33301 3.16699 -16.5 9.5 -21.5s14.5 -7.5 24.5 -7.5c9.33301 0 16.833 2.5 22.5 7.5s8.5 12.167 8.5 21.5v318zM162 36c0 -9.33301 -3.66699 -17.666 -11 -24.999s-16 -11 -26 -11h-52
c-9.33301 0 -17.666 3.66699 -24.999 11s-11 15.666 -11 24.999v718c0 10 3.66699 18.667 11 26s15.666 11 24.999 11h52c10 0 18.667 -3.66699 26 -11s11 -16 11 -26v-718z" />
    <glyph glyph-name="germandbls" unicode="&#xdf;" horiz-adv-x="395" 
d="M365 150c0 -46.667 -10.834 -82.3291 -32.501 -106.996s-51.834 -39.667 -90.501 -45c-10.667 -2 -20.5 0.166992 -29.5 6.5s-13.5 15.166 -13.5 26.499v83c11.333 0 20.833 3.16699 28.5 9.5s11.5 17.833 11.5 34.5v207c0 12.667 -2.5 22.167 -7.5 28.5
s-11.5 10.833 -19.5 13.5c-8.66699 2 -13 7 -13 15v74c0 9.33301 2.5 17 7.5 23s11.5 12.333 19.5 19c14.667 10 22 32 22 66c0 24.667 -4 43.834 -12 57.501s-19 20.5 -33 20.5c-12 0 -21.667 -4.66699 -29 -14s-11 -20 -11 -32v-600
c0 -9.33301 -3.83301 -17.666 -11.5 -24.999s-16.167 -11 -25.5 -11h-53c-9.33301 0 -17.666 3.66699 -24.999 11s-11 15.666 -11 24.999v598c0 18.667 3.16699 38 9.5 58s16.333 38 30 54s30.334 29 50.001 39s42.834 15 69.501 15c28 0 52.667 -5.33301 74 -16
s38.833 -24.834 52.5 -42.501s24.167 -37.667 31.5 -60s11 -44.833 11 -67.5c0 -14.667 -1.83301 -29.5 -5.5 -44.5s-8.5 -28.667 -14.5 -41s-12.833 -23.333 -20.5 -33s-15.834 -16.834 -24.501 -21.501v0c22.667 -6.66699 39.167 -20.334 49.5 -41.001
s15.5 -44.334 15.5 -71.001v-212z" />
    <glyph glyph-name="agrave" unicode="&#xe0;" horiz-adv-x="368" 
d="M211 256c-11.333 -4 -21.001 -8.66797 -29.001 -14.001s-14.5 -11.166 -19.5 -17.499s-9.16699 -13.333 -12.5 -21s-4.66602 -29.5 -3.99902 -65.5c0 -22.667 11 -34 33 -34c21.333 0 32 11.333 32 34v118zM342.999 43.999l-0.000976562 -7.00098
c0 -9.33301 -3.33301 -17.833 -10 -25.5s-15.334 -11.5 -26.001 -11.5h-42c-8 0 -12.667 3.66699 -14 11l-3 21h-7c-8.66699 -13.333 -20.167 -23.833 -34.5 -31.5s-31.166 -11.5 -50.499 -11.5c-41.333 0 -74.666 12.833 -99.999 38.5s-38 61.167 -38 106.5
c0 33.333 2.83301 59.5 8.5 78.5s13 34.667 22 47s19.333 23.833 31 34.5s23.167 20 34.5 28c28 17.333 60.333 31.333 97 42v87c0 10 -1.83301 17.333 -5.5 22s-9.83398 7 -18.501 7c-9.33301 0 -15.666 -2.33301 -18.999 -7s-5 -12 -5 -22v-14
c0 -10 -3.83301 -18.5 -11.5 -25.5s-16.167 -10.5 -25.5 -10.5h-58c-9.33301 0 -17.666 3.5 -24.999 10.5s-11 15.5 -11 25.5v11c0 22 4.33301 42 13 60s20.167 33.5 34.5 46.5s31 22.833 50 29.5s39.5 10 61.5 10c21.333 0 41 -3.33301 59 -10s33.167 -16.5 45.5 -29.5
s22.166 -28.5 29.499 -46.5s11 -38 11 -60v-328c0 -12.667 0.666992 -25.167 2 -37.5s3 -25.166 5 -38.499zM248.998 683.998c2.66699 -7.33301 2.00098 -13.333 -1.99902 -18s-11.333 -7 -22 -7h-35c-6 0 -13 4.66699 -21 14l-64 67c-4.66699 6 -7 13 -7 21
s3.16699 15 9.5 21s17.166 9 32.499 9h38c10 0 17 -1.5 21 -4.5s7 -7.5 9 -13.5z" />
    <glyph glyph-name="aacute" unicode="&#xe1;" horiz-adv-x="368" 
d="M211 256c-11.333 -4 -21.001 -8.66797 -29.001 -14.001s-14.5 -11.166 -19.5 -17.499s-9.16699 -13.333 -12.5 -21s-4.66602 -29.5 -3.99902 -65.5c0 -22.667 11 -34 33 -34c21.333 0 32 11.333 32 34v118zM342.999 43.999l-0.000976562 -7.00098
c0 -9.33301 -3.33301 -17.833 -10 -25.5s-15.334 -11.5 -26.001 -11.5h-42c-8 0 -12.667 3.66699 -14 11l-3 21h-7c-8.66699 -13.333 -20.167 -23.833 -34.5 -31.5s-31.166 -11.5 -50.499 -11.5c-41.333 0 -74.666 12.833 -99.999 38.5s-38 61.167 -38 106.5
c0 33.333 2.83301 59.5 8.5 78.5s13 34.667 22 47s19.333 23.833 31 34.5s23.167 20 34.5 28c28 17.333 60.333 31.333 97 42v87c0 10 -1.83301 17.333 -5.5 22s-9.83398 7 -18.501 7c-9.33301 0 -15.666 -2.33301 -18.999 -7s-5 -12 -5 -22v-14
c0 -10 -3.83301 -18.5 -11.5 -25.5s-16.167 -10.5 -25.5 -10.5h-58c-9.33301 0 -17.666 3.5 -24.999 10.5s-11 15.5 -11 25.5v11c0 22 4.33301 42 13 60s20.167 33.5 34.5 46.5s31 22.833 50 29.5s39.5 10 61.5 10c21.333 0 41 -3.33301 59 -10s33.167 -16.5 45.5 -29.5
s22.166 -28.5 29.499 -46.5s11 -38 11 -60v-328c0 -12.667 0.666992 -25.167 2 -37.5s3 -25.166 5 -38.499zM159.998 772.998c3.33301 6 6.83301 10.5 10.5 13.5s10.167 4.5 19.5 4.5h40c15.333 0 26 -3 32 -9s9 -13 9 -21s-2.33301 -15 -7 -21l-63 -67
c-8.66699 -9.33301 -15.667 -14 -21 -14h-35c-10.667 0 -18.167 2.33301 -22.5 7s-4.83301 10.667 -1.5 18z" />
    <glyph glyph-name="acircumflex" unicode="&#xe2;" horiz-adv-x="368" 
d="M211 256c-11.333 -4 -21.001 -8.66797 -29.001 -14.001s-14.5 -11.166 -19.5 -17.499s-9.16699 -13.333 -12.5 -21s-4.66602 -29.5 -3.99902 -65.5c0 -22.667 11 -34 33 -34c21.333 0 32 11.333 32 34v118zM342.999 43.999l-0.000976562 -7.00098
c0 -9.33301 -3.33301 -17.833 -10 -25.5s-15.334 -11.5 -26.001 -11.5h-42c-8 0 -12.667 3.66699 -14 11l-3 21h-7c-8.66699 -13.333 -20.167 -23.833 -34.5 -31.5s-31.166 -11.5 -50.499 -11.5c-41.333 0 -74.666 12.833 -99.999 38.5s-38 61.167 -38 106.5
c0 33.333 2.83301 59.5 8.5 78.5s13 34.667 22 47s19.333 23.833 31 34.5s23.167 20 34.5 28c28 17.333 60.333 31.333 97 42v87c0 10 -1.83301 17.333 -5.5 22s-9.83398 7 -18.501 7c-9.33301 0 -15.666 -2.33301 -18.999 -7s-5 -12 -5 -22v-14
c0 -10 -3.83301 -18.5 -11.5 -25.5s-16.167 -10.5 -25.5 -10.5h-58c-9.33301 0 -17.666 3.5 -24.999 10.5s-11 15.5 -11 25.5v11c0 22 4.33301 42 13 60s20.167 33.5 34.5 46.5s31 22.833 50 29.5s39.5 10 61.5 10c21.333 0 41 -3.33301 59 -10s33.167 -16.5 45.5 -29.5
s22.166 -28.5 29.499 -46.5s11 -38 11 -60v-328c0 -12.667 0.666992 -25.167 2 -37.5s3 -25.166 5 -38.499zM109.998 772.998c5.33301 4.66699 10.333 8.83203 15 12.499s10.667 5.5 18 5.5h86c6 0 11.167 -1.5 15.5 -4.5s9.16602 -7.5 14.499 -13.5l82 -79
c3.33301 -2.66699 5 -6.66699 5 -12c0 -6 -2.5 -11.167 -7.5 -15.5s-10.167 -6.5 -15.5 -6.5h-52c-6 0 -12 2.66699 -18 8l-65 66h-6l-64 -66c-6 -5.33301 -12 -8 -18 -8h-52c-6.66699 0 -12 2.16699 -16 6.5s-6 9.83301 -6 16.5c0 1.33301 0.333008 2.83301 1 4.5
s1.33398 3.83398 2.00098 6.50098z" />
    <glyph glyph-name="atilde" unicode="&#xe3;" horiz-adv-x="368" 
d="M211 256c-11.333 -4 -21.001 -8.66797 -29.001 -14.001s-14.5 -11.166 -19.5 -17.499s-9.16699 -13.333 -12.5 -21s-4.66602 -29.5 -3.99902 -65.5c0 -22.667 11 -34 33 -34c21.333 0 32 11.333 32 34v118zM342.999 43.999l-0.000976562 -7.00098
c0 -9.33301 -3.33301 -17.833 -10 -25.5s-15.334 -11.5 -26.001 -11.5h-42c-8 0 -12.667 3.66699 -14 11l-3 21h-7c-8.66699 -13.333 -20.167 -23.833 -34.5 -31.5s-31.166 -11.5 -50.499 -11.5c-41.333 0 -74.666 12.833 -99.999 38.5s-38 61.167 -38 106.5
c0 33.333 2.83301 59.5 8.5 78.5s13 34.667 22 47s19.333 23.833 31 34.5s23.167 20 34.5 28c28 17.333 60.333 31.333 97 42v87c0 10 -1.83301 17.333 -5.5 22s-9.83398 7 -18.501 7c-9.33301 0 -15.666 -2.33301 -18.999 -7s-5 -12 -5 -22v-14
c0 -10 -3.83301 -18.5 -11.5 -25.5s-16.167 -10.5 -25.5 -10.5h-58c-9.33301 0 -17.666 3.5 -24.999 10.5s-11 15.5 -11 25.5v11c0 22 4.33301 42 13 60s20.167 33.5 34.5 46.5s31 22.833 50 29.5s39.5 10 61.5 10c21.333 0 41 -3.33301 59 -10s33.167 -16.5 45.5 -29.5
s22.166 -28.5 29.499 -46.5s11 -38 11 -60v-328c0 -12.667 0.666992 -25.167 2 -37.5s3 -25.166 5 -38.499zM342.998 761.998c-6 -70.667 -35.666 -106.002 -88.999 -106.002c-24.667 0 -51 9.66699 -79 29c-17.333 11.333 -29.666 17 -36.999 17
c-10.667 0 -18.334 -2.16699 -23.001 -6.5s-8.33398 -9.16602 -11.001 -14.499s-5.5 -10.166 -8.5 -14.499s-8.16699 -6.5 -15.5 -6.5h-32c-6.66699 0 -11.5 2.33301 -14.5 7s-4.5 10.334 -4.5 17.001v4c5.33301 69.333 35 104 89 104c13.333 0 26.333 -2.33301 39 -7
s26.334 -12 41.001 -22c8 -4.66699 15.167 -8.33398 21.5 -11.001s11.5 -4 15.5 -4c10 0 17.167 2.16699 21.5 6.5s8 9.33301 11 15s6.16699 10.667 9.5 15s7.66602 6.5 12.999 6.5h34c6.66699 0 11.5 -2.5 14.5 -7.5s4.5 -10.833 4.5 -17.5v-4z" />
    <glyph glyph-name="adieresis" unicode="&#xe4;" horiz-adv-x="368" 
d="M211 256c-11.333 -4 -21.001 -8.66797 -29.001 -14.001s-14.5 -11.166 -19.5 -17.499s-9.16699 -13.333 -12.5 -21s-4.66602 -29.5 -3.99902 -65.5c0 -22.667 11 -34 33 -34c21.333 0 32 11.333 32 34v118zM342.999 43.999l-0.000976562 -7.00098
c0 -9.33301 -3.33301 -17.833 -10 -25.5s-15.334 -11.5 -26.001 -11.5h-42c-8 0 -12.667 3.66699 -14 11l-3 21h-7c-8.66699 -13.333 -20.167 -23.833 -34.5 -31.5s-31.166 -11.5 -50.499 -11.5c-41.333 0 -74.666 12.833 -99.999 38.5s-38 61.167 -38 106.5
c0 33.333 2.83301 59.5 8.5 78.5s13 34.667 22 47s19.333 23.833 31 34.5s23.167 20 34.5 28c28 17.333 60.333 31.333 97 42v87c0 10 -1.83301 17.333 -5.5 22s-9.83398 7 -18.501 7c-9.33301 0 -15.666 -2.33301 -18.999 -7s-5 -12 -5 -22v-14
c0 -10 -3.83301 -18.5 -11.5 -25.5s-16.167 -10.5 -25.5 -10.5h-58c-9.33301 0 -17.666 3.5 -24.999 10.5s-11 15.5 -11 25.5v11c0 22 4.33301 42 13 60s20.167 33.5 34.5 46.5s31 22.833 50 29.5s39.5 10 61.5 10c21.333 0 41 -3.33301 59 -10s33.167 -16.5 45.5 -29.5
s22.166 -28.5 29.499 -46.5s11 -38 11 -60v-328c0 -12.667 0.666992 -25.167 2 -37.5s3 -25.166 5 -38.499zM346.998 694.998c0 -10 -3.5 -18.5 -10.5 -25.5s-15.833 -10.5 -26.5 -10.5h-51c-10 0 -18.5 3.5 -25.5 10.5s-10.5 15.5 -10.5 25.5v59c0 10 3.5 18.667 10.5 26
s15.5 11 25.5 11h51c10.667 0 19.5 -3.66699 26.5 -11s10.5 -16 10.5 -26v-59zM146.998 694.998c0 -10 -3.66699 -18.5 -11 -25.5s-16 -10.5 -26 -10.5h-51c-10 0 -18.667 3.5 -26 10.5s-11 15.5 -11 25.5v59c0 10 3.66699 18.667 11 26s16 11 26 11h51
c10 0 18.667 -3.66699 26 -11s11 -16 11 -26v-59z" />
    <glyph glyph-name="aring" unicode="&#xe5;" horiz-adv-x="368" 
d="M211 256c-11.333 -4 -21.001 -8.66797 -29.001 -14.001s-14.5 -11.166 -19.5 -17.499s-9.16699 -13.333 -12.5 -21s-4.66602 -29.5 -3.99902 -65.5c0 -22.667 11 -34 33 -34c21.333 0 32 11.333 32 34v118zM342.999 43.999l-0.000976562 -7.00098
c0 -9.33301 -3.33301 -17.833 -10 -25.5s-15.334 -11.5 -26.001 -11.5h-42c-8 0 -12.667 3.66699 -14 11l-3 21h-7c-8.66699 -13.333 -20.167 -23.833 -34.5 -31.5s-31.166 -11.5 -50.499 -11.5c-41.333 0 -74.666 12.833 -99.999 38.5s-38 61.167 -38 106.5
c0 33.333 2.83301 59.5 8.5 78.5s13 34.667 22 47s19.333 23.833 31 34.5s23.167 20 34.5 28c28 17.333 60.333 31.333 97 42v87c0 10 -1.83301 17.333 -5.5 22s-9.83398 7 -18.501 7c-9.33301 0 -15.666 -2.33301 -18.999 -7s-5 -12 -5 -22v-14
c0 -10 -3.83301 -18.5 -11.5 -25.5s-16.167 -10.5 -25.5 -10.5h-58c-9.33301 0 -17.666 3.5 -24.999 10.5s-11 15.5 -11 25.5v11c0 22 4.33301 42 13 60s20.167 33.5 34.5 46.5s31 22.833 50 29.5s39.5 10 61.5 10c21.333 0 41 -3.33301 59 -10s33.167 -16.5 45.5 -29.5
s22.166 -28.5 29.499 -46.5s11 -38 11 -60v-328c0 -12.667 0.666992 -25.167 2 -37.5s3 -25.166 5 -38.499zM137.998 744.998c0 -12.667 4.33301 -23.667 13 -33s20 -14 34 -14c12.667 0 23.334 4.66699 32.001 14s13 20.333 13 33s-4.33301 23.667 -13 33
s-19.334 14 -32.001 14c-14 0 -25.333 -4.66699 -34 -14s-13 -20.333 -13 -33zM96.998 744.998c0 12 2.5 23.5 7.5 34.5s11.5 20.5 19.5 28.5s17 14.333 27 19s21.333 7 34 7c11.333 0 22.5 -2.33301 33.5 -7s20.5 -11 28.5 -19s14.167 -17.5 18.5 -28.5
s6.5 -22.5 6.5 -34.5c0 -12.667 -2.16699 -24 -6.5 -34s-10.5 -19 -18.5 -27s-17.5 -14.333 -28.5 -19s-22.167 -7 -33.5 -7c-12.667 0 -24 2.33301 -34 7s-19 11 -27 19s-14.5 17 -19.5 27s-7.5 21.333 -7.5 34z" />
    <glyph glyph-name="ae" unicode="&#xe6;" horiz-adv-x="558" 
d="M527 134c0 -21.333 -4 -41.002 -12 -59.002s-19.167 -33.167 -33.5 -45.5s-31.333 -22.166 -51 -29.499s-40.5 -11 -62.5 -11c-44.667 0 -81.667 14.333 -111 43h-7c-8 -13.333 -20.833 -23.833 -38.5 -31.5s-36.167 -11.5 -55.5 -11.5c-41.333 0 -74.666 13 -99.999 39
s-38 61.333 -38 106v33c0 21.333 4.33301 41 13 59s21 34.833 37 50.5s35.833 30.834 59.5 45.501l82.5 50h2v79c0 10 -1.66699 17.333 -5 22s-10 7 -20 7c-8.66699 0 -14.834 -2.33301 -18.501 -7s-5.5 -12 -5.5 -22v-50h-129v47c0 22 4.16699 42 12.5 60
s19.5 33.5 33.5 46.5s30.5 22.833 49.5 29.5s39.833 10 62.5 10c15.333 0 31 -3.33301 47 -10s28 -15 36 -25h7c8.66699 10 21.167 18.333 37.5 25s32.5 10 48.5 10c22 0 42.833 -3.33301 62.5 -10s36.667 -16.5 51 -29.5s25.5 -28.5 33.5 -46.5s12 -38 12 -60v-173h-191
v-142c0 -9.33301 3.16699 -16.5 9.5 -21.5s13.833 -7.5 22.5 -7.5c10 0 18 2.5 24 7.5s9 12.167 9 21.5v81h126v-80zM401 450.998c0 10 -3 17.333 -9 22s-14 7 -24 7c-8.66699 0 -16.167 -2.33301 -22.5 -7s-9.5 -12 -9.5 -22v-103h65v103zM212 255.998l-7 -0.000976562
c-18 -13.333 -32 -24.666 -42 -33.999s-15 -22 -15 -38v-46c0 -22.667 10.333 -34 31 -34c22 0 33 11.333 33 34v118z" />
    <glyph glyph-name="ccedilla" unicode="&#xe7;" horiz-adv-x="372" 
d="M347 134c0 -21.333 -4.16699 -41 -12.5 -59s-19.833 -33.167 -34.5 -45.5s-31.5 -22.166 -50.5 -29.499s-38.833 -11 -59.5 -11c-22.667 0 -43.667 3.66699 -63 11s-36.166 17.166 -50.499 29.499s-25.5 27.5 -33.5 45.5s-12 37.667 -12 59v314c0 22 4 42 12 60
s19.167 33.5 33.5 46.5s31.166 22.833 50.499 29.5s40.333 10 63 10c20.667 0 40.5 -3.33301 59.5 -10s35.833 -16.5 50.5 -29.5s26.167 -28.5 34.5 -46.5s12.5 -38 12.5 -60v-33c0 -9.33301 -3.66699 -17.666 -11 -24.999s-16 -11 -26 -11h-53
c-10 0 -18.5 3.66699 -25.5 11s-10.5 15.666 -10.5 24.999v36c0 10 -2.83301 17.333 -8.5 22s-13.167 7 -22.5 7c-10 0 -18.167 -2.33301 -24.5 -7s-9.5 -12 -9.5 -22v-318c0 -9.33301 3.16699 -16.5 9.5 -21.5s14.5 -7.5 24.5 -7.5c9.33301 0 16.833 2.5 22.5 7.5
s8.5 12.167 8.5 21.5v33c0 10 3.5 18.667 10.5 26s15.5 11 25.5 11h53c10 0 18.667 -3.66699 26 -11s11 -16 11 -26v-32zM246 -140c0 -20 -5.16602 -36 -15.499 -48s-24.833 -18 -43.5 -18c-16.667 0 -30.334 6 -41.001 18s-16 28 -16 48c0 5.33301 1.5 10 4.5 14
s7.83301 6 14.5 6h3c6.66699 0 11.667 -2 15 -6s5 -8.66699 5 -14v-15c0 -4 1.5 -7 4.5 -9s6.5 -3 10.5 -3s7.66699 1 11 3s5 5 5 9v75c0 2.66699 -1.66699 5.33398 -5 8.00098s-7 4 -11 4c-6 0 -10.333 -2.66699 -13 -8c-0.666992 -2.66699 -2.66699 -4 -6 -4l-19 1
c-6.66699 0 -11.5 2 -14.5 6s-4.5 9 -4.5 15l3 76h45l-4 -56h6c4.66699 4 9.5 6.16699 14.5 6.5s9.83301 0.5 14.5 0.5c10 0 18.667 -3.83301 26 -11.5s11 -18.834 11 -33.501v-64z" />
    <glyph glyph-name="egrave" unicode="&#xe8;" horiz-adv-x="378" 
d="M221 452c0 10 -2.83301 17.333 -8.5 22s-13.167 7 -22.5 7c-10 0 -18.167 -2.33301 -24.5 -7s-9.5 -12 -9.5 -22v-133h65v133zM347 134c0 -21.333 -4.16699 -41 -12.5 -59s-19.833 -33.167 -34.5 -45.5s-31.5 -22.166 -50.5 -29.499s-38.833 -11 -59.5 -11
c-22.667 0 -43.667 3.66699 -63 11s-36.166 17.166 -50.499 29.499s-25.5 27.5 -33.5 45.5s-12 37.667 -12 59v315c0 21.333 4 41 12 59s19.167 33.5 33.5 46.5s31.166 22.833 50.499 29.5s40.333 10 63 10c20.667 0 40.5 -3.33301 59.5 -10s35.833 -16.5 50.5 -29.5
s26.167 -28.5 34.5 -46.5s12.5 -37.667 12.5 -59v-142c0 -16.667 -6 -30.834 -18 -42.501s-26.333 -17.5 -43 -17.5h-130v-114c0 -9.33301 3.16699 -16.666 9.5 -21.999s14.5 -8 24.5 -8c9.33301 0 16.833 2.66699 22.5 8s8.5 13 8.5 23c0 10.667 3.5 19.667 10.5 27
s15.5 11 25.5 11h53c10 0 18.667 -3.66699 26 -11s11 -16.333 11 -27zM254 684c2.66699 -7.33301 2.00098 -13.333 -1.99902 -18s-11.333 -7 -22 -7h-35c-6 0 -13 4.66699 -21 14l-64 67c-4.66699 6 -7 13 -7 21s3.16699 15 9.5 21s17.166 9 32.499 9h38
c10 0 17 -1.5 21 -4.5s7 -7.5 9 -13.5z" />
    <glyph glyph-name="eacute" unicode="&#xe9;" horiz-adv-x="378" 
d="M221 452c0 10 -2.83301 17.333 -8.5 22s-13.167 7 -22.5 7c-10 0 -18.167 -2.33301 -24.5 -7s-9.5 -12 -9.5 -22v-133h65v133zM347 134c0 -21.333 -4.16699 -41 -12.5 -59s-19.833 -33.167 -34.5 -45.5s-31.5 -22.166 -50.5 -29.499s-38.833 -11 -59.5 -11
c-22.667 0 -43.667 3.66699 -63 11s-36.166 17.166 -50.499 29.499s-25.5 27.5 -33.5 45.5s-12 37.667 -12 59v315c0 21.333 4 41 12 59s19.167 33.5 33.5 46.5s31.166 22.833 50.499 29.5s40.333 10 63 10c20.667 0 40.5 -3.33301 59.5 -10s35.833 -16.5 50.5 -29.5
s26.167 -28.5 34.5 -46.5s12.5 -37.667 12.5 -59v-142c0 -16.667 -6 -30.834 -18 -42.501s-26.333 -17.5 -43 -17.5h-130v-114c0 -9.33301 3.16699 -16.666 9.5 -21.999s14.5 -8 24.5 -8c9.33301 0 16.833 2.66699 22.5 8s8.5 13 8.5 23c0 10.667 3.5 19.667 10.5 27
s15.5 11 25.5 11h53c10 0 18.667 -3.66699 26 -11s11 -16.333 11 -27zM166 773c3.33301 6 6.83301 10.5 10.5 13.5s10.167 4.5 19.5 4.5h40c15.333 0 26 -3 32 -9s9 -13 9 -21s-2.33301 -15 -7 -21l-63 -67c-8.66699 -9.33301 -15.667 -14 -21 -14h-35
c-10.667 0 -18.167 2.33301 -22.5 7s-4.83301 10.667 -1.5 18z" />
    <glyph glyph-name="ecircumflex" unicode="&#xea;" horiz-adv-x="378" 
d="M221 452c0 10 -2.83301 17.333 -8.5 22s-13.167 7 -22.5 7c-10 0 -18.167 -2.33301 -24.5 -7s-9.5 -12 -9.5 -22v-133h65v133zM347 134c0 -21.333 -4.16699 -41 -12.5 -59s-19.833 -33.167 -34.5 -45.5s-31.5 -22.166 -50.5 -29.499s-38.833 -11 -59.5 -11
c-22.667 0 -43.667 3.66699 -63 11s-36.166 17.166 -50.499 29.499s-25.5 27.5 -33.5 45.5s-12 37.667 -12 59v315c0 21.333 4 41 12 59s19.167 33.5 33.5 46.5s31.166 22.833 50.499 29.5s40.333 10 63 10c20.667 0 40.5 -3.33301 59.5 -10s35.833 -16.5 50.5 -29.5
s26.167 -28.5 34.5 -46.5s12.5 -37.667 12.5 -59v-142c0 -16.667 -6 -30.834 -18 -42.501s-26.333 -17.5 -43 -17.5h-130v-114c0 -9.33301 3.16699 -16.666 9.5 -21.999s14.5 -8 24.5 -8c9.33301 0 16.833 2.66699 22.5 8s8.5 13 8.5 23c0 10.667 3.5 19.667 10.5 27
s15.5 11 25.5 11h53c10 0 18.667 -3.66699 26 -11s11 -16.333 11 -27zM115 773c5.33301 4.66699 10.333 8.83203 15 12.499s10.667 5.5 18 5.5h86c6 0 11.167 -1.5 15.5 -4.5s9.16602 -7.5 14.499 -13.5l82 -79c3.33301 -2.66699 5 -6.66699 5 -12
c0 -6 -2.5 -11.167 -7.5 -15.5s-10.167 -6.5 -15.5 -6.5h-52c-6 0 -12 2.66699 -18 8l-65 66h-6l-64 -66c-6 -5.33301 -12 -8 -18 -8h-52c-6.66699 0 -12 2.16699 -16 6.5s-6 9.83301 -6 16.5c0 1.33301 0.333008 2.83301 1 4.5s1.33398 3.83398 2.00098 6.50098z" />
    <glyph glyph-name="edieresis" unicode="&#xeb;" horiz-adv-x="378" 
d="M221 452c0 10 -2.83301 17.333 -8.5 22s-13.167 7 -22.5 7c-10 0 -18.167 -2.33301 -24.5 -7s-9.5 -12 -9.5 -22v-133h65v133zM347 134c0 -21.333 -4.16699 -41 -12.5 -59s-19.833 -33.167 -34.5 -45.5s-31.5 -22.166 -50.5 -29.499s-38.833 -11 -59.5 -11
c-22.667 0 -43.667 3.66699 -63 11s-36.166 17.166 -50.499 29.499s-25.5 27.5 -33.5 45.5s-12 37.667 -12 59v315c0 21.333 4 41 12 59s19.167 33.5 33.5 46.5s31.166 22.833 50.499 29.5s40.333 10 63 10c20.667 0 40.5 -3.33301 59.5 -10s35.833 -16.5 50.5 -29.5
s26.167 -28.5 34.5 -46.5s12.5 -37.667 12.5 -59v-142c0 -16.667 -6 -30.834 -18 -42.501s-26.333 -17.5 -43 -17.5h-130v-114c0 -9.33301 3.16699 -16.666 9.5 -21.999s14.5 -8 24.5 -8c9.33301 0 16.833 2.66699 22.5 8s8.5 13 8.5 23c0 10.667 3.5 19.667 10.5 27
s15.5 11 25.5 11h53c10 0 18.667 -3.66699 26 -11s11 -16.333 11 -27zM352 695c0 -10 -3.5 -18.5 -10.5 -25.5s-15.833 -10.5 -26.5 -10.5h-51c-10 0 -18.5 3.5 -25.5 10.5s-10.5 15.5 -10.5 25.5v59c0 10 3.5 18.667 10.5 26s15.5 11 25.5 11h51
c10.667 0 19.5 -3.66699 26.5 -11s10.5 -16 10.5 -26v-59zM152 695c0 -10 -3.66699 -18.5 -11 -25.5s-16 -10.5 -26 -10.5h-51c-10 0 -18.667 3.5 -26 10.5s-11 15.5 -11 25.5v59c0 10 3.66699 18.667 11 26s16 11 26 11h51c10 0 18.667 -3.66699 26 -11s11 -16 11 -26v-59z
" />
    <glyph glyph-name="igrave" unicode="&#xec;" 
d="M162 36c0 -9.33301 -3.66699 -17.666 -11 -24.999s-16 -11 -26 -11h-52c-9.33301 0 -17.666 3.66699 -24.999 11s-11 15.666 -11 24.999v510c0 10.667 3.66699 19.334 11 26.001s15.666 10 24.999 10h52c10 0 18.667 -3.33301 26 -10s11 -15.334 11 -26.001v-510z
M165 684c2.66699 -7.33301 2.00098 -13.333 -1.99902 -18s-11.333 -7 -22 -7h-35c-6 0 -13 4.66699 -21 14l-64 67c-4.66699 6 -7 13 -7 21s3.16699 15 9.5 21s17.166 9 32.499 9h38c10 0 17 -1.5 21 -4.5s7 -7.5 9 -13.5z" />
    <glyph glyph-name="iacute" unicode="&#xed;" 
d="M162 36c0 -9.33301 -3.66699 -17.666 -11 -24.999s-16 -11 -26 -11h-52c-9.33301 0 -17.666 3.66699 -24.999 11s-11 15.666 -11 24.999v510c0 10.667 3.66699 19.334 11 26.001s15.666 10 24.999 10h52c10 0 18.667 -3.33301 26 -10s11 -15.334 11 -26.001v-510zM76 773
c3.33301 6 6.83301 10.5 10.5 13.5s10.167 4.5 19.5 4.5h40c15.333 0 26 -3 32 -9s9 -13 9 -21s-2.33301 -15 -7 -21l-63 -67c-8.66699 -9.33301 -15.667 -14 -21 -14h-35c-10.667 0 -18.167 2.33301 -22.5 7s-4.83301 10.667 -1.5 18z" />
    <glyph glyph-name="icircumflex" unicode="&#xee;" 
d="M162 36c0 -9.33301 -3.66699 -17.666 -11 -24.999s-16 -11 -26 -11h-52c-9.33301 0 -17.666 3.66699 -24.999 11s-11 15.666 -11 24.999v510c0 10.667 3.66699 19.334 11 26.001s15.666 10 24.999 10h52c10 0 18.667 -3.33301 26 -10s11 -15.334 11 -26.001v-510zM26 773
c5.33301 4.66699 10.333 8.83203 15 12.499s10.667 5.5 18 5.5h86c6 0 11.167 -1.5 15.5 -4.5s9.16602 -7.5 14.499 -13.5l82 -79c3.33301 -2.66699 5 -6.66699 5 -12c0 -6 -2.5 -11.167 -7.5 -15.5s-10.167 -6.5 -15.5 -6.5h-52c-6 0 -12 2.66699 -18 8l-65 66h-6l-64 -66
c-6 -5.33301 -12 -8 -18 -8h-52c-6.66699 0 -12 2.16699 -16 6.5s-6 9.83301 -6 16.5c0 1.33301 0.333008 2.83301 1 4.5s1.33398 3.83398 2.00098 6.50098z" />
    <glyph glyph-name="idieresis" unicode="&#xef;" 
d="M162 36c0 -9.33301 -3.66699 -17.666 -11 -24.999s-16 -11 -26 -11h-52c-9.33301 0 -17.666 3.66699 -24.999 11s-11 15.666 -11 24.999v510c0 10.667 3.66699 19.334 11 26.001s15.666 10 24.999 10h52c10 0 18.667 -3.33301 26 -10s11 -15.334 11 -26.001v-510z
M263 695c0 -10 -3.5 -18.5 -10.5 -25.5s-15.833 -10.5 -26.5 -10.5h-51c-10 0 -18.5 3.5 -25.5 10.5s-10.5 15.5 -10.5 25.5v59c0 10 3.5 18.667 10.5 26s15.5 11 25.5 11h51c10.667 0 19.5 -3.66699 26.5 -11s10.5 -16 10.5 -26v-59zM63 695
c0 -10 -3.66699 -18.5 -11 -25.5s-16 -10.5 -26 -10.5h-51c-10 0 -18.667 3.5 -26 10.5s-11 15.5 -11 25.5v59c0 10 3.66699 18.667 11 26s16 11 26 11h51c10 0 18.667 -3.66699 26 -11s11 -16 11 -26v-59z" />
    <glyph glyph-name="eth" unicode="&#xf0;" horiz-adv-x="389" 
d="M227 365c0 4.66699 -3.16699 9.33398 -9.5 14.001s-14.166 7 -23.499 7s-17 -2.33301 -23 -7s-9 -9.33398 -9 -14.001v-216c0 -7.33301 3 -13 9 -17s13.667 -6 23 -6s17.166 2 23.499 6s9.5 9.66699 9.5 17v216zM438 690
c3.33301 -5.33301 5.00195 -11.001 5.00195 -17.001c0 -13.333 -6.33301 -24.333 -19 -33l-66 -38v-457c0 -20 -4.33301 -39.167 -13 -57.5s-20.167 -34.833 -34.5 -49.5s-31.666 -26.5 -51.999 -35.5s-41.833 -13.5 -64.5 -13.5c-24 0 -46 4.5 -66 13.5
s-37.167 20.833 -51.5 35.5s-25.5 31.167 -33.5 49.5s-12 37.5 -12 57.5v249c0 13.333 2.66699 26.333 8 39s12.833 24.334 22.5 35.001s21.167 19.167 34.5 25.5s27.666 9.5 42.999 9.5c14.667 0 29.5 -2.5 44.5 -7.5s27.5 -10.833 37.5 -17.5h6v48l-6 -3
c-6.66699 -4 -13 -6 -19 -6c-14 0 -24.667 6.33301 -32 19l-12 22c-2.66699 5.33301 -4 11.333 -4 18s1.5 13 4.5 19s6.83301 10.333 11.5 13l57 33c0 4.66699 -1.66699 8.66699 -5 12s-7 6 -11 8c-4.66699 2.66699 -8.33398 5.33398 -11.001 8.00098s-4 6.33398 -4 11.001
v90c0 7.33301 2.66699 13.666 8 18.999s11.666 8 18.999 8h2.5h2.5c26.667 -6.66699 50 -17.834 70 -33.501s35 -34.167 45 -55.5l31 18c7.33301 4 14 6 20 6c5.33301 0 11 -1.66699 17 -5s10.667 -8 14 -14z" />
    <glyph glyph-name="ntilde" unicode="&#xf1;" horiz-adv-x="386" 
d="M352 36c0 -9.33301 -3.66504 -17.666 -10.998 -24.999s-16.333 -11 -27 -11h-50c-9.33301 0 -17.666 3.66699 -24.999 11s-11 15.666 -11 24.999v415c0 10 -3.33301 17.333 -10 22s-14 7 -22 7c-10 0 -18.167 -2.33301 -24.5 -7s-9.5 -12 -9.5 -22v-415
c0 -9.33301 -3.66699 -17.666 -11 -24.999s-16 -11 -26 -11h-52c-9.33301 0 -17.666 3.66699 -24.999 11s-11 15.666 -11 24.999v510c0 10.667 3.66699 19.334 11 26.001s15.666 10 24.999 10h67c7.33301 0 12.333 -3.33301 15 -10l2 -14h7c10 11.333 23 20.166 39 26.499
s32 9.5 48 9.5c13.333 0 26.166 -2.16699 38.499 -6.5s23.166 -11 32.499 -20s16.666 -19.667 21.999 -32s8 -25.5 8 -39.5v-460zM350.002 762c-6 -70.667 -35.666 -106.002 -88.999 -106.002c-24.667 0 -51 9.66699 -79 29c-17.333 11.333 -29.666 17 -36.999 17
c-10.667 0 -18.334 -2.16699 -23.001 -6.5s-8.33398 -9.16602 -11.001 -14.499s-5.5 -10.166 -8.5 -14.499s-8.16699 -6.5 -15.5 -6.5h-32c-6.66699 0 -11.5 2.33301 -14.5 7s-4.5 10.334 -4.5 17.001v4c5.33301 69.333 35 104 89 104c13.333 0 26.333 -2.33301 39 -7
s26.334 -12 41.001 -22c8 -4.66699 15.167 -8.33398 21.5 -11.001s11.5 -4 15.5 -4c10 0 17.167 2.16699 21.5 6.5s8 9.33301 11 15s6.16699 10.667 9.5 15s7.66602 6.5 12.999 6.5h34c6.66699 0 11.5 -2.5 14.5 -7.5s4.5 -10.833 4.5 -17.5v-4z" />
    <glyph glyph-name="ograve" unicode="&#xf2;" horiz-adv-x="378" 
d="M347 134c0 -21.333 -4.16699 -41 -12.5 -59s-19.833 -33.167 -34.5 -45.5s-31.5 -22.166 -50.5 -29.499s-38.833 -11 -59.5 -11c-22.667 0 -43.667 3.66699 -63 11s-36.166 17.166 -50.499 29.499s-25.5 27.5 -33.5 45.5s-12 37.667 -12 59v314c0 22 4 42 12 60
s19.167 33.5 33.5 46.5s31.166 22.833 50.499 29.5s40.333 10 63 10c20.667 0 40.5 -3.33301 59.5 -10s35.833 -16.5 50.5 -29.5s26.167 -28.5 34.5 -46.5s12.5 -38 12.5 -60v-314zM221 451c0 10 -2.83301 17.333 -8.5 22s-13.167 7 -22.5 7
c-10 0 -18.167 -2.33301 -24.5 -7s-9.5 -12 -9.5 -22v-318c0 -9.33301 3.16699 -16.5 9.5 -21.5s14.5 -7.5 24.5 -7.5c9.33301 0 16.833 2.5 22.5 7.5s8.5 12.167 8.5 21.5v318zM254 684c2.66699 -7.33301 2.00098 -13.333 -1.99902 -18s-11.333 -7 -22 -7h-35
c-6 0 -13 4.66699 -21 14l-64 67c-4.66699 6 -7 13 -7 21s3.16699 15 9.5 21s17.166 9 32.499 9h38c10 0 17 -1.5 21 -4.5s7 -7.5 9 -13.5z" />
    <glyph glyph-name="oacute" unicode="&#xf3;" horiz-adv-x="378" 
d="M347 134c0 -21.333 -4.16699 -41 -12.5 -59s-19.833 -33.167 -34.5 -45.5s-31.5 -22.166 -50.5 -29.499s-38.833 -11 -59.5 -11c-22.667 0 -43.667 3.66699 -63 11s-36.166 17.166 -50.499 29.499s-25.5 27.5 -33.5 45.5s-12 37.667 -12 59v314c0 22 4 42 12 60
s19.167 33.5 33.5 46.5s31.166 22.833 50.499 29.5s40.333 10 63 10c20.667 0 40.5 -3.33301 59.5 -10s35.833 -16.5 50.5 -29.5s26.167 -28.5 34.5 -46.5s12.5 -38 12.5 -60v-314zM221 451c0 10 -2.83301 17.333 -8.5 22s-13.167 7 -22.5 7
c-10 0 -18.167 -2.33301 -24.5 -7s-9.5 -12 -9.5 -22v-318c0 -9.33301 3.16699 -16.5 9.5 -21.5s14.5 -7.5 24.5 -7.5c9.33301 0 16.833 2.5 22.5 7.5s8.5 12.167 8.5 21.5v318zM166 773c3.33301 6 6.83301 10.5 10.5 13.5s10.167 4.5 19.5 4.5h40c15.333 0 26 -3 32 -9
s9 -13 9 -21s-2.33301 -15 -7 -21l-63 -67c-8.66699 -9.33301 -15.667 -14 -21 -14h-35c-10.667 0 -18.167 2.33301 -22.5 7s-4.83301 10.667 -1.5 18z" />
    <glyph glyph-name="ocircumflex" unicode="&#xf4;" horiz-adv-x="378" 
d="M347 134c0 -21.333 -4.16699 -41 -12.5 -59s-19.833 -33.167 -34.5 -45.5s-31.5 -22.166 -50.5 -29.499s-38.833 -11 -59.5 -11c-22.667 0 -43.667 3.66699 -63 11s-36.166 17.166 -50.499 29.499s-25.5 27.5 -33.5 45.5s-12 37.667 -12 59v314c0 22 4 42 12 60
s19.167 33.5 33.5 46.5s31.166 22.833 50.499 29.5s40.333 10 63 10c20.667 0 40.5 -3.33301 59.5 -10s35.833 -16.5 50.5 -29.5s26.167 -28.5 34.5 -46.5s12.5 -38 12.5 -60v-314zM221 451c0 10 -2.83301 17.333 -8.5 22s-13.167 7 -22.5 7
c-10 0 -18.167 -2.33301 -24.5 -7s-9.5 -12 -9.5 -22v-318c0 -9.33301 3.16699 -16.5 9.5 -21.5s14.5 -7.5 24.5 -7.5c9.33301 0 16.833 2.5 22.5 7.5s8.5 12.167 8.5 21.5v318zM115 773c5.33301 4.66699 10.333 8.83203 15 12.499s10.667 5.5 18 5.5h86
c6 0 11.167 -1.5 15.5 -4.5s9.16602 -7.5 14.499 -13.5l82 -79c3.33301 -2.66699 5 -6.66699 5 -12c0 -6 -2.5 -11.167 -7.5 -15.5s-10.167 -6.5 -15.5 -6.5h-52c-6 0 -12 2.66699 -18 8l-65 66h-6l-64 -66c-6 -5.33301 -12 -8 -18 -8h-52c-6.66699 0 -12 2.16699 -16 6.5
s-6 9.83301 -6 16.5c0 1.33301 0.333008 2.83301 1 4.5s1.33398 3.83398 2.00098 6.50098z" />
    <glyph glyph-name="otilde" unicode="&#xf5;" horiz-adv-x="378" 
d="M347 134c0 -21.333 -4.16699 -41 -12.5 -59s-19.833 -33.167 -34.5 -45.5s-31.5 -22.166 -50.5 -29.499s-38.833 -11 -59.5 -11c-22.667 0 -43.667 3.66699 -63 11s-36.166 17.166 -50.499 29.499s-25.5 27.5 -33.5 45.5s-12 37.667 -12 59v314c0 22 4 42 12 60
s19.167 33.5 33.5 46.5s31.166 22.833 50.499 29.5s40.333 10 63 10c20.667 0 40.5 -3.33301 59.5 -10s35.833 -16.5 50.5 -29.5s26.167 -28.5 34.5 -46.5s12.5 -38 12.5 -60v-314zM221 451c0 10 -2.83301 17.333 -8.5 22s-13.167 7 -22.5 7
c-10 0 -18.167 -2.33301 -24.5 -7s-9.5 -12 -9.5 -22v-318c0 -9.33301 3.16699 -16.5 9.5 -21.5s14.5 -7.5 24.5 -7.5c9.33301 0 16.833 2.5 22.5 7.5s8.5 12.167 8.5 21.5v318zM346 762c-6 -70.667 -35.666 -106.002 -88.999 -106.002c-24.667 0 -51 9.66699 -79 29
c-17.333 11.333 -29.666 17 -36.999 17c-10.667 0 -18.334 -2.16699 -23.001 -6.5s-8.33398 -9.16602 -11.001 -14.499s-5.5 -10.166 -8.5 -14.499s-8.16699 -6.5 -15.5 -6.5h-32c-6.66699 0 -11.5 2.33301 -14.5 7s-4.5 10.334 -4.5 17.001v4c5.33301 69.333 35 104 89 104
c13.333 0 26.333 -2.33301 39 -7s26.334 -12 41.001 -22c8 -4.66699 15.167 -8.33398 21.5 -11.001s11.5 -4 15.5 -4c10 0 17.167 2.16699 21.5 6.5s8 9.33301 11 15s6.16699 10.667 9.5 15s7.66602 6.5 12.999 6.5h34c6.66699 0 11.5 -2.5 14.5 -7.5s4.5 -10.833 4.5 -17.5
v-4z" />
    <glyph glyph-name="odieresis" unicode="&#xf6;" horiz-adv-x="378" 
d="M347 134c0 -21.333 -4.16699 -41 -12.5 -59s-19.833 -33.167 -34.5 -45.5s-31.5 -22.166 -50.5 -29.499s-38.833 -11 -59.5 -11c-22.667 0 -43.667 3.66699 -63 11s-36.166 17.166 -50.499 29.499s-25.5 27.5 -33.5 45.5s-12 37.667 -12 59v314c0 22 4 42 12 60
s19.167 33.5 33.5 46.5s31.166 22.833 50.499 29.5s40.333 10 63 10c20.667 0 40.5 -3.33301 59.5 -10s35.833 -16.5 50.5 -29.5s26.167 -28.5 34.5 -46.5s12.5 -38 12.5 -60v-314zM221 451c0 10 -2.83301 17.333 -8.5 22s-13.167 7 -22.5 7
c-10 0 -18.167 -2.33301 -24.5 -7s-9.5 -12 -9.5 -22v-318c0 -9.33301 3.16699 -16.5 9.5 -21.5s14.5 -7.5 24.5 -7.5c9.33301 0 16.833 2.5 22.5 7.5s8.5 12.167 8.5 21.5v318zM352 695c0 -10 -3.5 -18.5 -10.5 -25.5s-15.833 -10.5 -26.5 -10.5h-51
c-10 0 -18.5 3.5 -25.5 10.5s-10.5 15.5 -10.5 25.5v59c0 10 3.5 18.667 10.5 26s15.5 11 25.5 11h51c10.667 0 19.5 -3.66699 26.5 -11s10.5 -16 10.5 -26v-59zM152 695c0 -10 -3.66699 -18.5 -11 -25.5s-16 -10.5 -26 -10.5h-51c-10 0 -18.667 3.5 -26 10.5
s-11 15.5 -11 25.5v59c0 10 3.66699 18.667 11 26s16 11 26 11h51c10 0 18.667 -3.66699 26 -11s11 -16 11 -26v-59z" />
    <glyph glyph-name="divide" unicode="&#xf7;" horiz-adv-x="496" 
d="M472 283c0 -9.33301 -3.66699 -17.666 -11 -24.999s-16.333 -11 -27 -11h-372c-10 0 -18.5 3.66699 -25.5 11s-10.5 15.666 -10.5 24.999v51c0 10 3.5 18.667 10.5 26s15.5 11 25.5 11h372c10.667 0 19.667 -3.66699 27 -11s11 -16 11 -26v-51zM307 468
c0 -9.33301 -3.5 -17.666 -10.5 -24.999s-15.5 -11 -25.5 -11h-50c-10.667 0 -19.5 3.66699 -26.5 11s-10.5 15.666 -10.5 24.999v84c0 10.667 3.5 19.5 10.5 26.5s15.833 10.5 26.5 10.5h50c10 0 18.5 -3.5 25.5 -10.5s10.5 -15.833 10.5 -26.5v-84zM307 70
c0 -10 -3.5 -18.5 -10.5 -25.5s-15.5 -10.5 -25.5 -10.5h-50c-10.667 0 -19.5 3.5 -26.5 10.5s-10.5 15.5 -10.5 25.5v84c0 10 3.5 18.667 10.5 26s15.833 11 26.5 11h50c10 0 18.5 -3.66699 25.5 -11s10.5 -16 10.5 -26v-84z" />
    <glyph glyph-name="oslash" unicode="&#xf8;" horiz-adv-x="378" 
d="M221 451c0 10 -2.83301 17.333 -8.5 22s-13.167 7 -22.5 7c-10 0 -18.167 -2.33301 -24.5 -7s-9.5 -12 -9.5 -22v-318c0 -9.33301 3.16699 -16.5 9.5 -21.5s14.5 -7.5 24.5 -7.5c9.33301 0 16.833 2.5 22.5 7.5s8.5 12.167 8.5 21.5v318zM307 613
c11.333 0 20.335 -3.83203 27.002 -11.499s10 -16.167 10 -25.5c0 -4 -0.333008 -6.66699 -1 -8l-12 -53c10.667 -20 16 -42.333 16 -67v-314c0 -21.333 -4.16699 -41 -12.5 -59s-19.833 -33.167 -34.5 -45.5s-31.5 -22.166 -50.5 -29.499s-38.833 -11 -59.5 -11
c-27.333 0 -51.333 5.33301 -72 16h-6l-3 -9c-2 -8 -5.83301 -14.333 -11.5 -19s-12.834 -7 -21.501 -7h-8c-10 0 -18.5 3.66699 -25.5 11s-10.5 15.666 -10.5 24.999v10l15 54c-4.66699 9.33301 -8.5 19.666 -11.5 30.999s-4.5 22.333 -4.5 33v314c0 22 4 42 12 60
s19.167 33.5 33.5 46.5s31.166 22.833 50.499 29.5s40.333 10 63 10s45.667 -4.66699 69 -14h6l3 8c1.33301 7.33301 4.83301 13.333 10.5 18s12.5 7 20.5 7h8z" />
    <glyph glyph-name="ugrave" unicode="&#xf9;" horiz-adv-x="385" 
d="M348 36c0 -9.33301 -3.33496 -17.667 -10.002 -25s-15.667 -11 -27 -11h-63c-8 0 -12.333 3.66699 -13 11l-5 14h-7c-9.33301 -10 -22.166 -18.5 -38.499 -25.5s-33.166 -10.5 -50.499 -10.5c-13.333 0 -26.166 2.5 -38.499 7.5s-23 11.5 -32 19.5s-16.167 18 -21.5 30
s-8 26.333 -8 43v457c0 10.667 3.5 19.334 10.5 26.001s15.5 10 25.5 10h51c11.333 0 20.333 -3.33301 27 -10s10 -15.334 10 -26.001v-413c0 -9.33301 3.33301 -16.5 10 -21.5s14.667 -7.5 24 -7.5c8.66699 0 16 2.5 22 7.5s9 12.167 9 21.5v413
c0 10.667 3.66699 19.334 11 26.001s15.666 10 24.999 10h52c11.333 0 20.333 -3.33301 27 -10s10 -15.334 10 -26.001v-510zM257.998 683.999c2.66699 -7.33301 2.00098 -13.333 -1.99902 -18s-11.333 -7 -22 -7h-35c-6 0 -13 4.66699 -21 14l-64 67
c-4.66699 6 -7 13 -7 21s3.16699 15 9.5 21s17.166 9 32.499 9h38c10 0 17 -1.5 21 -4.5s7 -7.5 9 -13.5z" />
    <glyph glyph-name="uacute" unicode="&#xfa;" horiz-adv-x="385" 
d="M348 36c0 -9.33301 -3.33496 -17.667 -10.002 -25s-15.667 -11 -27 -11h-63c-8 0 -12.333 3.66699 -13 11l-5 14h-7c-9.33301 -10 -22.166 -18.5 -38.499 -25.5s-33.166 -10.5 -50.499 -10.5c-13.333 0 -26.166 2.5 -38.499 7.5s-23 11.5 -32 19.5s-16.167 18 -21.5 30
s-8 26.333 -8 43v457c0 10.667 3.5 19.334 10.5 26.001s15.5 10 25.5 10h51c11.333 0 20.333 -3.33301 27 -10s10 -15.334 10 -26.001v-413c0 -9.33301 3.33301 -16.5 10 -21.5s14.667 -7.5 24 -7.5c8.66699 0 16 2.5 22 7.5s9 12.167 9 21.5v413
c0 10.667 3.66699 19.334 11 26.001s15.666 10 24.999 10h52c11.333 0 20.333 -3.33301 27 -10s10 -15.334 10 -26.001v-510zM168.998 772.999c3.33301 6 6.83301 10.5 10.5 13.5s10.167 4.5 19.5 4.5h40c15.333 0 26 -3 32 -9s9 -13 9 -21s-2.33301 -15 -7 -21l-63 -67
c-8.66699 -9.33301 -15.667 -14 -21 -14h-35c-10.667 0 -18.167 2.33301 -22.5 7s-4.83301 10.667 -1.5 18z" />
    <glyph glyph-name="ucircumflex" unicode="&#xfb;" horiz-adv-x="385" 
d="M348 36c0 -9.33301 -3.33496 -17.667 -10.002 -25s-15.667 -11 -27 -11h-63c-8 0 -12.333 3.66699 -13 11l-5 14h-7c-9.33301 -10 -22.166 -18.5 -38.499 -25.5s-33.166 -10.5 -50.499 -10.5c-13.333 0 -26.166 2.5 -38.499 7.5s-23 11.5 -32 19.5s-16.167 18 -21.5 30
s-8 26.333 -8 43v457c0 10.667 3.5 19.334 10.5 26.001s15.5 10 25.5 10h51c11.333 0 20.333 -3.33301 27 -10s10 -15.334 10 -26.001v-413c0 -9.33301 3.33301 -16.5 10 -21.5s14.667 -7.5 24 -7.5c8.66699 0 16 2.5 22 7.5s9 12.167 9 21.5v413
c0 10.667 3.66699 19.334 11 26.001s15.666 10 24.999 10h52c11.333 0 20.333 -3.33301 27 -10s10 -15.334 10 -26.001v-510zM117.998 772.999c5.33301 4.66699 10.333 8.83203 15 12.499s10.667 5.5 18 5.5h86c6 0 11.167 -1.5 15.5 -4.5s9.16602 -7.5 14.499 -13.5l82 -79
c3.33301 -2.66699 5 -6.66699 5 -12c0 -6 -2.5 -11.167 -7.5 -15.5s-10.167 -6.5 -15.5 -6.5h-52c-6 0 -12 2.66699 -18 8l-65 66h-6l-64 -66c-6 -5.33301 -12 -8 -18 -8h-52c-6.66699 0 -12 2.16699 -16 6.5s-6 9.83301 -6 16.5c0 1.33301 0.333008 2.83301 1 4.5
s1.33398 3.83398 2.00098 6.50098z" />
    <glyph glyph-name="udieresis" unicode="&#xfc;" horiz-adv-x="385" 
d="M348 36c0 -9.33301 -3.33496 -17.667 -10.002 -25s-15.667 -11 -27 -11h-63c-8 0 -12.333 3.66699 -13 11l-5 14h-7c-9.33301 -10 -22.166 -18.5 -38.499 -25.5s-33.166 -10.5 -50.499 -10.5c-13.333 0 -26.166 2.5 -38.499 7.5s-23 11.5 -32 19.5s-16.167 18 -21.5 30
s-8 26.333 -8 43v457c0 10.667 3.5 19.334 10.5 26.001s15.5 10 25.5 10h51c11.333 0 20.333 -3.33301 27 -10s10 -15.334 10 -26.001v-413c0 -9.33301 3.33301 -16.5 10 -21.5s14.667 -7.5 24 -7.5c8.66699 0 16 2.5 22 7.5s9 12.167 9 21.5v413
c0 10.667 3.66699 19.334 11 26.001s15.666 10 24.999 10h52c11.333 0 20.333 -3.33301 27 -10s10 -15.334 10 -26.001v-510zM355.998 694.999c0 -10 -3.5 -18.5 -10.5 -25.5s-15.833 -10.5 -26.5 -10.5h-51c-10 0 -18.5 3.5 -25.5 10.5s-10.5 15.5 -10.5 25.5v59
c0 10 3.5 18.667 10.5 26s15.5 11 25.5 11h51c10.667 0 19.5 -3.66699 26.5 -11s10.5 -16 10.5 -26v-59zM155.998 694.999c0 -10 -3.66699 -18.5 -11 -25.5s-16 -10.5 -26 -10.5h-51c-10 0 -18.667 3.5 -26 10.5s-11 15.5 -11 25.5v59c0 10 3.66699 18.667 11 26
s16 11 26 11h51c10 0 18.667 -3.66699 26 -11s11 -16 11 -26v-59z" />
    <glyph glyph-name="yacute" unicode="&#xfd;" horiz-adv-x="348" 
d="M300 582c11.333 0 20.3311 -3.66797 26.998 -11.001s10 -15.666 10 -24.999c0 -3.33301 -0.333008 -5.66602 -1 -6.99902l-131 -646c-6 -31.333 -19.667 -55.666 -41 -72.999s-50.666 -26 -87.999 -26h-16c-10.667 0 -18.334 3 -23.001 9s-7 13 -7 21v55
c0 8 2.83301 15 8.5 21s12.834 9 21.501 9c10.667 0 19.167 2.16699 25.5 6.5s10.166 9.83301 11.499 16.5l24 102l-52 252l-53 253c-1.33301 1.33301 -2 3.66602 -2 6.99902c0 9.33301 3.66699 17.666 11 24.999s16.333 11 27 11h45c10 0 18.333 -2.83301 25 -8.5
s10.334 -13.167 11.001 -22.5l40 -287h8l39 287c0.666992 9.33301 4.33398 16.833 11.001 22.5s15 8.5 25 8.5h44zM150.998 772.999c3.33301 6 6.83301 10.5 10.5 13.5s10.167 4.5 19.5 4.5h40c15.333 0 26 -3 32 -9s9 -13 9 -21s-2.33301 -15 -7 -21l-63 -67
c-8.66699 -9.33301 -15.667 -14 -21 -14h-35c-10.667 0 -18.167 2.33301 -22.5 7s-4.83301 10.667 -1.5 18z" />
    <glyph glyph-name="thorn" unicode="&#xfe;" horiz-adv-x="392" 
d="M228 550c0 10 -3.33301 17.167 -10 21.5s-15 6.5 -25 6.5c-8.66699 0 -16 -2.16699 -22 -6.5s-9 -11.5 -9 -21.5v-317c0 -10 3 -17.333 9 -22s13.333 -7 22 -7c10 0 18.333 2.33301 25 7s10 12 10 22v317zM352 187c0 -16 -2.66602 -29.9971 -7.99902 -41.9971
s-12.666 -22 -21.999 -30s-20.166 -14.167 -32.499 -18.5s-25.166 -6.5 -38.499 -6.5c-16.667 0 -32.834 3.16699 -48.501 9.5s-28.5 15.166 -38.5 26.499h-9v-115c-2.66699 -7.33301 -7.66699 -11 -15 -11h-67c-9.33301 0 -17.666 3.66699 -24.999 11
s-11 15.666 -11 24.999v718c0 10 3.66699 18.667 11 26s15.666 11 24.999 11h52c10 0 18.667 -3.66699 26 -11s11 -16 11 -26v-98h7c10 11.333 22.167 20.5 36.5 27.5s29.5 10.5 45.5 10.5c13.333 0 26.166 -2.33301 38.499 -7s23.166 -11.334 32.499 -20.001
s16.666 -19 21.999 -31s8 -25.667 8 -41v-408z" />
    <glyph glyph-name="ydieresis" unicode="&#xff;" horiz-adv-x="348" 
d="M300 582c11.333 0 20.3311 -3.66797 26.998 -11.001s10 -15.666 10 -24.999c0 -3.33301 -0.333008 -5.66602 -1 -6.99902l-131 -646c-6 -31.333 -19.667 -55.666 -41 -72.999s-50.666 -26 -87.999 -26h-16c-10.667 0 -18.334 3 -23.001 9s-7 13 -7 21v55
c0 8 2.83301 15 8.5 21s12.834 9 21.501 9c10.667 0 19.167 2.16699 25.5 6.5s10.166 9.83301 11.499 16.5l24 102l-52 252l-53 253c-1.33301 1.33301 -2 3.66602 -2 6.99902c0 9.33301 3.66699 17.666 11 24.999s16.333 11 27 11h45c10 0 18.333 -2.83301 25 -8.5
s10.334 -13.167 11.001 -22.5l40 -287h8l39 287c0.666992 9.33301 4.33398 16.833 11.001 22.5s15 8.5 25 8.5h44zM336.998 694.999c0 -10 -3.5 -18.5 -10.5 -25.5s-15.833 -10.5 -26.5 -10.5h-51c-10 0 -18.5 3.5 -25.5 10.5s-10.5 15.5 -10.5 25.5v59
c0 10 3.5 18.667 10.5 26s15.5 11 25.5 11h51c10.667 0 19.5 -3.66699 26.5 -11s10.5 -16 10.5 -26v-59zM136.998 694.999c0 -10 -3.66699 -18.5 -11 -25.5s-16 -10.5 -26 -10.5h-51c-10 0 -18.667 3.5 -26 10.5s-11 15.5 -11 25.5v59c0 10 3.66699 18.667 11 26
s16 11 26 11h51c10 0 18.667 -3.66699 26 -11s11 -16 11 -26v-59z" />
    <glyph glyph-name="Amacron" unicode="&#x100;" horiz-adv-x="386" 
d="M191 524h-9l-27 -260h53zM362 37c0 -10 -3.33203 -18.667 -9.99902 -26s-15.334 -11 -26.001 -11h-67c-9.33301 0 -17.5 3.16699 -24.5 9.5s-11.167 14.5 -12.5 24.5l-6 90h-74l-9 -92c-1.33301 -9.33301 -5.5 -17 -12.5 -23s-14.833 -9 -23.5 -9h-48
c-9.33301 0 -17.666 3.66699 -24.999 11s-11 16 -11 26v4l88 717c0.666992 9.33301 4.66699 17.166 12 23.499s15.666 9.5 24.999 9.5h98c10 0 18.333 -3.16699 25 -9.5s11 -14.166 13 -23.499zM297.001 892c0 -9.33301 -3.5 -17.666 -10.5 -24.999s-15.833 -11 -26.5 -11
h-152c-10 0 -18.5 3.66699 -25.5 11s-10.5 15.666 -10.5 24.999v16c0 9.33301 3.5 17.666 10.5 24.999s15.5 11 25.5 11h152c10.667 0 19.5 -3.66699 26.5 -11s10.5 -15.666 10.5 -24.999v-16z" />
    <glyph glyph-name="amacron" unicode="&#x101;" horiz-adv-x="368" 
d="M211 256c-11.333 -4 -21.001 -8.66797 -29.001 -14.001s-14.5 -11.166 -19.5 -17.499s-9.16699 -13.333 -12.5 -21s-4.66602 -29.5 -3.99902 -65.5c0 -22.667 11 -34 33 -34c21.333 0 32 11.333 32 34v118zM342.999 43.999l-0.000976562 -7.00098
c0 -9.33301 -3.33301 -17.833 -10 -25.5s-15.334 -11.5 -26.001 -11.5h-42c-8 0 -12.667 3.66699 -14 11l-3 21h-7c-8.66699 -13.333 -20.167 -23.833 -34.5 -31.5s-31.166 -11.5 -50.499 -11.5c-41.333 0 -74.666 12.833 -99.999 38.5s-38 61.167 -38 106.5
c0 33.333 2.83301 59.5 8.5 78.5s13 34.667 22 47s19.333 23.833 31 34.5s23.167 20 34.5 28c28 17.333 60.333 31.333 97 42v87c0 10 -1.83301 17.333 -5.5 22s-9.83398 7 -18.501 7c-9.33301 0 -15.666 -2.33301 -18.999 -7s-5 -12 -5 -22v-14
c0 -10 -3.83301 -18.5 -11.5 -25.5s-16.167 -10.5 -25.5 -10.5h-58c-9.33301 0 -17.666 3.5 -24.999 10.5s-11 15.5 -11 25.5v11c0 22 4.33301 42 13 60s20.167 33.5 34.5 46.5s31 22.833 50 29.5s39.5 10 61.5 10c21.333 0 41 -3.33301 59 -10s33.167 -16.5 45.5 -29.5
s22.166 -28.5 29.499 -46.5s11 -38 11 -60v-328c0 -12.667 0.666992 -25.167 2 -37.5s3 -25.166 5 -38.499zM296.998 695.998c0 -9.33301 -3.5 -17.666 -10.5 -24.999s-15.833 -11 -26.5 -11h-152c-10 0 -18.5 3.66699 -25.5 11s-10.5 15.666 -10.5 24.999v16
c0 9.33301 3.5 17.666 10.5 24.999s15.5 11 25.5 11h152c10.667 0 19.5 -3.66699 26.5 -11s10.5 -15.666 10.5 -24.999v-16z" />
    <glyph glyph-name="Abreve" unicode="&#x102;" horiz-adv-x="386" 
d="M191 524h-9l-27 -260h53zM362 37c0 -10 -3.33203 -18.667 -9.99902 -26s-15.334 -11 -26.001 -11h-67c-9.33301 0 -17.5 3.16699 -24.5 9.5s-11.167 14.5 -12.5 24.5l-6 90h-74l-9 -92c-1.33301 -9.33301 -5.5 -17 -12.5 -23s-14.833 -9 -23.5 -9h-48
c-9.33301 0 -17.666 3.66699 -24.999 11s-11 16 -11 26v4l88 717c0.666992 9.33301 4.66699 17.166 12 23.499s15.666 9.5 24.999 9.5h98c10 0 18.333 -3.16699 25 -9.5s11 -14.166 13 -23.499zM190.001 933c16 0 29.9961 1.83203 41.9961 5.49902s20.667 12.167 26 25.5
c2.66699 6.66699 5.83398 12.334 9.50098 17.001s9.16699 7 16.5 7h18c6.66699 0 12 -2.33301 16 -7s6 -10.667 6 -18c-6 -36 -21.333 -63.167 -46 -81.5s-54 -27.5 -88 -27.5c-32.667 0 -61.167 9.33301 -85.5 28s-39.166 46.334 -44.499 83.001c0 6 2 11.333 6 16
s9 7 15 7h18c7.33301 0 13 -2.33301 17 -7s7.33301 -10.334 10 -17.001c4.66699 -13.333 12.834 -21.833 24.501 -25.5s24.834 -5.5 39.501 -5.5z" />
    <glyph glyph-name="abreve" unicode="&#x103;" horiz-adv-x="368" 
d="M211 256c-11.333 -4 -21.001 -8.66797 -29.001 -14.001s-14.5 -11.166 -19.5 -17.499s-9.16699 -13.333 -12.5 -21s-4.66602 -29.5 -3.99902 -65.5c0 -22.667 11 -34 33 -34c21.333 0 32 11.333 32 34v118zM342.999 43.999l-0.000976562 -7.00098
c0 -9.33301 -3.33301 -17.833 -10 -25.5s-15.334 -11.5 -26.001 -11.5h-42c-8 0 -12.667 3.66699 -14 11l-3 21h-7c-8.66699 -13.333 -20.167 -23.833 -34.5 -31.5s-31.166 -11.5 -50.499 -11.5c-41.333 0 -74.666 12.833 -99.999 38.5s-38 61.167 -38 106.5
c0 33.333 2.83301 59.5 8.5 78.5s13 34.667 22 47s19.333 23.833 31 34.5s23.167 20 34.5 28c28 17.333 60.333 31.333 97 42v87c0 10 -1.83301 17.333 -5.5 22s-9.83398 7 -18.501 7c-9.33301 0 -15.666 -2.33301 -18.999 -7s-5 -12 -5 -22v-14
c0 -10 -3.83301 -18.5 -11.5 -25.5s-16.167 -10.5 -25.5 -10.5h-58c-9.33301 0 -17.666 3.5 -24.999 10.5s-11 15.5 -11 25.5v11c0 22 4.33301 42 13 60s20.167 33.5 34.5 46.5s31 22.833 50 29.5s39.5 10 61.5 10c21.333 0 41 -3.33301 59 -10s33.167 -16.5 45.5 -29.5
s22.166 -28.5 29.499 -46.5s11 -38 11 -60v-328c0 -12.667 0.666992 -25.167 2 -37.5s3 -25.166 5 -38.499zM181.998 736.998c16 0 29.9961 1.83203 41.9961 5.49902s20.667 12.167 26 25.5c2.66699 6.66699 5.83398 12.334 9.50098 17.001s9.16699 7 16.5 7h18
c6.66699 0 12 -2.33301 16 -7s6 -10.667 6 -18c-6 -36 -21.333 -63.167 -46 -81.5s-54 -27.5 -88 -27.5c-32.667 0 -61.167 9.33301 -85.5 28s-39.166 46.334 -44.499 83.001c0 6 2 11.333 6 16s9 7 15 7h18c7.33301 0 13 -2.33301 17 -7s7.33301 -10.334 10 -17.001
c4.66699 -13.333 12.834 -21.833 24.501 -25.5s24.834 -5.5 39.501 -5.5z" />
    <glyph glyph-name="Aogonek" unicode="&#x104;" horiz-adv-x="386" 
d="M191 524h-9l-27 -260h53zM362 37c0 -10 -3.33203 -18.667 -9.99902 -26s-15.334 -11 -26.001 -11h-67c-9.33301 0 -17.5 3.16699 -24.5 9.5s-11.167 14.5 -12.5 24.5l-6 90h-74l-9 -92c-1.33301 -9.33301 -5.5 -17 -12.5 -23s-14.833 -9 -23.5 -9h-48
c-9.33301 0 -17.666 3.66699 -24.999 11s-11 16 -11 26v4l88 717c0.666992 9.33301 4.66699 17.166 12 23.499s15.666 9.5 24.999 9.5h98c10 0 18.333 -3.16699 25 -9.5s11 -14.166 13 -23.499zM377.001 -167c-13.333 -8 -26.668 -14.166 -40.001 -18.499
s-26.666 -6.5 -39.999 -6.5c-42.667 0 -64 24.333 -64 73c0 34 17.333 73.667 52 119h44c-23.333 -44.667 -35 -79.334 -35 -104.001c0 -25.333 10.333 -38 31 -38c5.33301 0 11 0.833008 17 2.5s12 2.5 18 2.5s11.333 -1.83301 16 -5.5s7 -7.83398 7 -12.501
c0 -1.33301 -0.5 -3.16602 -1.5 -5.49902s-2.5 -4.5 -4.5 -6.5z" />
    <glyph glyph-name="aogonek" unicode="&#x105;" horiz-adv-x="368" 
d="M211 256c-11.333 -4 -21.001 -8.66797 -29.001 -14.001s-14.5 -11.166 -19.5 -17.499s-9.16699 -13.333 -12.5 -21s-4.66602 -29.5 -3.99902 -65.5c0 -22.667 11 -34 33 -34c21.333 0 32 11.333 32 34v118zM342.999 43.999l-0.000976562 -7.00098
c0 -9.33301 -3.33301 -17.833 -10 -25.5s-15.334 -11.5 -26.001 -11.5h-42c-8 0 -12.667 3.66699 -14 11l-3 21h-7c-8.66699 -13.333 -20.167 -23.833 -34.5 -31.5s-31.166 -11.5 -50.499 -11.5c-41.333 0 -74.666 12.833 -99.999 38.5s-38 61.167 -38 106.5
c0 33.333 2.83301 59.5 8.5 78.5s13 34.667 22 47s19.333 23.833 31 34.5s23.167 20 34.5 28c28 17.333 60.333 31.333 97 42v87c0 10 -1.83301 17.333 -5.5 22s-9.83398 7 -18.501 7c-9.33301 0 -15.666 -2.33301 -18.999 -7s-5 -12 -5 -22v-14
c0 -10 -3.83301 -18.5 -11.5 -25.5s-16.167 -10.5 -25.5 -10.5h-58c-9.33301 0 -17.666 3.5 -24.999 10.5s-11 15.5 -11 25.5v11c0 22 4.33301 42 13 60s20.167 33.5 34.5 46.5s31 22.833 50 29.5s39.5 10 61.5 10c21.333 0 41 -3.33301 59 -10s33.167 -16.5 45.5 -29.5
s22.166 -28.5 29.499 -46.5s11 -38 11 -60v-328c0 -12.667 0.666992 -25.167 2 -37.5s3 -25.166 5 -38.499zM356.998 -167.002c-13.333 -8 -26.668 -14.166 -40.001 -18.499s-26.666 -6.5 -39.999 -6.5c-42.667 0 -64 24.333 -64 73c0 34 17.333 73.667 52 119h44
c-23.333 -44.667 -35 -79.334 -35 -104.001c0 -25.333 10.333 -38 31 -38c5.33301 0 11 0.833008 17 2.5s12 2.5 18 2.5s11.333 -1.83301 16 -5.5s7 -7.83398 7 -12.501c0 -1.33301 -0.5 -3.16602 -1.5 -5.49902s-2.5 -4.5 -4.5 -6.5z" />
    <glyph glyph-name="Cacute" unicode="&#x106;" horiz-adv-x="401" 
d="M370 145c0 -20 -4.5 -39.167 -13.5 -57.5s-20.833 -34.833 -35.5 -49.5s-32.5 -26.5 -53.5 -35.5s-42.833 -13.5 -65.5 -13.5c-23.333 0 -45.5 4.5 -66.5 13.5s-39 20.833 -54 35.5s-27.167 31.167 -36.5 49.5s-14 37.5 -14 57.5v501c0 20 4.66699 39.167 14 57.5
s21.5 34.833 36.5 49.5s33 26.167 54 34.5s43.167 12.5 66.5 12.5c22.667 0 44.5 -4.16699 65.5 -12.5s38.833 -19.833 53.5 -34.5s26.5 -31.167 35.5 -49.5s13.5 -37.5 13.5 -57.5v-100c0 -10.667 -3.66699 -19.5 -11 -26.5s-16.333 -10.5 -27 -10.5h-62
c-9.33301 0 -17.666 3.5 -24.999 10.5s-11 15.833 -11 26.5v95c0 8 -3 14 -9 18s-13.667 6 -23 6s-17 -2 -23 -6s-9 -10 -9 -18v-492c0 -7.33301 3 -13 9 -17s13.667 -6 23 -6s17 2 23 6s9 9.66699 9 17v96c0 10 3.66699 18.667 11 26s15.666 11 24.999 11h62
c10.667 0 19.667 -3.66699 27 -11s11 -16 11 -26v-100zM177 969c3.33301 6 6.83301 10.5 10.5 13.5s10.167 4.5 19.5 4.5h40c15.333 0 26 -3 32 -9s9 -13 9 -21s-2.33301 -15 -7 -21l-63 -67c-8.66699 -9.33301 -15.667 -14 -21 -14h-35c-10.667 0 -18.167 2.33301 -22.5 7
s-4.83301 10.667 -1.5 18z" />
    <glyph glyph-name="cacute" unicode="&#x107;" horiz-adv-x="372" 
d="M347 134c0 -21.333 -4.16699 -41 -12.5 -59s-19.833 -33.167 -34.5 -45.5s-31.5 -22.166 -50.5 -29.499s-38.833 -11 -59.5 -11c-22.667 0 -43.667 3.66699 -63 11s-36.166 17.166 -50.499 29.499s-25.5 27.5 -33.5 45.5s-12 37.667 -12 59v314c0 22 4 42 12 60
s19.167 33.5 33.5 46.5s31.166 22.833 50.499 29.5s40.333 10 63 10c20.667 0 40.5 -3.33301 59.5 -10s35.833 -16.5 50.5 -29.5s26.167 -28.5 34.5 -46.5s12.5 -38 12.5 -60v-33c0 -9.33301 -3.66699 -17.666 -11 -24.999s-16 -11 -26 -11h-53
c-10 0 -18.5 3.66699 -25.5 11s-10.5 15.666 -10.5 24.999v36c0 10 -2.83301 17.333 -8.5 22s-13.167 7 -22.5 7c-10 0 -18.167 -2.33301 -24.5 -7s-9.5 -12 -9.5 -22v-318c0 -9.33301 3.16699 -16.5 9.5 -21.5s14.5 -7.5 24.5 -7.5c9.33301 0 16.833 2.5 22.5 7.5
s8.5 12.167 8.5 21.5v33c0 10 3.5 18.667 10.5 26s15.5 11 25.5 11h53c10 0 18.667 -3.66699 26 -11s11 -16 11 -26v-32zM163 773c3.33301 6 6.83301 10.5 10.5 13.5s10.167 4.5 19.5 4.5h40c15.333 0 26 -3 32 -9s9 -13 9 -21s-2.33301 -15 -7 -21l-63 -67
c-8.66699 -9.33301 -15.667 -14 -21 -14h-35c-10.667 0 -18.167 2.33301 -22.5 7s-4.83301 10.667 -1.5 18z" />
    <glyph glyph-name="Ccircumflex" unicode="&#x108;" horiz-adv-x="401" 
d="M370 145c0 -20 -4.5 -39.167 -13.5 -57.5s-20.833 -34.833 -35.5 -49.5s-32.5 -26.5 -53.5 -35.5s-42.833 -13.5 -65.5 -13.5c-23.333 0 -45.5 4.5 -66.5 13.5s-39 20.833 -54 35.5s-27.167 31.167 -36.5 49.5s-14 37.5 -14 57.5v501c0 20 4.66699 39.167 14 57.5
s21.5 34.833 36.5 49.5s33 26.167 54 34.5s43.167 12.5 66.5 12.5c22.667 0 44.5 -4.16699 65.5 -12.5s38.833 -19.833 53.5 -34.5s26.5 -31.167 35.5 -49.5s13.5 -37.5 13.5 -57.5v-100c0 -10.667 -3.66699 -19.5 -11 -26.5s-16.333 -10.5 -27 -10.5h-62
c-9.33301 0 -17.666 3.5 -24.999 10.5s-11 15.833 -11 26.5v95c0 8 -3 14 -9 18s-13.667 6 -23 6s-17 -2 -23 -6s-9 -10 -9 -18v-492c0 -7.33301 3 -13 9 -17s13.667 -6 23 -6s17 2 23 6s9 9.66699 9 17v96c0 10 3.66699 18.667 11 26s15.666 11 24.999 11h62
c10.667 0 19.667 -3.66699 27 -11s11 -16 11 -26v-100zM124 969c5.33301 4.66699 10.333 8.83203 15 12.499s10.667 5.5 18 5.5h86c6 0 11.167 -1.5 15.5 -4.5s9.16602 -7.5 14.499 -13.5l82 -79c3.33301 -2.66699 5 -6.66699 5 -12c0 -6 -2.5 -11.167 -7.5 -15.5
s-10.167 -6.5 -15.5 -6.5h-52c-6 0 -12 2.66699 -18 8l-65 66h-6l-64 -66c-6 -5.33301 -12 -8 -18 -8h-52c-6.66699 0 -12 2.16699 -16 6.5s-6 9.83301 -6 16.5c0 1.33301 0.333008 2.83301 1 4.5s1.33398 3.83398 2.00098 6.50098z" />
    <glyph glyph-name="ccircumflex" unicode="&#x109;" horiz-adv-x="372" 
d="M347 134c0 -21.333 -4.16699 -41 -12.5 -59s-19.833 -33.167 -34.5 -45.5s-31.5 -22.166 -50.5 -29.499s-38.833 -11 -59.5 -11c-22.667 0 -43.667 3.66699 -63 11s-36.166 17.166 -50.499 29.499s-25.5 27.5 -33.5 45.5s-12 37.667 -12 59v314c0 22 4 42 12 60
s19.167 33.5 33.5 46.5s31.166 22.833 50.499 29.5s40.333 10 63 10c20.667 0 40.5 -3.33301 59.5 -10s35.833 -16.5 50.5 -29.5s26.167 -28.5 34.5 -46.5s12.5 -38 12.5 -60v-33c0 -9.33301 -3.66699 -17.666 -11 -24.999s-16 -11 -26 -11h-53
c-10 0 -18.5 3.66699 -25.5 11s-10.5 15.666 -10.5 24.999v36c0 10 -2.83301 17.333 -8.5 22s-13.167 7 -22.5 7c-10 0 -18.167 -2.33301 -24.5 -7s-9.5 -12 -9.5 -22v-318c0 -9.33301 3.16699 -16.5 9.5 -21.5s14.5 -7.5 24.5 -7.5c9.33301 0 16.833 2.5 22.5 7.5
s8.5 12.167 8.5 21.5v33c0 10 3.5 18.667 10.5 26s15.5 11 25.5 11h53c10 0 18.667 -3.66699 26 -11s11 -16 11 -26v-32zM112 773c5.33301 4.66699 10.333 8.83203 15 12.499s10.667 5.5 18 5.5h86c6 0 11.167 -1.5 15.5 -4.5s9.16602 -7.5 14.499 -13.5l82 -79
c3.33301 -2.66699 5 -6.66699 5 -12c0 -6 -2.5 -11.167 -7.5 -15.5s-10.167 -6.5 -15.5 -6.5h-52c-6 0 -12 2.66699 -18 8l-65 66h-6l-64 -66c-6 -5.33301 -12 -8 -18 -8h-52c-6.66699 0 -12 2.16699 -16 6.5s-6 9.83301 -6 16.5c0 1.33301 0.333008 2.83301 1 4.5
s1.33398 3.83398 2.00098 6.50098z" />
    <glyph glyph-name="Cdotaccent" unicode="&#x10a;" horiz-adv-x="401" 
d="M370 145c0 -20 -4.5 -39.167 -13.5 -57.5s-20.833 -34.833 -35.5 -49.5s-32.5 -26.5 -53.5 -35.5s-42.833 -13.5 -65.5 -13.5c-23.333 0 -45.5 4.5 -66.5 13.5s-39 20.833 -54 35.5s-27.167 31.167 -36.5 49.5s-14 37.5 -14 57.5v501c0 20 4.66699 39.167 14 57.5
s21.5 34.833 36.5 49.5s33 26.167 54 34.5s43.167 12.5 66.5 12.5c22.667 0 44.5 -4.16699 65.5 -12.5s38.833 -19.833 53.5 -34.5s26.5 -31.167 35.5 -49.5s13.5 -37.5 13.5 -57.5v-100c0 -10.667 -3.66699 -19.5 -11 -26.5s-16.333 -10.5 -27 -10.5h-62
c-9.33301 0 -17.666 3.5 -24.999 10.5s-11 15.833 -11 26.5v95c0 8 -3 14 -9 18s-13.667 6 -23 6s-17 -2 -23 -6s-9 -10 -9 -18v-492c0 -7.33301 3 -13 9 -17s13.667 -6 23 -6s17 2 23 6s9 9.66699 9 17v96c0 10 3.66699 18.667 11 26s15.666 11 24.999 11h62
c10.667 0 19.667 -3.66699 27 -11s11 -16 11 -26v-100zM263 891c0 -10 -3.66699 -18.5 -11 -25.5s-16 -10.5 -26 -10.5h-52c-9.33301 0 -17.666 3.5 -24.999 10.5s-11 15.5 -11 25.5v50c0 10.667 3.66699 19.5 11 26.5s15.666 10.5 24.999 10.5h52
c10 0 18.667 -3.5 26 -10.5s11 -15.833 11 -26.5v-50z" />
    <glyph glyph-name="cdotaccent" unicode="&#x10b;" horiz-adv-x="372" 
d="M347 134c0 -21.333 -4.16699 -41 -12.5 -59s-19.833 -33.167 -34.5 -45.5s-31.5 -22.166 -50.5 -29.499s-38.833 -11 -59.5 -11c-22.667 0 -43.667 3.66699 -63 11s-36.166 17.166 -50.499 29.499s-25.5 27.5 -33.5 45.5s-12 37.667 -12 59v314c0 22 4 42 12 60
s19.167 33.5 33.5 46.5s31.166 22.833 50.499 29.5s40.333 10 63 10c20.667 0 40.5 -3.33301 59.5 -10s35.833 -16.5 50.5 -29.5s26.167 -28.5 34.5 -46.5s12.5 -38 12.5 -60v-33c0 -9.33301 -3.66699 -17.666 -11 -24.999s-16 -11 -26 -11h-53
c-10 0 -18.5 3.66699 -25.5 11s-10.5 15.666 -10.5 24.999v36c0 10 -2.83301 17.333 -8.5 22s-13.167 7 -22.5 7c-10 0 -18.167 -2.33301 -24.5 -7s-9.5 -12 -9.5 -22v-318c0 -9.33301 3.16699 -16.5 9.5 -21.5s14.5 -7.5 24.5 -7.5c9.33301 0 16.833 2.5 22.5 7.5
s8.5 12.167 8.5 21.5v33c0 10 3.5 18.667 10.5 26s15.5 11 25.5 11h53c10 0 18.667 -3.66699 26 -11s11 -16 11 -26v-32zM248 695c0 -10 -3.66699 -18.5 -11 -25.5s-16 -10.5 -26 -10.5h-52c-9.33301 0 -17.666 3.5 -24.999 10.5s-11 15.5 -11 25.5v50
c0 10.667 3.66699 19.5 11 26.5s15.666 10.5 24.999 10.5h52c10 0 18.667 -3.5 26 -10.5s11 -15.833 11 -26.5v-50z" />
    <glyph glyph-name="Ccaron" unicode="&#x10c;" horiz-adv-x="401" 
d="M370 145c0 -20 -4.5 -39.167 -13.5 -57.5s-20.833 -34.833 -35.5 -49.5s-32.5 -26.5 -53.5 -35.5s-42.833 -13.5 -65.5 -13.5c-23.333 0 -45.5 4.5 -66.5 13.5s-39 20.833 -54 35.5s-27.167 31.167 -36.5 49.5s-14 37.5 -14 57.5v501c0 20 4.66699 39.167 14 57.5
s21.5 34.833 36.5 49.5s33 26.167 54 34.5s43.167 12.5 66.5 12.5c22.667 0 44.5 -4.16699 65.5 -12.5s38.833 -19.833 53.5 -34.5s26.5 -31.167 35.5 -49.5s13.5 -37.5 13.5 -57.5v-100c0 -10.667 -3.66699 -19.5 -11 -26.5s-16.333 -10.5 -27 -10.5h-62
c-9.33301 0 -17.666 3.5 -24.999 10.5s-11 15.833 -11 26.5v95c0 8 -3 14 -9 18s-13.667 6 -23 6s-17 -2 -23 -6s-9 -10 -9 -18v-492c0 -7.33301 3 -13 9 -17s13.667 -6 23 -6s17 2 23 6s9 9.66699 9 17v96c0 10 3.66699 18.667 11 26s15.666 11 24.999 11h62
c10.667 0 19.667 -3.66699 27 -11s11 -16 11 -26v-100zM43 952c-0.666992 2.66699 -1.33398 4.5 -2.00098 5.5s-1 3.16699 -1 6.5c0 5.33301 2 10.5 6 15.5s9.33301 7.5 16 7.5h52c6 0 12 -3 18 -9l64 -60h6l65 60c6 6 12 9 18 9h52c5.33301 0 10.5 -2.16699 15.5 -6.5
s7.5 -9.83301 7.5 -16.5c0 -4.66699 -1.66699 -8.66699 -5 -12l-82 -79c-5.33301 -6 -10.166 -10.333 -14.499 -13s-9.5 -4 -15.5 -4h-86c-7.33301 0 -13.333 1.33301 -18 4s-9.66699 7 -15 13z" />
    <glyph glyph-name="ccaron" unicode="&#x10d;" horiz-adv-x="372" 
d="M347 134c0 -21.333 -4.16699 -41 -12.5 -59s-19.833 -33.167 -34.5 -45.5s-31.5 -22.166 -50.5 -29.499s-38.833 -11 -59.5 -11c-22.667 0 -43.667 3.66699 -63 11s-36.166 17.166 -50.499 29.499s-25.5 27.5 -33.5 45.5s-12 37.667 -12 59v314c0 22 4 42 12 60
s19.167 33.5 33.5 46.5s31.166 22.833 50.499 29.5s40.333 10 63 10c20.667 0 40.5 -3.33301 59.5 -10s35.833 -16.5 50.5 -29.5s26.167 -28.5 34.5 -46.5s12.5 -38 12.5 -60v-33c0 -9.33301 -3.66699 -17.666 -11 -24.999s-16 -11 -26 -11h-53
c-10 0 -18.5 3.66699 -25.5 11s-10.5 15.666 -10.5 24.999v36c0 10 -2.83301 17.333 -8.5 22s-13.167 7 -22.5 7c-10 0 -18.167 -2.33301 -24.5 -7s-9.5 -12 -9.5 -22v-318c0 -9.33301 3.16699 -16.5 9.5 -21.5s14.5 -7.5 24.5 -7.5c9.33301 0 16.833 2.5 22.5 7.5
s8.5 12.167 8.5 21.5v33c0 10 3.5 18.667 10.5 26s15.5 11 25.5 11h53c10 0 18.667 -3.66699 26 -11s11 -16 11 -26v-32zM31 756c-0.666992 2.66699 -1.33398 4.5 -2.00098 5.5s-1 3.16699 -1 6.5c0 5.33301 2 10.5 6 15.5s9.33301 7.5 16 7.5h52c6 0 12 -3 18 -9l64 -60h6
l65 60c6 6 12 9 18 9h52c5.33301 0 10.5 -2.16699 15.5 -6.5s7.5 -9.83301 7.5 -16.5c0 -4.66699 -1.66699 -8.66699 -5 -12l-82 -79c-5.33301 -6 -10.166 -10.333 -14.499 -13s-9.5 -4 -15.5 -4h-86c-7.33301 0 -13.333 1.33301 -18 4s-9.66699 7 -15 13z" />
    <glyph glyph-name="Dcaron" unicode="&#x10e;" horiz-adv-x="408" 
d="M239 618c0 12 -2.5 20.333 -7.5 25s-12.167 7 -21.5 7h-36v-511h36c9.33301 0 16.5 2.66699 21.5 8s7.5 13 7.5 23v448zM377 144c0 -25.333 -4.83301 -46.9971 -14.5 -64.9971s-22.167 -32.833 -37.5 -44.5s-32.166 -20.334 -50.499 -26.001s-36.166 -8.5 -53.499 -8.5
h-148c-9.33301 0 -17.666 3.66699 -24.999 11s-11 15.666 -11 24.999v718c0 10 3.66699 18.667 11 26s15.666 11 24.999 11h148c17.333 0 35.166 -2.83301 53.499 -8.5s35.166 -14.334 50.499 -26.001s27.833 -26.667 37.5 -45s14.5 -39.833 14.5 -64.5v-503zM47 952.003
c-0.666992 2.66699 -1.33398 4.5 -2.00098 5.5s-1 3.16699 -1 6.5c0 5.33301 2 10.5 6 15.5s9.33301 7.5 16 7.5h52c6 0 12 -3 18 -9l64 -60h6l65 60c6 6 12 9 18 9h52c5.33301 0 10.5 -2.16699 15.5 -6.5s7.5 -9.83301 7.5 -16.5c0 -4.66699 -1.66699 -8.66699 -5 -12
l-82 -79c-5.33301 -6 -10.166 -10.333 -14.499 -13s-9.5 -4 -15.5 -4h-86c-7.33301 0 -13.333 1.33301 -18 4s-9.66699 7 -15 13z" />
    <glyph glyph-name="dcaron" unicode="&#x10f;" horiz-adv-x="583" 
d="M223 450c0 9.33301 -3 16.5 -9 21.5s-13.333 7.5 -22 7.5c-9.33301 0 -17.333 -2.5 -24 -7.5s-10 -12.167 -10 -21.5v-317c0 -9.33301 3.33301 -16.5 10 -21.5s14.667 -7.5 24 -7.5c8.66699 0 16 2.5 22 7.5s9 12.167 9 21.5v317zM348 36
c0 -9.33301 -3.33398 -17.668 -10.001 -25.001s-15.667 -11 -27 -11h-66c-7.33301 0 -11.666 3.66699 -12.999 11l-4 14h-7c-10 -10 -22.667 -18.5 -38 -25.5s-31.666 -10.5 -48.999 -10.5c-13.333 0 -26.166 2.5 -38.499 7.5s-23 11.5 -32 19.5s-16.167 18 -21.5 30
s-8 26.333 -8 43v405c0 15.333 2.66699 29 8 41s12.5 22.5 21.5 31.5s19.667 15.667 32 20s25.166 6.5 38.499 6.5c16 0 31.333 -3.16699 46 -9.5s26.667 -15.166 36 -26.499h7v147c0 10 3.66699 18.5 11 25.5s15.666 10.5 24.999 10.5h52c11.333 0 20.333 -3.5 27 -10.5
s10 -15.5 10 -25.5v-668zM128.999 887.998c-0.666992 2.66699 -1.33398 4.5 -2.00098 5.5s-1 3.16699 -1 6.5c0 5.33301 2 10.5 6 15.5s9.33301 7.5 16 7.5h52c6 0 12 -3 18 -9l64 -60h6l65 60c6 6 12 9 18 9h52c5.33301 0 10.5 -2.16699 15.5 -6.5s7.5 -9.83301 7.5 -16.5
c0 -4.66699 -1.66699 -8.66699 -5 -12l-82 -79c-5.33301 -6 -10.166 -10.333 -14.499 -13s-9.5 -4 -15.5 -4h-86c-7.33301 0 -13.333 1.33301 -18 4s-9.66699 7 -15 13z" />
    <glyph glyph-name="Dcroat" unicode="&#x110;" horiz-adv-x="408" 
d="M214 384c0 -10.667 -3.66699 -19.334 -11 -26.001s-16.333 -10 -27 -10h-140c-9.33301 0 -17.666 3.33301 -24.999 10s-11 15.334 -11 26.001v31c0 10.667 3.66699 19.5 11 26.5s15.666 10.5 24.999 10.5h140c10.667 0 19.667 -3.5 27 -10.5s11 -15.833 11 -26.5v-31z
M239 618c0 12 -2.5 20.333 -7.5 25s-12.167 7 -21.5 7h-36v-511h36c9.33301 0 16.5 2.66699 21.5 8s7.5 13 7.5 23v448zM377 144c0 -25.333 -4.83301 -46.9971 -14.5 -64.9971s-22.167 -32.833 -37.5 -44.5s-32.166 -20.334 -50.499 -26.001s-36.166 -8.5 -53.499 -8.5h-148
c-9.33301 0 -17.666 3.66699 -24.999 11s-11 15.666 -11 24.999v718c0 10 3.66699 18.667 11 26s15.666 11 24.999 11h148c17.333 0 35.166 -2.83301 53.499 -8.5s35.166 -14.334 50.499 -26.001s27.833 -26.667 37.5 -45s14.5 -39.833 14.5 -64.5v-503z" />
    <glyph glyph-name="dcroat" unicode="&#x111;" horiz-adv-x="385" 
d="M223 451c0 10 -3 17.333 -9 22s-13.333 7 -22 7c-9.33301 0 -17.333 -2.33301 -24 -7s-10 -12 -10 -22v-318c0 -9.33301 3.33301 -16.5 10 -21.5s14.667 -7.5 24 -7.5c8.66699 0 16 2.5 22 7.5s9 12.167 9 21.5v318zM348 36c0 -9.33301 -3.33398 -17.668 -10.001 -25.001
s-15.667 -11 -27 -11h-66c-7.33301 0 -11.666 3.66699 -12.999 11l-4 14h-7c-10 -10 -22.667 -18.5 -38 -25.5s-31.666 -10.5 -48.999 -10.5c-13.333 0 -26.166 2.5 -38.499 7.5s-23 11.5 -32 19.5s-16.167 18 -21.5 30s-8 26.333 -8 43v407c0 14 2.66699 27.167 8 39.5
s12.5 23 21.5 32s19.667 15.667 32 20s25.166 6.5 38.499 6.5c16 0 31.333 -3.16699 46 -9.5s26.667 -15.166 36 -26.499h7v196c0 10 3.66699 18.667 11 26s15.666 11 24.999 11h52c11.333 0 20.333 -3.66699 27 -11s10 -16 10 -26v-718zM184.999 683.998
c0 -9.33301 -3.66699 -17.666 -11 -24.999s-16 -11 -26 -11h-77c-10.667 0 -19.5 3.66699 -26.5 11s-10.5 15.666 -10.5 24.999v68c0 10 3.5 18.667 10.5 26s15.833 11 26.5 11h77c10 0 18.667 -3.66699 26 -11s11 -16 11 -26v-68z" />
    <glyph glyph-name="Emacron" unicode="&#x112;" horiz-adv-x="338" 
d="M314 36c0 -9.33301 -3.5 -17.666 -10.5 -24.999s-15.833 -11 -26.5 -11h-204c-9.33301 0 -17.666 3.66699 -24.999 11s-11 15.666 -11 24.999v718c0 10 3.66699 18.667 11 26s15.666 11 24.999 11h204c10.667 0 19.5 -3.66699 26.5 -11s10.5 -16 10.5 -26v-57
c0 -10 -3.5 -18.5 -10.5 -25.5s-15.833 -10.5 -26.5 -10.5h-103v-181h54c11.333 0 20.333 -3.33301 27 -10s10 -15.667 10 -27v-66c0 -10.667 -3.33301 -19.5 -10 -26.5s-15.667 -10.5 -27 -10.5h-54v-200h103c10.667 0 19.5 -3.5 26.5 -10.5s10.5 -15.833 10.5 -26.5v-67z
M282 892c0 -9.33301 -3.5 -17.666 -10.5 -24.999s-15.833 -11 -26.5 -11h-152c-10 0 -18.5 3.66699 -25.5 11s-10.5 15.666 -10.5 24.999v16c0 9.33301 3.5 17.666 10.5 24.999s15.5 11 25.5 11h152c10.667 0 19.5 -3.66699 26.5 -11s10.5 -15.666 10.5 -24.999v-16z" />
    <glyph glyph-name="emacron" unicode="&#x113;" horiz-adv-x="378" 
d="M221 452c0 10 -2.83301 17.333 -8.5 22s-13.167 7 -22.5 7c-10 0 -18.167 -2.33301 -24.5 -7s-9.5 -12 -9.5 -22v-133h65v133zM347 134c0 -21.333 -4.16699 -41 -12.5 -59s-19.833 -33.167 -34.5 -45.5s-31.5 -22.166 -50.5 -29.499s-38.833 -11 -59.5 -11
c-22.667 0 -43.667 3.66699 -63 11s-36.166 17.166 -50.499 29.499s-25.5 27.5 -33.5 45.5s-12 37.667 -12 59v315c0 21.333 4 41 12 59s19.167 33.5 33.5 46.5s31.166 22.833 50.499 29.5s40.333 10 63 10c20.667 0 40.5 -3.33301 59.5 -10s35.833 -16.5 50.5 -29.5
s26.167 -28.5 34.5 -46.5s12.5 -37.667 12.5 -59v-142c0 -16.667 -6 -30.834 -18 -42.501s-26.333 -17.5 -43 -17.5h-130v-114c0 -9.33301 3.16699 -16.666 9.5 -21.999s14.5 -8 24.5 -8c9.33301 0 16.833 2.66699 22.5 8s8.5 13 8.5 23c0 10.667 3.5 19.667 10.5 27
s15.5 11 25.5 11h53c10 0 18.667 -3.66699 26 -11s11 -16.333 11 -27zM302 696c0 -9.33301 -3.5 -17.666 -10.5 -24.999s-15.833 -11 -26.5 -11h-152c-10 0 -18.5 3.66699 -25.5 11s-10.5 15.666 -10.5 24.999v16c0 9.33301 3.5 17.666 10.5 24.999s15.5 11 25.5 11h152
c10.667 0 19.5 -3.66699 26.5 -11s10.5 -15.666 10.5 -24.999v-16z" />
    <glyph glyph-name="Ebreve" unicode="&#x114;" horiz-adv-x="338" 
d="M314 36c0 -9.33301 -3.5 -17.666 -10.5 -24.999s-15.833 -11 -26.5 -11h-204c-9.33301 0 -17.666 3.66699 -24.999 11s-11 15.666 -11 24.999v718c0 10 3.66699 18.667 11 26s15.666 11 24.999 11h204c10.667 0 19.5 -3.66699 26.5 -11s10.5 -16 10.5 -26v-57
c0 -10 -3.5 -18.5 -10.5 -25.5s-15.833 -10.5 -26.5 -10.5h-103v-181h54c11.333 0 20.333 -3.33301 27 -10s10 -15.667 10 -27v-66c0 -10.667 -3.33301 -19.5 -10 -26.5s-15.667 -10.5 -27 -10.5h-54v-200h103c10.667 0 19.5 -3.5 26.5 -10.5s10.5 -15.833 10.5 -26.5v-67z
M169 933c16 0 29.9961 1.83203 41.9961 5.49902s20.667 12.167 26 25.5c2.66699 6.66699 5.83398 12.334 9.50098 17.001s9.16699 7 16.5 7h18c6.66699 0 12 -2.33301 16 -7s6 -10.667 6 -18c-6 -36 -21.333 -63.167 -46 -81.5s-54 -27.5 -88 -27.5
c-32.667 0 -61.167 9.33301 -85.5 28s-39.166 46.334 -44.499 83.001c0 6 2 11.333 6 16s9 7 15 7h18c7.33301 0 13 -2.33301 17 -7s7.33301 -10.334 10 -17.001c4.66699 -13.333 12.834 -21.833 24.501 -25.5s24.834 -5.5 39.501 -5.5z" />
    <glyph glyph-name="ebreve" unicode="&#x115;" horiz-adv-x="378" 
d="M221 452c0 10 -2.83301 17.333 -8.5 22s-13.167 7 -22.5 7c-10 0 -18.167 -2.33301 -24.5 -7s-9.5 -12 -9.5 -22v-133h65v133zM347 134c0 -21.333 -4.16699 -41 -12.5 -59s-19.833 -33.167 -34.5 -45.5s-31.5 -22.166 -50.5 -29.499s-38.833 -11 -59.5 -11
c-22.667 0 -43.667 3.66699 -63 11s-36.166 17.166 -50.499 29.499s-25.5 27.5 -33.5 45.5s-12 37.667 -12 59v315c0 21.333 4 41 12 59s19.167 33.5 33.5 46.5s31.166 22.833 50.499 29.5s40.333 10 63 10c20.667 0 40.5 -3.33301 59.5 -10s35.833 -16.5 50.5 -29.5
s26.167 -28.5 34.5 -46.5s12.5 -37.667 12.5 -59v-142c0 -16.667 -6 -30.834 -18 -42.501s-26.333 -17.5 -43 -17.5h-130v-114c0 -9.33301 3.16699 -16.666 9.5 -21.999s14.5 -8 24.5 -8c9.33301 0 16.833 2.66699 22.5 8s8.5 13 8.5 23c0 10.667 3.5 19.667 10.5 27
s15.5 11 25.5 11h53c10 0 18.667 -3.66699 26 -11s11 -16.333 11 -27zM187 737c16 0 29.9961 1.83203 41.9961 5.49902s20.667 12.167 26 25.5c2.66699 6.66699 5.83398 12.334 9.50098 17.001s9.16699 7 16.5 7h18c6.66699 0 12 -2.33301 16 -7s6 -10.667 6 -18
c-6 -36 -21.333 -63.167 -46 -81.5s-54 -27.5 -88 -27.5c-32.667 0 -61.167 9.33301 -85.5 28s-39.166 46.334 -44.499 83.001c0 6 2 11.333 6 16s9 7 15 7h18c7.33301 0 13 -2.33301 17 -7s7.33301 -10.334 10 -17.001c4.66699 -13.333 12.834 -21.833 24.501 -25.5
s24.834 -5.5 39.501 -5.5z" />
    <glyph glyph-name="Edotaccent" unicode="&#x116;" horiz-adv-x="338" 
d="M314 36c0 -9.33301 -3.5 -17.666 -10.5 -24.999s-15.833 -11 -26.5 -11h-204c-9.33301 0 -17.666 3.66699 -24.999 11s-11 15.666 -11 24.999v718c0 10 3.66699 18.667 11 26s15.666 11 24.999 11h204c10.667 0 19.5 -3.66699 26.5 -11s10.5 -16 10.5 -26v-57
c0 -10 -3.5 -18.5 -10.5 -25.5s-15.833 -10.5 -26.5 -10.5h-103v-181h54c11.333 0 20.333 -3.33301 27 -10s10 -15.667 10 -27v-66c0 -10.667 -3.33301 -19.5 -10 -26.5s-15.667 -10.5 -27 -10.5h-54v-200h103c10.667 0 19.5 -3.5 26.5 -10.5s10.5 -15.833 10.5 -26.5v-67z
M232 891c0 -10 -3.66699 -18.5 -11 -25.5s-16 -10.5 -26 -10.5h-52c-9.33301 0 -17.666 3.5 -24.999 10.5s-11 15.5 -11 25.5v50c0 10.667 3.66699 19.5 11 26.5s15.666 10.5 24.999 10.5h52c10 0 18.667 -3.5 26 -10.5s11 -15.833 11 -26.5v-50z" />
    <glyph glyph-name="edotaccent" unicode="&#x117;" horiz-adv-x="378" 
d="M221 452c0 10 -2.83301 17.333 -8.5 22s-13.167 7 -22.5 7c-10 0 -18.167 -2.33301 -24.5 -7s-9.5 -12 -9.5 -22v-133h65v133zM347 134c0 -21.333 -4.16699 -41 -12.5 -59s-19.833 -33.167 -34.5 -45.5s-31.5 -22.166 -50.5 -29.499s-38.833 -11 -59.5 -11
c-22.667 0 -43.667 3.66699 -63 11s-36.166 17.166 -50.499 29.499s-25.5 27.5 -33.5 45.5s-12 37.667 -12 59v315c0 21.333 4 41 12 59s19.167 33.5 33.5 46.5s31.166 22.833 50.499 29.5s40.333 10 63 10c20.667 0 40.5 -3.33301 59.5 -10s35.833 -16.5 50.5 -29.5
s26.167 -28.5 34.5 -46.5s12.5 -37.667 12.5 -59v-142c0 -16.667 -6 -30.834 -18 -42.501s-26.333 -17.5 -43 -17.5h-130v-114c0 -9.33301 3.16699 -16.666 9.5 -21.999s14.5 -8 24.5 -8c9.33301 0 16.833 2.66699 22.5 8s8.5 13 8.5 23c0 10.667 3.5 19.667 10.5 27
s15.5 11 25.5 11h53c10 0 18.667 -3.66699 26 -11s11 -16.333 11 -27zM252 695c0 -10 -3.66699 -18.5 -11 -25.5s-16 -10.5 -26 -10.5h-52c-9.33301 0 -17.666 3.5 -24.999 10.5s-11 15.5 -11 25.5v50c0 10.667 3.66699 19.5 11 26.5s15.666 10.5 24.999 10.5h52
c10 0 18.667 -3.5 26 -10.5s11 -15.833 11 -26.5v-50z" />
    <glyph glyph-name="Eogonek" unicode="&#x118;" horiz-adv-x="338" 
d="M314 36c0 -9.33301 -3.5 -17.666 -10.5 -24.999s-15.833 -11 -26.5 -11h-204c-9.33301 0 -17.666 3.66699 -24.999 11s-11 15.666 -11 24.999v718c0 10 3.66699 18.667 11 26s15.666 11 24.999 11h204c10.667 0 19.5 -3.66699 26.5 -11s10.5 -16 10.5 -26v-57
c0 -10 -3.5 -18.5 -10.5 -25.5s-15.833 -10.5 -26.5 -10.5h-103v-181h54c11.333 0 20.333 -3.33301 27 -10s10 -15.667 10 -27v-66c0 -10.667 -3.33301 -19.5 -10 -26.5s-15.667 -10.5 -27 -10.5h-54v-200h103c10.667 0 19.5 -3.5 26.5 -10.5s10.5 -15.833 10.5 -26.5v-67z
M310 -167c-13.333 -8 -26.668 -14.166 -40.001 -18.499s-26.666 -6.5 -39.999 -6.5c-42.667 0 -64 24.333 -64 73c0 34 17.333 73.667 52 119h44c-23.333 -44.667 -35 -79.334 -35 -104.001c0 -25.333 10.333 -38 31 -38c5.33301 0 11 0.833008 17 2.5s12 2.5 18 2.5
s11.333 -1.83301 16 -5.5s7 -7.83398 7 -12.501c0 -1.33301 -0.5 -3.16602 -1.5 -5.49902s-2.5 -4.5 -4.5 -6.5z" />
    <glyph glyph-name="eogonek" unicode="&#x119;" horiz-adv-x="378" 
d="M221 452c0 10 -2.83301 17.333 -8.5 22s-13.167 7 -22.5 7c-10 0 -18.167 -2.33301 -24.5 -7s-9.5 -12 -9.5 -22v-133h65v133zM347 134c0 -21.333 -4.16699 -41 -12.5 -59s-19.833 -33.167 -34.5 -45.5s-31.5 -22.166 -50.5 -29.499s-38.833 -11 -59.5 -11
c-22.667 0 -43.667 3.66699 -63 11s-36.166 17.166 -50.499 29.499s-25.5 27.5 -33.5 45.5s-12 37.667 -12 59v315c0 21.333 4 41 12 59s19.167 33.5 33.5 46.5s31.166 22.833 50.499 29.5s40.333 10 63 10c20.667 0 40.5 -3.33301 59.5 -10s35.833 -16.5 50.5 -29.5
s26.167 -28.5 34.5 -46.5s12.5 -37.667 12.5 -59v-142c0 -16.667 -6 -30.834 -18 -42.501s-26.333 -17.5 -43 -17.5h-130v-114c0 -9.33301 3.16699 -16.666 9.5 -21.999s14.5 -8 24.5 -8c9.33301 0 16.833 2.66699 22.5 8s8.5 13 8.5 23c0 10.667 3.5 19.667 10.5 27
s15.5 11 25.5 11h53c10 0 18.667 -3.66699 26 -11s11 -16.333 11 -27zM291 -167c-13.333 -8 -26.668 -14.166 -40.001 -18.499s-26.666 -6.5 -39.999 -6.5c-42.667 0 -64 24.333 -64 73c0 34 17.333 73.667 52 119h44c-23.333 -44.667 -35 -79.334 -35 -104.001
c0 -25.333 10.333 -38 31 -38c5.33301 0 11 0.833008 17 2.5s12 2.5 18 2.5s11.333 -1.83301 16 -5.5s7 -7.83398 7 -12.501c0 -1.33301 -0.5 -3.16602 -1.5 -5.49902s-2.5 -4.5 -4.5 -6.5z" />
    <glyph glyph-name="Ecaron" unicode="&#x11a;" horiz-adv-x="338" 
d="M314 36c0 -9.33301 -3.5 -17.666 -10.5 -24.999s-15.833 -11 -26.5 -11h-204c-9.33301 0 -17.666 3.66699 -24.999 11s-11 15.666 -11 24.999v718c0 10 3.66699 18.667 11 26s15.666 11 24.999 11h204c10.667 0 19.5 -3.66699 26.5 -11s10.5 -16 10.5 -26v-57
c0 -10 -3.5 -18.5 -10.5 -25.5s-15.833 -10.5 -26.5 -10.5h-103v-181h54c11.333 0 20.333 -3.33301 27 -10s10 -15.667 10 -27v-66c0 -10.667 -3.33301 -19.5 -10 -26.5s-15.667 -10.5 -27 -10.5h-54v-200h103c10.667 0 19.5 -3.5 26.5 -10.5s10.5 -15.833 10.5 -26.5v-67z
M14 952c-0.666992 2.66699 -1.33398 4.5 -2.00098 5.5s-1 3.16699 -1 6.5c0 5.33301 2 10.5 6 15.5s9.33301 7.5 16 7.5h52c6 0 12 -3 18 -9l64 -60h6l65 60c6 6 12 9 18 9h52c5.33301 0 10.5 -2.16699 15.5 -6.5s7.5 -9.83301 7.5 -16.5
c0 -4.66699 -1.66699 -8.66699 -5 -12l-82 -79c-5.33301 -6 -10.166 -10.333 -14.499 -13s-9.5 -4 -15.5 -4h-86c-7.33301 0 -13.333 1.33301 -18 4s-9.66699 7 -15 13z" />
    <glyph glyph-name="ecaron" unicode="&#x11b;" horiz-adv-x="378" 
d="M221 452c0 10 -2.83301 17.333 -8.5 22s-13.167 7 -22.5 7c-10 0 -18.167 -2.33301 -24.5 -7s-9.5 -12 -9.5 -22v-133h65v133zM347 134c0 -21.333 -4.16699 -41 -12.5 -59s-19.833 -33.167 -34.5 -45.5s-31.5 -22.166 -50.5 -29.499s-38.833 -11 -59.5 -11
c-22.667 0 -43.667 3.66699 -63 11s-36.166 17.166 -50.499 29.499s-25.5 27.5 -33.5 45.5s-12 37.667 -12 59v315c0 21.333 4 41 12 59s19.167 33.5 33.5 46.5s31.166 22.833 50.499 29.5s40.333 10 63 10c20.667 0 40.5 -3.33301 59.5 -10s35.833 -16.5 50.5 -29.5
s26.167 -28.5 34.5 -46.5s12.5 -37.667 12.5 -59v-142c0 -16.667 -6 -30.834 -18 -42.501s-26.333 -17.5 -43 -17.5h-130v-114c0 -9.33301 3.16699 -16.666 9.5 -21.999s14.5 -8 24.5 -8c9.33301 0 16.833 2.66699 22.5 8s8.5 13 8.5 23c0 10.667 3.5 19.667 10.5 27
s15.5 11 25.5 11h53c10 0 18.667 -3.66699 26 -11s11 -16.333 11 -27zM34 756c-0.666992 2.66699 -1.33398 4.5 -2.00098 5.5s-1 3.16699 -1 6.5c0 5.33301 2 10.5 6 15.5s9.33301 7.5 16 7.5h52c6 0 12 -3 18 -9l64 -60h6l65 60c6 6 12 9 18 9h52
c5.33301 0 10.5 -2.16699 15.5 -6.5s7.5 -9.83301 7.5 -16.5c0 -4.66699 -1.66699 -8.66699 -5 -12l-82 -79c-5.33301 -6 -10.166 -10.333 -14.499 -13s-9.5 -4 -15.5 -4h-86c-7.33301 0 -13.333 1.33301 -18 4s-9.66699 7 -15 13z" />
    <glyph glyph-name="Gcircumflex" unicode="&#x11c;" horiz-adv-x="406" 
d="M370 36c0 -9.33301 -3.66309 -17.668 -10.9961 -25.001s-16.333 -11 -27 -11h-26c-9.33301 0 -16 4 -20 12l-8 16h-8c-8.66699 -9.33301 -21.167 -18.166 -37.5 -26.499s-33.5 -12.5 -51.5 -12.5c-22 0 -42.333 4 -61 12s-34.5 19 -47.5 33s-23.167 30.5 -30.5 49.5
s-11 39.5 -11 61.5v501c0 20 4.16699 39.167 12.5 57.5s20.166 34.833 35.499 49.5s33.166 26.167 53.499 34.5s42.166 12.5 65.499 12.5s45.166 -4.16699 65.499 -12.5s38.166 -19.833 53.499 -34.5s27.166 -31.167 35.499 -49.5s12.5 -37.5 12.5 -57.5v-106
c0 -10.667 -3.66699 -19.334 -11 -26.001s-15.666 -10 -24.999 -10h-63c-9.33301 0 -17.666 3.33301 -24.999 10s-11 15.334 -11 26.001v101c0 8 -3 14 -9 18s-13.667 6 -23 6s-17 -2 -23 -6s-9 -10 -9 -18v-503c0 -6.66699 3 -12.334 9 -17.001s13.667 -7 23 -7
s17 2.33301 23 7s9 10.334 9 17.001v133h-6c-6 0 -11.167 2.5 -15.5 7.5s-6.5 10.167 -6.5 15.5v55c0 10.667 3.5 19.5 10.5 26.5s15.5 10.5 25.5 10.5h94c10.667 0 19.667 -3.5 27 -10.5s11 -15.833 11 -26.5v-313zM127.004 968.998
c5.33301 4.66699 10.333 8.83203 15 12.499s10.667 5.5 18 5.5h86c6 0 11.167 -1.5 15.5 -4.5s9.16602 -7.5 14.499 -13.5l82 -79c3.33301 -2.66699 5 -6.66699 5 -12c0 -6 -2.5 -11.167 -7.5 -15.5s-10.167 -6.5 -15.5 -6.5h-52c-6 0 -12 2.66699 -18 8l-65 66h-6l-64 -66
c-6 -5.33301 -12 -8 -18 -8h-52c-6.66699 0 -12 2.16699 -16 6.5s-6 9.83301 -6 16.5c0 1.33301 0.333008 2.83301 1 4.5s1.33398 3.83398 2.00098 6.50098z" />
    <glyph glyph-name="gcircumflex" unicode="&#x11d;" horiz-adv-x="394" 
d="M158 133c0 -9.33301 3.33301 -16.5 10 -21.5s14.667 -7.5 24 -7.5c8.66699 0 16.167 2.5 22.5 7.5s9.5 12.167 9.5 21.5v318c0 10 -3.16699 17.333 -9.5 22s-13.833 7 -22.5 7c-9.33301 0 -17.333 -2.33301 -24 -7s-10 -12 -10 -22v-318zM348 -77
c0 -19.333 -3.16797 -36.999 -9.50098 -52.999s-15.166 -29.333 -26.499 -40s-24.5 -19.334 -39.5 -26.001s-31.5 -10 -49.5 -10h-57c-10.667 0 -19.667 3.5 -27 10.5s-11 15.833 -11 26.5v41c0 10 3.66699 18.5 11 25.5s16.333 10.5 27 10.5h26c9.33301 0 17 3 23 9
s9 13 9 21v88h-8c-8.66699 -10 -20.5 -18.667 -35.5 -26s-30.833 -11 -47.5 -11c-13.333 0 -26.166 2.5 -38.499 7.5s-23 11.667 -32 20s-16 18.5 -21 30.5s-7.5 26 -7.5 42v407c0 14.667 2.5 28.334 7.5 41.001s12 23.167 21 31.5s19.667 14.666 32 18.999
s25.166 6.5 38.499 6.5c18 0 34.667 -3.16699 50 -9.5s28 -15.166 38 -26.499h7l4 16c1.33301 6 5.66602 9 12.999 9h67c10.667 0 19.334 -3.33301 26.001 -10s10 -15.334 10 -26.001v-624zM121.999 773.001c5.33301 4.66699 10.333 8.83203 15 12.499s10.667 5.5 18 5.5h86
c6 0 11.167 -1.5 15.5 -4.5s9.16602 -7.5 14.499 -13.5l82 -79c3.33301 -2.66699 5 -6.66699 5 -12c0 -6 -2.5 -11.167 -7.5 -15.5s-10.167 -6.5 -15.5 -6.5h-52c-6 0 -12 2.66699 -18 8l-65 66h-6l-64 -66c-6 -5.33301 -12 -8 -18 -8h-52c-6.66699 0 -12 2.16699 -16 6.5
s-6 9.83301 -6 16.5c0 1.33301 0.333008 2.83301 1 4.5s1.33398 3.83398 2.00098 6.50098z" />
    <glyph glyph-name="Gbreve" unicode="&#x11e;" horiz-adv-x="406" 
d="M370 36c0 -9.33301 -3.66309 -17.668 -10.9961 -25.001s-16.333 -11 -27 -11h-26c-9.33301 0 -16 4 -20 12l-8 16h-8c-8.66699 -9.33301 -21.167 -18.166 -37.5 -26.499s-33.5 -12.5 -51.5 -12.5c-22 0 -42.333 4 -61 12s-34.5 19 -47.5 33s-23.167 30.5 -30.5 49.5
s-11 39.5 -11 61.5v501c0 20 4.16699 39.167 12.5 57.5s20.166 34.833 35.499 49.5s33.166 26.167 53.499 34.5s42.166 12.5 65.499 12.5s45.166 -4.16699 65.499 -12.5s38.166 -19.833 53.499 -34.5s27.166 -31.167 35.499 -49.5s12.5 -37.5 12.5 -57.5v-106
c0 -10.667 -3.66699 -19.334 -11 -26.001s-15.666 -10 -24.999 -10h-63c-9.33301 0 -17.666 3.33301 -24.999 10s-11 15.334 -11 26.001v101c0 8 -3 14 -9 18s-13.667 6 -23 6s-17 -2 -23 -6s-9 -10 -9 -18v-503c0 -6.66699 3 -12.334 9 -17.001s13.667 -7 23 -7
s17 2.33301 23 7s9 10.334 9 17.001v133h-6c-6 0 -11.167 2.5 -15.5 7.5s-6.5 10.167 -6.5 15.5v55c0 10.667 3.5 19.5 10.5 26.5s15.5 10.5 25.5 10.5h94c10.667 0 19.667 -3.5 27 -10.5s11 -15.833 11 -26.5v-313zM201.004 932.998c16 0 29.9961 1.83203 41.9961 5.49902
s20.667 12.167 26 25.5c2.66699 6.66699 5.83398 12.334 9.50098 17.001s9.16699 7 16.5 7h18c6.66699 0 12 -2.33301 16 -7s6 -10.667 6 -18c-6 -36 -21.333 -63.167 -46 -81.5s-54 -27.5 -88 -27.5c-32.667 0 -61.167 9.33301 -85.5 28s-39.166 46.334 -44.499 83.001
c0 6 2 11.333 6 16s9 7 15 7h18c7.33301 0 13 -2.33301 17 -7s7.33301 -10.334 10 -17.001c4.66699 -13.333 12.834 -21.833 24.501 -25.5s24.834 -5.5 39.501 -5.5z" />
    </font>
</defs>
</svg>
